<svg xmlns="http://www.w3.org/2000/svg" data-name="Layer 1" viewBox="0 0 900 600" id="children-firing-crackers"><path fill="#fd8b66" d="m401.404 338.583 7.577 26.916 3.69 17.376-5.633 27.653-24.498-7.706-2.515-56.466 2.147-10.88s1.34-5.977 10.286-1.435Z"></path><path fill="#d04719" d="m380.88 365.57 1.067 23.925c12.169-1.962 23.58-3.918 30.344-4.75l.38-1.87-3.69-17.375-.607-2.155c-3.562.571-7.847 1.653-10.37 1.52-1.653-.086-8.539.698-17.123.706Z"></path><path fill="#ffe3c2" d="M305.015 474.345c-35.237-7.07-68.754-19.045-95.33-45.36-21.503-21.292-35.448-49.824-40.214-79.706-6.126-38.4 3.544-78.774 25.185-110.94 18.915-28.115 33.01-73.791 63.14-88.138 37.297-17.76 87.523-11.365 126.454-25.575 70.95-25.897 59.226-32.741 134.025-23.632 43.273 5.27 86.666 18.206 120.961 46.09a173.854 173.854 0 0 1 26.615 26.99c55.882 70.6 56.943 183.295-2.93 251.921-16.528 18.944-37.61 33.789-60.498 44.053-50.918 22.836-108.881 24.068-163.693 21.697-62.1-2.687-37.114-3.318-98.776-11.707-11.709-1.593-23.416-3.38-34.94-5.693Z"></path><path fill="#ffe3c2" d="M587.929 504.864c.556-.038 1.112-.086 1.668-.126.53-.038 1.03-.093 1.564-.163-.148.02-.59.076.099-.012 1.43-.184 2.859-.379 4.282-.607q.838-.134 1.675-.282l.668-.12.333-.061q.69-.131-.046.013a6.309 6.309 0 0 1 1.628-.033 12.359 12.359 0 0 0 2.679-.419c4.522-1.116 8.998-2.514 13.404-4.021 2.474-.847 4.9-1.94 7.3-2.968 2.19-.938 4.386-1.894 6.502-2.988q6.054-3.128 11.854-6.72a202.26 202.26 0 0 0 38.46-30.863 211.529 211.529 0 0 0 29.997-39.123 208.426 208.426 0 0 0 11.173-21.417 190.517 190.517 0 0 0 14.765-47.24c.819-4.622 1.473-9.278 2.012-13.94.229-1.983.202-3.95.282-5.94q.122-3.05.146-6.102a15.569 15.569 0 0 0-.33-4.708 14.535 14.535 0 0 0-2.831-4.916l1.7 2.917a19.611 19.611 0 0 0-.839-2.38c-.855-2.285-2.85-4.298-5.49-4.18a6.753 6.753 0 0 0-2.873.778 6.072 6.072 0 0 0-2.616 3.402 24.753 24.753 0 0 0-.93 2.38l1.7-2.917a15.103 15.103 0 0 0-1.762 2.393 10.449 10.449 0 0 0-1.558 4.903c-.115 1.114-.2 2.232-.31 3.346-.225 2.28-.564 4.547-.788 6.825l.298-2.22c-.914 3.319-.998 6.906-1.452 10.317l.307-2.281a214.544 214.544 0 0 1-10.492 42.597q-2.077 5.9-4.508 11.665l.832-1.972a209.597 209.597 0 0 1-20.072 36.79q-3.368 4.92-7.015 9.64l1.166-1.509a206.2 206.2 0 0 1-27.44 29.267q-4.27 3.724-8.752 7.192l1.316-1.017a186.906 186.906 0 0 1-20.678 13.917c-3.912 2.261-7.823 4.518-11.871 6.531-2.013 1.001-3.98 2.06-6.04 2.965-.459.201-.916.434-1.388.6 1.362-.48-.377.151-.703.283q-1.73.702-3.48 1.35a23.514 23.514 0 0 0-4.186 1.722c-.185.113-.378.218-.566.326s-.378.215-.568.322q.577-.209.17-.069c-.593.177-1.177.391-1.768.579-2.465.783-4.963 1.472-7.462 2.134a3.141 3.141 0 0 0 .834 6.16ZM708.175 216.318q2.033 3.56 3.824 7.249c.144.296.287.592.427.89.031.067.478 1.06.168.342.343.794.64 1.607.997 2.394.59 1.299 1.212 2.581 1.784 3.888.132.302.262.605.393.907.443 1.021-.325-.802.092.218.246.602.494 1.204.734 1.809.481 1.213.979 2.42 1.452 3.636q1.483 3.81 2.708 7.715a137.865 137.865 0 0 1 3.89 15.583q.367 1.936.672 3.882c.102.65.195 1.3.29 1.95.17 1.17-.154-1.234-.009-.062.054.433.11.865.161 1.299q.461 3.9.67 7.827c.143 2.73.352 5.457.455 8.19q.074 1.965.082 3.933a11.305 11.305 0 0 0 .171 2.933 5.91 5.91 0 0 0 2.605 3.477c2.33 1.337 4.872.037 6.145-2.067 1.033-1.707.945-4.018 1.06-5.982a79.251 79.251 0 0 0 .188-8.193 116.585 116.585 0 0 0-2.199-16.972 116.24 116.24 0 0 0-11.765-32.745 104.538 104.538 0 0 0-10.752-15.375 2.68 2.68 0 0 0-3.547-.212 2.712 2.712 0 0 0-.696 3.486ZM161.696 402.288a10.327 10.327 0 0 1-.065 1.462 8.279 8.279 0 0 0 .209 2.709c.251.992.558 1.974.857 2.953.584 1.915 1.169 3.818 1.921 5.673 1.69 4.163 3.534 8.26 5.63 12.236a116.771 116.771 0 0 0 14.702 21.217 126.93 126.93 0 0 0 39.115 30.608 98.18 98.18 0 0 0 13.988 5.882 59.017 59.017 0 0 0 6.491 1.751c1.15.232 2.305.457 3.465.64a10.1 10.1 0 0 0 4.645-.144 8.431 8.431 0 0 0 2.506-1.197 5.544 5.544 0 0 0 1.939-7.393 8.744 8.744 0 0 0-1.858-2.469 13.136 13.136 0 0 0-1.776-1.386 15.745 15.745 0 0 0-2.439-.999q-1.98-.751-3.933-1.575l1.763.745c-2.577-1.091-5.198-2.068-7.777-3.155l1.837.775c-2.165-.92-4.32-1.86-6.488-2.774l1.865.787a123.492 123.492 0 0 1-27.046-15.841l1.554 1.2a132.228 132.228 0 0 1-23.622-23.505l1.141 1.477a158.2 158.2 0 0 1-8.47-12.075c-2.62-4.147-4.879-8.486-7.148-12.826a95.203 95.203 0 0 1-1.84-3.745 10.392 10.392 0 0 0-1.584-2.668c-.222-.253-.47-.488-.696-.738-.282-.31-.826-1.18-.075-.012a4.832 4.832 0 0 0-5.34-2.173c-1.879.608-3.633 2.445-3.47 4.56Z"></path><path fill="#230000" d="M449.132 356.775a1.029 1.029 0 0 1-.264-.035 1 1 0 0 1-.701-1.228c.146-.532 3.643-13.116 11.466-22.812 7.429-9.209 6.537-21.763 6.527-21.89a1 1 0 0 1 1.993-.159c.044.545.977 13.462-6.964 23.305-7.553 9.363-11.058 21.957-11.093 22.083a1 1 0 0 1-.964.736Z"></path><path fill="#fd8b66" d="M467.475 369.795s-10.403-8.966-15.324-7.655.259 8.756 0 12.415 1.036 6.768 13.08 6.509Z"></path><path fill="#376f92" d="M535.58 315.376s-17.51.027-21.783 8.575-17.095 42.349-18.65 42.349-27.369 1.554-27.369 1.554l-2.547 16.318s33.414 9.69 38.076 7.565 12.358-14.17 12.358-14.17-11.193 24.866-8.473 26.809 20.642 17.483 28.388 18.649 34.554 5.05 34.554 5.05v5.829l18.649 3.43s12.433-38.42 12.433-45.597 3.108-49.436-7.965-59.194a163.508 163.508 0 0 0-22.729-16.557Z"></path><path fill="#56cbb8" d="M434.364 424.641c35.486 16.318 11.915 37.04 11.915 37.04H298.9l-7.458-7.315 5.385-13.666 28.977-26.74 61.474 6.216 26.366-3.368Z"></path><path fill="#fd8b66" d="M408.98 268.194s-2.59-2.59-1.812-8.547c.777-5.958-12.433-7.512-11.656-14.505 0 0-9.325 8.677-15.282 7.123 0 0 6.993-7.641 6.216-11.786 0 0-6.864 12.433-16.447 10.62s-6.735 6.605-11.138 13.34c-4.404 6.734-7.641 6.604-7.641 2.59s-3.109-5.699-6.994-5.18-9.324 8.935-4.792 15.023c4.533 6.086 8.807 4.532 8.807 4.532s2.46 16.577-.648 16.836c0 0-1.813 5.958 0 8.807 1.813 2.85 26.938 31.341 34.58 11.138 0 0-1.037-7.512 0-8.936 0 0 11.267-1.295 16.965-7.641.766-.854 1.539-1.7 2.304-2.527 2.353-3.572 5.89-11.924 7.539-30.887ZM578.875 277.716s-3.885-3.303-6.993 2.137-5.44-4.274-6.8-7.77-4.079-5.052-7.77-9.714c-3.69-4.662-6.8-12.821-6.8-12.821s-8.741 19.426-29.916 20.397c0 0 .339 13.205.858 16.38l.114.521c.027.083.02.106-.002.098-.021 1.572-.067 23.27 13.6 24.768a23.455 23.455 0 0 1 0 8.936c-.971 4.662 20.204 16.318 35.356-4.662 0 0-1.36-20.398 1.166-20.398a23.543 23.543 0 0 0 6.41-1.479s9.52-6.68.777-16.393Z"></path><rect width="30.295" height="53.701" x="430.896" y="339.449" fill="#ffb957" rx="3" transform="rotate(18.492 446.044 366.3)"></rect><path fill="#ca5303" d="M448.632 379.303a16.948 16.948 0 0 1-10.697-21.448l6.792-20.308-1.462-.489a3.238 3.238 0 0 0-4.097 2.044l-14.98 44.787a3.238 3.238 0 0 0 2.045 4.098l22.59 7.555a3.237 3.237 0 0 0 4.096-2.044l3.839-11.477Z" opacity=".65"></path><path fill="#5e1212" d="M395.512 245.142s-9.325 8.677-15.282 7.123c0 0 6.993-7.641 6.216-11.786 0 0-6.864 12.433-16.447 10.62s-6.735 6.605-11.138 13.34-7.641 6.605-7.641 2.59-3.108-5.699-6.994-5.18-9.324 8.936-4.792 15.022 8.807 4.533 8.807 4.533 2.46 16.577-.648 16.836-5.18-5.698-12.95-5.698-14.764-.518-14.764-10.62 1.295-10.36-2.59-16.059-10.361-13.469-2.85-18.131 11.915-9.843 13.47-14.246 8.806-5.958 15.281-3.108 14.246-4.922 19.945-6.735a27.39 27.39 0 0 1 21.24 2.331c7.252 4.145 9.324-1.813 18.13 6.217s7.512 15.54 11.138 23.311 10.62 8.03 9.584 14.246-4.663 10.102-1.036 14.505 4.144 9.843-.518 9.843-6.217.794-8.548 4.153-13.987 3.359-13.987 3.359 7.253-3.627 9.843-33.414c0 0-2.59-2.59-1.813-8.547s-12.433-7.512-11.656-14.505Z"></path><path fill="#230000" d="M376.927 258.713a.749.749 0 0 1-.393-.111c-4.638-2.855-10.882.01-10.944.04a.75.75 0 0 1-.638-1.358c.285-.135 7.033-3.244 12.368.04a.75.75 0 0 1-.393 1.389Z"></path><path fill="#d04719" d="M385.086 264.957a28.946 28.946 0 0 1 2.263 5.078 33.732 33.732 0 0 1 1.416 5.386 17.84 17.84 0 0 1 .27 2.854 8.12 8.12 0 0 1-.136 1.542 3.151 3.151 0 0 1-.289.876l-.134.233a3.386 3.386 0 0 1-.211.244 1.702 1.702 0 0 1-.389.3 3.978 3.978 0 0 1-3.124.456 6.658 6.658 0 0 1-2.58-1.234 10.619 10.619 0 0 0 2.674.257 3.769 3.769 0 0 0 1.19-.206 2.213 2.213 0 0 0 .906-.523c.25-.15.288-1.043.201-1.874-.072-.842-.2-1.718-.35-2.594-.583-3.524-1.386-7.075-1.707-10.795Z" opacity=".8"></path><path fill="#230000" d="M403.152 262.797a.74.74 0 0 1-.312-.068c-3.812-1.751-8.92-1.497-8.97-1.492a.75.75 0 0 1-.083-1.498 23.444 23.444 0 0 1 9.679 1.626.75.75 0 0 1-.314 1.432Z"></path><path fill="#ca5303" d="M373.236 283.994s.195 5.634 5.634 5.246"></path><path fill="#d04719" d="M344.874 267.482a2.455 2.455 0 0 0-1.728 1.949 7.554 7.554 0 0 0 .219 2.667 11.476 11.476 0 0 0 .858 2.683 3.987 3.987 0 0 0 2.01 2.026 3.185 3.185 0 0 1-3.283-1.104 6.748 6.748 0 0 1-1.54-3.183 5.64 5.64 0 0 1 .265-3.631 2.82 2.82 0 0 1 1.42-1.38 2.379 2.379 0 0 1 1.779-.027ZM573.63 290.614a2.454 2.454 0 0 0 2.366-1.09 7.554 7.554 0 0 0 .871-2.53 11.472 11.472 0 0 0 .292-2.802 3.988 3.988 0 0 0-1.027-2.663 3.186 3.186 0 0 1 2.564 2.33 6.75 6.75 0 0 1 .13 3.534 5.64 5.64 0 0 1-1.702 3.219 2.82 2.82 0 0 1-1.854.692 2.377 2.377 0 0 1-1.64-.69Z" opacity=".8"></path><path fill="#230000" d="M372.46 271.675c2.895 0 2.9-4.5 0-4.5-2.896 0-2.901 4.5 0 4.5ZM397.908 277.114c2.895 0 2.9-4.5 0-4.5-2.896 0-2.9 4.5 0 4.5Z"></path><path fill="#e6560f" d="M397.325 401.33c-4.274-9.714-6.216-25.255-6.605-35.356-.389-10.102-2.619-26.032-2.619-26.032s6.31 3.108 8.447.777 1.942-2.33 4.856-2.137 6.217-2.525 4.469-3.885-10.685-16.124-23.7-16.512c-7.642 20.203-32.766-8.289-34.58-11.138a7.636 7.636 0 0 1-.773-4.419s-22.28 6.232-26.164 13.226c-3.886 6.993-5.699 22.275-7.512 33.93-1.813 11.657-12.95 40.408-15.023 50.25-2.072 9.843-1.295 40.666-1.295 40.666s43.256-14.505 57.76-13.469 18.391 7.512 25.644 6.217 17.354-9.066 27.196-10.36c9.843-1.296 26.938 1.553 26.938 1.553s-32.765-13.598-37.039-23.311Z"></path><path fill="#fd8b66" d="M296.826 440.7s-9.066 1.295-12.433 4.404-18.131-2.59-25.125 2.072-12.174 10.879-10.878 13.21 50.508 1.295 50.508 1.295Z"></path><path fill="#13a497" d="M389.68 429.82a19.628 19.628 0 0 1 7.35 5.877 18.059 18.059 0 0 1 3.811 8.949 16.309 16.309 0 0 1-.133 4.956 16.935 16.935 0 0 1-1.488 4.649 21.376 21.376 0 0 1-5.78 7.43 49.088 49.088 0 0 0 3.595-8.273c.236-.69.35-1.405.541-2.095.101-.708.277-1.4.315-2.108a17.222 17.222 0 0 0-.027-4.195 21.637 21.637 0 0 0-2.766-8.007 39.553 39.553 0 0 0-5.419-7.184Z"></path><path fill="#13a497" d="M413.643 437.333a15.05 15.05 0 0 1-3.573 1.99 23.69 23.69 0 0 1-3.756 1.158 23.285 23.285 0 0 1-3.894.53 14.87 14.87 0 0 1-4.08-.31 14.878 14.878 0 0 1 3.573-1.994 23.286 23.286 0 0 1 3.757-1.155 23.719 23.719 0 0 1 3.895-.525 15.067 15.067 0 0 1 4.078.306Z"></path><path fill="#af2500" d="M370.128 362.14a17.19 17.19 0 0 1 3.194-2.393 30.573 30.573 0 0 1 3.367-1.73 40.922 40.922 0 0 1 3.479-1.345c1.197-.406 2.36-.722 3.688-1.189a7.356 7.356 0 0 1-2.543 3.25 15.662 15.662 0 0 1-3.414 2.029 18.284 18.284 0 0 1-3.738 1.18 12.615 12.615 0 0 1-4.033.198ZM313.889 383.975a25.922 25.922 0 0 1 7.005.983 34.815 34.815 0 0 1 6.606 2.537 29.373 29.373 0 0 1 5.915 3.992 17.557 17.557 0 0 1 4.302 5.698c-1.945-1.399-3.787-2.644-5.705-3.802-1.93-1.134-3.893-2.182-5.878-3.218-1.996-1.018-4.021-2-6.064-3.005-2.043-1.014-4.102-2.019-6.181-3.185ZM304.337 397.185a27.909 27.909 0 0 1 7.526-2.857 32.752 32.752 0 0 1 8.064-.869 23.815 23.815 0 0 1 8.088 1.487 17.234 17.234 0 0 1 3.662 1.948 12.714 12.714 0 0 1 2.898 2.881 25.97 25.97 0 0 0-7.23-2.567 42.207 42.207 0 0 0-7.481-.75c-2.527-.061-5.08.044-7.658.195Z"></path><path fill="#d04719" d="M382.172 309.249s-6.747-.389-16.648-5.57c0 0 3.997 8.509 16.28 10.86 0 0-.344-3.542.368-5.29Z" opacity=".8"></path><path fill="#af2500" d="M382.172 318.185a5.947 5.947 0 0 1 2.445 1.836 13.253 13.253 0 0 1 1.693 2.542 22.79 22.79 0 0 1 1.95 5.652 29.513 29.513 0 0 1 .569 5.861 23.524 23.524 0 0 1-.728 5.866 41.364 41.364 0 0 1-1.617-5.608 178.75 178.75 0 0 1-1.162-5.514c-.393-1.814-.752-3.622-1.202-5.404-.232-.886-.463-1.783-.766-2.653a10.202 10.202 0 0 0-1.182-2.578Z"></path><path fill="#5e1212" d="M550.513 249.548s-8.742 19.426-29.917 20.397c0 0 .389 15.153.972 16.901s-10.685-17.095-3.497-32.248 20.203-21.369 33.607-16.512 20.398 2.914 26.42 11.462 7.382 17.678 9.13 21.563 6.023 7.188 6.023 7.188l-5.051-.195s2.72 16.664-10.102 16.005c0 0 9.52-6.68.777-16.393 0 0-3.885-3.303-6.993 2.137s-5.44-4.274-6.8-7.77-4.079-5.052-7.77-9.714-6.8-12.821-6.8-12.821Z"></path><path fill="#230000" d="M557.895 272.217a.748.748 0 0 1-.491-.184 7.297 7.297 0 0 0-10.063-.024.75.75 0 0 1-1.04-1.082c.058-.056 5.812-5.464 12.085-.027a.75.75 0 0 1-.491 1.317ZM533.061 273.057a.748.748 0 0 1-.49-.184 7.297 7.297 0 0 0-10.063-.024.75.75 0 0 1-1.04-1.082c.058-.056 5.812-5.465 12.085-.027a.75.75 0 0 1-.492 1.317Z"></path><path fill="#d04719" d="M540.994 273.442a41.364 41.364 0 0 1-1.167 4.877c-.461 1.586-.96 3.151-1.455 4.694-.247.77-.49 1.542-.691 2.291a8.237 8.237 0 0 0-.24 1.076 2.939 2.939 0 0 0-.027.372s-.006.042-.015.02a.112.112 0 0 0-.062-.063.497.497 0 0 1 .071.1 3.174 3.174 0 0 0 1.89.49 23 23 0 0 0 2.473-.064 8.513 8.513 0 0 1-2.361 1.04 3.789 3.789 0 0 1-2.924-.207 4.499 4.499 0 0 1-.388-.317 2.19 2.19 0 0 1-.215-.333 1.694 1.694 0 0 1-.1-.277 3.066 3.066 0 0 1-.091-.863 9.736 9.736 0 0 1 .138-1.376 19.528 19.528 0 0 1 .637-2.496 33.48 33.48 0 0 1 1.912-4.653 26.198 26.198 0 0 1 2.615-4.311ZM542.548 295.588a21.201 21.201 0 0 0 3.909-2.742 13.903 13.903 0 0 0 1.52-1.65c.516-.6.946-1.288 1.565-2.019a5.06 5.06 0 0 1-.176 2.757 5.846 5.846 0 0 1-4.047 3.748 4.584 4.584 0 0 1-2.77-.094Z" opacity=".8"></path><path fill="#230000" d="M527.525 281.779c2.896 0 2.9-4.5 0-4.5-2.895 0-2.9 4.5 0 4.5ZM551.096 282.038c2.895 0 2.9-4.5 0-4.5-2.896 0-2.9 4.5 0 4.5Z"></path><path fill="#133852" d="M515.665 338.583c.414 3.248.63 6.497.778 9.746.16 3.248.202 6.497.222 9.746-.018 3.249-.06 6.497-.22 9.746-.146 3.249-.363 6.498-.78 9.746-.416-3.248-.633-6.497-.78-9.746-.159-3.249-.202-6.497-.219-9.746.02-3.249.062-6.498.222-9.746.147-3.249.364-6.498.777-9.746ZM570.134 428.076q.668-8.817 1.659-17.584c.633-5.848 1.369-11.682 2.09-17.515l1.125-8.742c.395-2.91.742-5.827 1.095-8.73.35-2.925.653-5.75-.282-8.488a17.42 17.42 0 0 0-4.522-7.322 16.604 16.604 0 0 1 5.446 6.994 14.153 14.153 0 0 1 1.013 4.457 37.924 37.924 0 0 1-.1 4.493c-.379 5.903-1.08 11.744-1.793 17.59-.761 5.837-1.582 11.664-2.532 17.473q-1.386 8.718-3.2 17.374ZM497.22 377.567a14.49 14.49 0 0 1-1.534-2.542 18.372 18.372 0 0 1-1.06-2.797 16.193 16.193 0 0 1-.563-2.986 13.1 13.1 0 0 1 .1-3.11l.43-2.964 1.438 2.666 1.403 2.6 1.39 2.623 2.8 5.297a18.3 18.3 0 0 1-2.221-2.096 32.307 32.307 0 0 1-1.912-2.362c-.616-.805-1.148-1.662-1.706-2.504a43.85 43.85 0 0 1-1.52-2.626l1.867-.298a19.213 19.213 0 0 0 .003 5.446c.246 1.86.633 3.733 1.085 5.653ZM573.63 338.583a8.524 8.524 0 0 1 1.025-4.317 9.599 9.599 0 0 1 7.256-5.118 10.193 10.193 0 0 1 2.243-.076 12.737 12.737 0 0 1 2.168.448c-.718.238-1.414.342-2.088.53l-.993.295a5.844 5.844 0 0 0-.96.32 14.178 14.178 0 0 0-6.323 4.448 25.311 25.311 0 0 0-2.328 3.47Z"></path><path fill="#fd8b66" d="M573.63 434.547s-6.216 3.501-7.252 7.127-4.145 6.735-3.627 8.548 4.404 0 4.404 0-4.144 9.843-2.331 9.843 11.137-2.332 15.023-4.922 8.42-3.448 4.857-18.56Z"></path><path fill="#d04719" d="M571.817 449.445a10.496 10.496 0 0 1-.174 2.776 16.498 16.498 0 0 1-.707 2.583 16.221 16.221 0 0 1-1.111 2.436 10.37 10.37 0 0 1-1.65 2.24 10.36 10.36 0 0 1 .172-2.776 16.201 16.201 0 0 1 .71-2.582 16.493 16.493 0 0 1 1.113-2.435 10.493 10.493 0 0 1 1.647-2.242ZM575.961 451.776a4.327 4.327 0 0 1 .352 1.68 5.529 5.529 0 0 1-.196 1.53 5.427 5.427 0 0 1-.61 1.417 4.278 4.278 0 0 1-1.163 1.265 4.277 4.277 0 0 1-.354-1.681 5.435 5.435 0 0 1 .199-1.53 5.53 5.53 0 0 1 .613-1.416 4.329 4.329 0 0 1 1.16-1.265Z"></path><path fill="#e6560f" d="M571.817 458.495a36.338 36.338 0 0 1-6.993 1.57c-1.814 0 2.33-9.843 2.33-9.843s-3.884 1.813-4.403 0c-.518-1.813 2.59-4.922 3.627-8.548 1.036-3.626 7.252-7.127 7.252-7.127l-3.496-.643v-5.828s-26.809-3.886-34.554-5.051c-6.98-1.05-22.22-13.77-27.155-17.697 0 0-22.084 25.986-23.897 33.497s-2.072 20.069 3.367 22.856 27.77 0 27.77 0l12.12-9.905s.776 11.408 2.848 11.143c2.072-.264 42.997.005 42.997.005l-1.813-4.429Z"></path><path fill="#af2500" d="M526.23 421.989a9.636 9.636 0 0 1 3.174 2.973 14.02 14.02 0 0 1 1.905 3.859 13.8 13.8 0 0 1 .676 4.252 10.4 10.4 0 0 1-.834 4.26 38.098 38.098 0 0 1-1.496-3.893l-1.203-3.707-1.155-3.727c-.375-1.276-.742-2.563-1.067-4.017Z"></path><path fill="#af2500" d="M544.62 425.874a12.387 12.387 0 0 0-3.235 1.892 20.097 20.097 0 0 0-2.658 2.465 34.297 34.297 0 0 0-4.271 5.84 15.123 15.123 0 0 0-.92 1.585l-.906 1.607-1.685 3.326c-.506 1.142-1.12 2.253-1.657 3.405-.547 1.15-1.086 2.31-1.763 3.45.03-1.308.198-2.595.359-3.894.223-1.28.533-2.547.861-3.812.365-1.254.847-2.477 1.318-3.704a33.005 33.005 0 0 1 1.83-3.52 21.11 21.11 0 0 1 5.265-6.034 14.664 14.664 0 0 1 3.524-2 8.22 8.22 0 0 1 3.938-.606ZM491.78 440.638a4.498 4.498 0 0 1 3.009-1.604 6.013 6.013 0 0 1 3.492.628 6.544 6.544 0 0 1 2.514 2.395 7.214 7.214 0 0 1 .66 1.548 6.699 6.699 0 0 1 .168 1.696 10.52 10.52 0 0 1-1.384-.866c-.448-.254-.806-.559-1.196-.799a29.442 29.442 0 0 0-2.147-1.314 15.75 15.75 0 0 0-2.242-.941 24.236 24.236 0 0 0-2.873-.743ZM546.426 447.59a4.498 4.498 0 0 1 .792-3.315 6.012 6.012 0 0 1 2.783-2.2 6.542 6.542 0 0 1 3.46-.296 7.2 7.2 0 0 1 1.597.531 6.685 6.685 0 0 1 1.381.998 10.544 10.544 0 0 1-1.565.463c-.487.168-.953.233-1.39.367a29.47 29.47 0 0 0-2.408.737 15.701 15.701 0 0 0-2.19 1.056 24.215 24.215 0 0 0-2.46 1.66Z"></path><path fill="#230000" d="M633.863 462.91H203.375a1 1 0 0 1 0-2h430.488a1 1 0 0 1 0 2Z"></path><path fill="#376f92" d="M505.904 156.887h-5.396c0-4.375-4.133-5.976-4.175-5.991l1.895-5.053c.314.118 7.676 2.972 7.676 11.044Z"></path><path fill="#ffb957" d="M178.822 234.924h-5.397c0-4.375-4.132-5.975-4.174-5.99l1.895-5.053c.313.117 7.676 2.97 7.676 11.043ZM650.371 207.478h-5.396c0-4.294-4.024-5.932-4.196-6l1.916-5.044c.313.117 7.676 2.97 7.676 11.044ZM450.156 136.995h-5.396c0-4.294-4.024-5.932-4.196-6l1.916-5.044c.313.117 7.676 2.97 7.676 11.044Z"></path><path fill="#e6560f" d="m249.436 191.866-5.203-1.43c.087-.317 2.189-7.78 8.256-8.823l.915 5.318c-2.212.38-3.641 3.776-3.968 4.935ZM278.906 121.745a12.746 12.746 0 0 1-7.456-9.13l5.318-.913a7.28 7.28 0 0 0 4.213 5.062ZM192.121 314.076c-2.417-3.337-5.422-2.31-6-2.069l-2.176-4.938a10.336 10.336 0 0 1 12.547 3.842Z"></path><path fill="#376f92" d="m234.886 344.506-4.997-2.035c.54-1.33 3.482-7.918 8.366-7.006l-.994 5.303a.49.49 0 0 0 .22-.005c-.622.215-1.907 2.07-2.595 3.743Z"></path><path fill="#e6560f" d="m281.873 319.959-5.154-1.599c.486-1.565 3.192-9.413 8.831-10.283l.824 5.333c-1.67.257-3.721 4.036-4.5 6.549Z"></path><path fill="#ffb957" d="M584.58 104.921c-1.42-3.903-6.805-3.109-7.034-3.073l-.873-5.324c3.458-.578 10.615.054 12.978 6.553Z"></path><path fill="#e6560f" d="m522.025 105.14-4.834-2.4c.886-1.785 4.12-7.61 8.594-7.61v5.396c-.785.122-2.659 2.408-3.76 4.614Z"></path><path fill="#376f92" d="M709.419 182.245a10.747 10.747 0 0 1-9.939-7.174l5.099-1.767-2.55.884 2.542-.907a5.337 5.337 0 0 0 5.598 3.522l.624 5.36a11.946 11.946 0 0 1-1.374.082Z"></path><path fill="#ffb957" d="M586.174 233.877c-.92-4.097-7.69-3.282-7.756-3.274l-.71-5.349c4.052-.546 12.13.31 13.731 7.442Z"></path><path fill="#e6560f" d="m429.34 210.11-5.147-1.617c.262-.84 2.737-8.22 8.823-8.965l.656 5.356c-2.092.256-3.822 3.632-4.331 5.226Z"></path><path fill="#ffb957" d="M303.918 139.179c-7.548-6.829-24.676-7.814-24.848-7.824l.057-1.077c.719.038 17.686 1.017 25.515 8.1ZM317.916 154.253c-21.037-11.062-52.058-2.272-52.37-2.18l-.3-1.037c.315-.091 31.75-9.003 53.172 2.262Z"></path><path fill="#376f92" d="M324.31 155.123c-16.865-13.601-44.913-13.207-45.201-13.212l-.021-1.08c.286.002 28.724-.398 45.898 13.45Z"></path><path fill="#e6560f" d="M314.779 158.518c-3.912-1.957-18.307-1.798-18.454-1.795l-.013-1.08c.603-.007 14.806-.16 18.95 1.91Z"></path><path fill="#ffb957" d="m268.692 166.887-.295-1.04c.34-.097 34.293-9.59 56.414-2.587l-.327 1.029c-21.804-6.909-55.456 2.502-55.792 2.598Z"></path><path fill="#376f92" d="m272.555 175.7-.615-.888a58.602 58.602 0 0 1 30.216-8.995c.34 0 .68.003 1.025.01l-.023 1.08c-17.233-.354-30.47 8.7-30.603 8.792Z"></path><path fill="#ffb957" d="m278.518 184.002-.692-.828c.19-.158 19.06-15.682 39.975-15.682l.37.002-.01 1.08c-.118-.002-.24-.003-.36-.003-20.519 0-39.097 15.276-39.283 15.431Z"></path><path fill="#e6560f" d="m278.553 190.635-.763-.764c.408-.407 10.074-9.935 15.032-9.785l-.042 1.079a2.375 2.375 0 0 0-.124-.003c-4.574 0-14.007 9.377-14.103 9.473Z"></path><path fill="#376f92" d="m287.37 195.651-.99-.428c.065-.151 6.814-15.312 28.42-24.91l.44.986c-21.198 9.416-27.805 24.205-27.87 24.352Z"></path><path fill="#e6560f" d="M325.649 151.985c-4.297-8.414-14.796-12.663-14.902-12.705l.399-1.003c.445.177 10.979 4.435 15.464 13.217Z"></path><path fill="#376f92" d="M316.491 137.989c-5.354-7.206-15.666-12.005-15.769-12.052l.451-.98c.432.199 10.663 4.958 16.185 12.389Z"></path><path fill="#ffb957" d="M327.096 145.421c-6.718-21.244-18.392-31.314-18.51-31.413l.698-.824c.12.101 12.022 10.349 18.84 31.913Z"></path><path fill="#e6560f" d="m320.427 109.096 1.035-.306 6.665 22.614-1.035.305z"></path><path fill="#ffb957" d="M330.589 120.25h1.079v25.009h-1.079z"></path><path fill="#376f92" d="m335.552 131.635-1.069-.156c.108-.733 2.689-18.019 9.024-24.914l.795.73c-6.11 6.65-8.725 24.164-8.75 24.34Z"></path><path fill="#ffb957" d="m335.543 143.712-1.051-.238c.05-.224 5.225-22.424 20.601-32.306l.584.908c-15.01 9.646-20.084 31.417-20.134 31.636Z"></path><path fill="#e6560f" d="m355.024 117.449 10.004-8.881.717.807-10.004 8.882z"></path><path fill="#376f92" d="m343.635 139.043-.94-.53c.305-.542 7.558-13.322 14.46-17.239l.533.938c-6.64 3.77-13.98 16.701-14.053 16.83Z"></path><path fill="#ffb957" d="m347.458 140.06-.811-.713c.119-.136 12.08-13.674 25.54-20.127l.466.974c-13.258 6.355-25.077 19.73-25.195 19.866Z"></path><path fill="#e6560f" d="m336.715 155.062-.805-.72c.138-.154 14.102-15.574 40.232-24.039l.333 1.027c-25.836 8.368-39.624 23.579-39.76 23.732ZM322.848 178.763l4.26-10.926 1.006.392-4.26 10.926z"></path><path fill="#ffb957" d="m284.399 213.727-.972-.47c.141-.294 14.337-29.424 30.777-38.475l.52.947c-16.137 8.883-30.185 37.707-30.325 37.998Z"></path><path fill="#376f92" d="m301.468 195.078 13.15-14.813.807.717-13.15 14.813z"></path><path fill="#e6560f" d="m298.72 214.443 9.244-17.227.95.51-9.243 17.228z"></path><path fill="#ffb957" d="m310.489 195.158 7.214-11.853.921.56-7.215 11.854z"></path><path fill="#e6560f" d="m315.552 210.524-1.064-.175c.13-.785 3.211-19.26 6.95-24.305l.866.642c-3.584 4.838-6.72 23.649-6.752 23.838Z"></path><path fill="#ffb957" d="M322.86 221.212c-5.023-11.162 1.01-32.431 1.27-33.331l1.036.299c-.062.216-6.182 21.788-1.321 32.589Z"></path><path fill="#376f92" d="M333.616 221.246c-9.06-16.826-3.078-47.548-3.017-47.856l1.059.21c-.06.305-5.967 30.652 2.908 47.134Z"></path><path fill="#ffb957" d="M400.412 188.45c-24.393-19.66-62.261-21.527-62.64-21.543l.046-1.08c.384.018 38.606 1.903 63.27 21.783Z"></path><path fill="#376f92" d="m338.095 159.594-.6-.896c.185-.126 18.975-12.492 45.506-11.202l-.053 1.078c-26.136-1.283-44.668 10.896-44.853 11.02Z"></path><path fill="#e6560f" d="M392.47 163.47c-11.38-8.308-31.856-7.684-32.067-7.673l-.038-1.079c.85-.03 21.061-.65 32.74 7.882Z"></path><path fill="#ffb957" d="M364.5 163.555c-14.506-3.99-29.218-.769-29.364-.734l-.236-1.054c.148-.033 15.114-3.313 29.886.747ZM374.64 197.634c-17.3-16.435-34.062-21.812-34.23-21.863l.323-1.031c.17.054 17.171 5.506 34.65 22.112Z"></path><path fill="#e6560f" d="m335.924 174.52.777-.75 9.815 10.184-.777.749z"></path><path fill="#ffb957" d="M339.014 197.777c-4.655-6.89-5.43-16.163-5.46-16.554l1.075-.085c.007.093.787 9.386 5.279 16.034Z"></path><path fill="#376f92" d="m337.34 184.62.907-.585 8.333 12.915-.907.585z"></path><path fill="#ffb957" d="m346.657 192.657.79-.733 16.85 18.145-.79.734z"></path><path fill="#376f92" d="M358.711 177.585c-3.895-3.807-15.488-5.113-15.605-5.126l.118-1.073c.49.054 12.083 1.362 16.242 5.427Z"></path><path fill="#e6560f" d="M378.25 184.718c-5.872-5.601-16.665-10.03-16.773-10.074l.407-1c.45.183 11.09 4.549 17.11 10.294Z"></path><path fill="#ffb957" d="m356.595 146.828-.57-.917c.545-.337 13.412-8.238 21.676-6.739l-.194 1.063c-7.847-1.431-20.781 6.512-20.912 6.593Z"></path><path fill="#376f92" d="M383.493 172.415c-9.258-4.176-20.83-5.509-20.946-5.522l.12-1.073c.117.014 11.858 1.366 21.27 5.61Z"></path><path fill="#ffb957" d="M667.137 247.356c.805-8.04-6.638-19.445-6.713-19.559l.714-.471c.315.477 7.687 11.776 6.852 20.115ZM664.106 263.402c-2.849-18.65-23.084-34.323-23.29-34.479l.521-.68c.207.158 20.715 16.037 23.616 35.03Z"></path><path fill="#376f92" d="M666.564 267.896c.74-17.183-12.732-34.913-12.864-35.1l.68-.521c.133.184 13.792 18.16 13.04 35.657Z"></path><path fill="#e6560f" d="M659.904 263.408c-.594-3.42-7.48-12.541-7.551-12.633l.683-.517c.289.382 7.081 9.381 7.712 13.003Z"></path><path fill="#ffb957" d="m632.836 237.914.525-.678c.223.171 22.288 17.385 28.241 34.816l-.81.276c-5.864-17.184-27.736-34.244-27.956-34.414Z"></path><path fill="#376f92" d="m629.029 244.536.276-.812a46.519 46.519 0 0 1 19.986 15.061c.16.218.32.437.477.66l-.7.494a45.422 45.422 0 0 0-20.04-15.403Z"></path><path fill="#ffb957" d="m626.535 252.257.203-.832c.19.047 19 4.784 28.858 18.144l.173.237-.694.502a34.002 34.002 0 0 0-.17-.231c-9.67-13.107-28.183-17.774-28.37-17.82Z"></path><path fill="#e6560f" d="m622.315 255.406.128-.847c.453.068 11.094 1.752 13.335 4.99l-.709.481a1.88 1.88 0 0 0-.056-.08c-2.156-2.922-12.591-4.528-12.698-4.544Z"></path><path fill="#376f92" d="m623.267 263.403-.194-.835c.128-.03 12.992-2.865 29.307 6.413l-.423.745c-16.005-9.102-28.566-6.352-28.69-6.323Z"></path><path fill="#e6560f" d="M669.2 267.273c3.35-6.71 1.114-15.42 1.092-15.507l.828-.218c.097.368 2.342 9.103-1.154 16.107Z"></path><path fill="#376f92" d="M673.824 254.827c2.079-6.817.284-15.665.266-15.753l.838-.174c.077.37 1.859 9.148-.285 16.177Z"></path><path fill="#ffb957" d="M674.074 265.103c10.404-14.303 11.333-26.506 11.342-26.628l.855.057c-.009.124-.945 12.557-11.505 27.075Z"></path><path fill="#e6560f" d="m682.831 258.639 11.303-14.916.683.518-11.303 14.915z"></path><path fill="#ffb957" d="m675.824 267.258 15.975-11.787.509.69-15.975 11.787z"></path><path fill="#376f92" d="m686.866 264.007-.404-.756c.518-.277 12.776-6.775 20.166-5.978l-.091.851c-7.128-.768-19.547 5.816-19.671 5.883Z"></path><path fill="#ffb957" d="m679.148 269.694-.344-.785c.166-.073 16.786-7.23 30.345-2.066l-.305.8c-13.235-5.04-29.533 1.979-29.697 2.05Z"></path><path fill="#e6560f" d="m704.927 270.597.178-.838 10.388 2.204-.178.839z"></path><path fill="#376f92" d="m685.943 272.661-.105-.85c.49-.06 12.073-1.45 17.827 1.112l-.348.782c-5.537-2.465-17.256-1.058-17.374-1.044Z"></path><path fill="#ffb957" d="m687.096 275.583.072-.854c.143.012 14.428 1.27 24.894 6.828l-.402.756c-10.308-5.473-24.422-6.718-24.564-6.73Z"></path><path fill="#e6560f" d="m672.45 275.791.08-.853c.164.016 16.595 1.667 34.316 14.368l-.498.697c-17.522-12.559-33.736-14.197-33.898-14.212ZM650.776 278.105l8.986-2.428.224.827-8.987 2.428z"></path><path fill="#ffb957" d="m610.32 270.023-.158-.842c.254-.048 25.552-4.71 39.082 1.526l-.36.778c-13.28-6.12-38.312-1.51-38.564-1.462Z"></path><path fill="#376f92" d="m630.2 272.99.077-.853 15.66 1.418-.078.853z"></path><path fill="#e6560f" d="m616.612 279.509 15.361-2.215.123.847-15.362 2.215z"></path><path fill="#ffb957" d="m634.477 277.938 10.971-.978.076.852-10.971.978z"></path><path fill="#e6560f" d="m627.05 288.413-.39-.762c.561-.287 13.814-7.026 18.8-7.016l-.003.856c-4.779-.009-18.272 6.853-18.408 6.922Z"></path><path fill="#ffb957" d="M623.666 298.119c4.762-8.47 21.192-14.64 21.889-14.9l.297.804c-.167.062-16.83 6.32-21.439 14.516Z"></path><path fill="#376f92" d="M628.713 305.005c6.478-13.717 28.922-24.376 29.147-24.482l.364.775c-.222.106-22.39 10.635-28.735 24.073Z"></path><path fill="#ffb957" d="M681.143 332.214c1.062-24.847-15.593-49.915-15.761-50.165l.71-.48c.17.254 16.981 25.557 15.908 50.681Z"></path><path fill="#376f92" d="m670.205 278.809.29-.806a64.97 64.97 0 0 1 28.602 23.788l-.713.474a64.067 64.067 0 0 0-28.179-23.456Z"></path><path fill="#e6560f" d="M693.357 315.367c-.056-11.183-10.106-23.97-10.213-24.098l.672-.533c.42.529 10.34 13.147 10.397 24.628Z"></path><path fill="#ffb957" d="M680.12 297.542c-4.288-11.147-13.28-19.026-13.37-19.103l.561-.647c.091.08 9.24 8.093 13.609 19.442ZM663.131 320.08c2.345-18.796-2.121-32.036-2.167-32.168l.81-.28c.046.134 4.576 13.563 2.207 32.555Z"></path><path fill="#e6560f" d="m657.77 295.525 1.879-11.068.845.143-1.88 11.069z"></path><path fill="#ffb957" d="M646.249 297.392c2.207-6.22 7.765-11.086 8-11.29l.56.647c-.055.048-5.623 4.926-7.753 10.929Z"></path><path fill="#376f92" d="m649.542 301.532 4.323-11.41.801.304-4.322 11.41z"></path><path fill="#ffb957" d="m649.473 319.18 3.65-19.315.841.16-3.65 19.315z"></path><path fill="#376f92" d="M668.43 300.457c.596-4.283-4.034-12.304-4.081-12.384l.741-.43c.197.339 4.825 8.36 4.189 12.932Z"></path><path fill="#e6560f" d="M673.083 316.3c.81-6.392-1.448-15.372-1.47-15.463l.83-.21c.095.373 2.32 9.226 1.489 15.78Z"></path><path fill="#ffb957" d="m687.079 284.61.317-.797c.472.189 11.584 4.684 14.52 10.67l-.77.376c-2.784-5.687-13.954-10.205-14.067-10.25Z"></path><path fill="#376f92" d="M683.412 313.85c-1.696-7.882-6.298-15.902-6.345-15.982l.742-.43c.046.082 4.716 8.219 6.441 16.23Z"></path><path fill="#ffb957" d="M466.637 295.64c-.328-3.909-4.891-8.695-4.937-8.743l.3-.288c.192.2 4.712 4.942 5.051 8.997ZM466.61 303.57c-3.011-8.652-14.06-14.344-14.17-14.4l.187-.371c.113.058 11.31 5.823 14.375 14.634Z"></path><path fill="#376f92" d="M468.18 305.498c-1.167-8.27-9.168-15.542-9.247-15.619l.278-.31c.08.077 8.192 7.45 9.382 15.87Z"></path><path fill="#e6560f" d="M464.604 303.944c-.586-1.58-4.681-5.325-4.723-5.363l.28-.307c.172.157 4.211 3.852 4.833 5.526Z"></path><path fill="#ffb957" d="m449.425 294.17.19-.371c.122.062 12.18 6.327 16.565 14.122l-.363.203c-4.32-7.684-16.272-13.893-16.392-13.955Z"></path><path fill="#376f92" d="m448.193 297.667.06-.412a22.587 22.587 0 0 1 10.875 5.422c.096.09.191.18.286.273l-.29.297a22.055 22.055 0 0 0-10.93-5.58Z"></path><path fill="#ffb957" d="m447.686 301.574.024-.415c.095.006 9.494.602 15.383 6.108l.103.098-.287.301a16.22 16.22 0 0 0-.1-.096c-5.778-5.4-15.03-5.99-15.123-5.996Z"></path><path fill="#e6560f" d="m445.95 303.451-.014-.415c.223-.008 5.452-.146 6.808 1.201l-.296.293-.033-.033c-1.288-1.205-6.412-1.048-6.465-1.046Z"></path><path fill="#376f92" d="m447.112 307.185-.166-.382c.058-.025 5.95-2.517 14.56.468l-.137.393c-8.447-2.928-14.2-.504-14.257-.48Z"></path><path fill="#e6560f" d="M469.384 304.967c1.005-3.5-.833-7.46-.851-7.5l.376-.178c.08.167 1.924 4.139.875 7.792Z"></path><path fill="#376f92" d="M470.49 298.615a18.374 18.374 0 0 0-1.267-7.544l.385-.157a18.438 18.438 0 0 1 1.295 7.748Z"></path><path fill="#ffb957" d="M471.52 303.5c3.7-7.75 3.064-13.658 3.057-13.717l.413-.048c.007.06.66 6.078-3.096 13.944Z"></path><path fill="#e6560f" d="m475.128 299.639 4.076-8.122.372.187-4.076 8.121z"></path><path fill="#ffb957" d="m472.545 304.374 6.583-7.041.304.284-6.583 7.04z"></path><path fill="#376f92" d="m477.53 301.844-.26-.325c.222-.178 5.5-4.366 9.098-4.64l.032.415c-3.471.264-8.817 4.507-8.87 4.55Z"></path><path fill="#ffb957" d="m474.348 305.242-.234-.344c.073-.05 7.374-4.938 14.305-3.673l-.075.41c-6.765-1.235-13.925 3.558-13.996 3.607Z"></path><path fill="#e6560f" d="m486.735 303.391.011-.416 5.154.133-.01.416z"></path><path fill="#376f92" d="m477.855 306.057-.126-.396c.23-.073 5.636-1.762 8.61-1.048l-.097.405c-2.862-.687-8.332 1.022-8.387 1.04Z"></path><path fill="#ffb957" d="m478.664 307.35-.041-.414c.069-.007 7-.67 12.489 1.056l-.125.397c-5.406-1.7-12.255-1.046-12.323-1.039Z"></path><path fill="#e6560f" d="m471.69 308.746-.038-.414a37.934 37.934 0 0 1 17.656 3.822l-.177.376a37.506 37.506 0 0 0-17.441-3.784ZM461.547 311.769l4.076-1.955.18.375-4.076 1.955z"></path><path fill="#ffb957" d="m441.517 311.491-.15-.388c.117-.045 11.782-4.51 18.794-2.73l-.103.403c-6.882-1.747-18.425 2.67-18.54 2.715Z"></path><path fill="#376f92" d="m451.232 310.734 7.602-.709.039.415-7.602.709z"></path><path fill="#e6560f" d="m445.36 315.464 7.138-2.417.134.394-7.138 2.417z"></path><path fill="#ffb957" d="m453.75 313.132 5.152-1.438.112.4-5.152 1.438z"></path><path fill="#e6560f" d="m451.132 318.79-.254-.33c.243-.186 5.974-4.576 8.355-5.013l.075.41c-2.283.418-8.118 4.889-8.176 4.933Z"></path><path fill="#ffb957" d="M450.376 323.723c1.524-4.464 8.821-8.865 9.131-9.05l.213.357c-.074.045-7.476 4.507-8.95 8.828Z"></path><path fill="#376f92" d="M453.395 326.564c1.879-7.122 11.65-14.197 11.748-14.268l.243.338c-.097.07-9.748 7.06-11.588 14.036Z"></path><path fill="#ffb957" d="M480.834 334.914c-1.692-11.957-11.862-22.45-11.965-22.555l.297-.292c.104.106 10.37 10.698 12.08 22.788Z"></path><path fill="#376f92" d="m470.885 310.385.067-.41a31.546 31.546 0 0 1 15.76 8.825l-.297.29a31.108 31.108 0 0 0-15.53-8.705Z"></path><path fill="#e6560f" d="M485.174 325.79c-1.017-5.335-6.946-10.55-7.009-10.602l.274-.313c.247.215 6.1 5.36 7.143 10.837Z"></path><path fill="#ffb957" d="M477.277 318.451a26.468 26.468 0 0 0-8.074-7.936l.21-.36a26.971 26.971 0 0 1 8.219 8.078ZM471.161 330.715a38.176 38.176 0 0 0-3.882-15.166l.362-.205a38.658 38.658 0 0 1 3.935 15.347Z"></path><path fill="#e6560f" d="m466.346 314.015.416-.006.082 5.45-.416.007z"></path><path fill="#ffb957" d="M461.093 321.378a14.998 14.998 0 0 1 2.82-6.099l.325.26a14.867 14.867 0 0 0-2.734 5.904Z"></path><path fill="#376f92" d="m463.032 323.063 1.053-5.83.41.074-1.054 5.83z"></path><path fill="#ffb957" d="m464.56 331.492.033-9.544.416.002-.033 9.544z"></path><path fill="#376f92" d="M471.954 320.877c-.095-2.097-3.015-5.516-3.045-5.55l.316-.272c.124.145 3.044 3.565 3.145 5.804Z"></path><path fill="#e6560f" d="M475.578 328.03a25.095 25.095 0 0 0-2.071-7.253l.377-.174a24.968 24.968 0 0 1 2.108 7.402Z"></path><path fill="#ffb957" d="m479.454 311.66.081-.407c.242.048 5.945 1.21 7.877 3.808l-.334.248c-1.833-2.468-7.566-3.637-7.624-3.648Z"></path><path fill="#376f92" d="M480.292 325.945a31.537 31.537 0 0 0-4.444-7.068l.316-.27a32.042 32.042 0 0 1 4.512 7.178Z"></path><path fill="#e6560f" d="M493.165 226.478a1.161 1.161 0 0 0 0-2.322 1.161 1.161 0 0 0 0 2.322ZM505.114 187.644a1.161 1.161 0 0 0 0-2.322 1.161 1.161 0 0 0 0 2.322ZM474.407 179.9l.676-.376 5.875 10.555-.676.376zM463.162 196.805l.261-.728 11.95 4.281-.262.73z"></path><path fill="#ffb957" d="m464.907 214.322 9.655-5.083.36.685-9.655 5.083z"></path><path fill="#e6560f" d="m471.292 217.668 7.566-7.17.532.562-7.567 7.17z"></path><path fill="#376f92" d="m472.083 188.45.543-.55 7.37 7.27-.545.55z"></path><path fill="#ffb957" d="M486.207 180.687h.774v11.472h-.774zM486.605 213.169h.774v11.451h-.774z"></path><path fill="#e6560f" d="m489.616 191.222 3.186-8.066.72.284-3.186 8.066z"></path><path fill="#ffb957" d="M466.778 202.825h9.858v.774h-9.858z"></path><path fill="#376f92" d="m471.42 207.63 7.569-2.871.274.722-7.568 2.871z"></path><path fill="#e6560f" d="m478.89 207.683 2.987-2.289.471.614-2.987 2.29z"></path><path fill="#ffb957" d="m473.165 195.785.37-.68 5.775 3.136-.37.68zM481.757 188.825l.713-.302 3.285 7.767-.712.301z"></path><path fill="#e6560f" d="m481.777 195.14.671-.386 2.688 4.68-.67.385zM488.115 210.892l.74-.225 2.29 7.568-.74.225z"></path><path fill="#376f92" d="m480.748 224.508 2.635-8.664.74.225-2.634 8.664z"></path><path fill="#e6560f" d="m494.313 194.647 5.676-4.678.493.598-5.677 4.678z"></path><path fill="#376f92" d="m496.877 196.941 8.563-4.234.343.694-8.562 4.234zM497.278 206.07l.238-.737 11.999 3.883-.239.736z"></path><path fill="#ffb957" d="m492.815 213.63.7-.327 4.88 10.456-.701.327z"></path><path fill="#376f92" d="m493.675 209.844.573-.52 6.87 7.567-.573.52z"></path><path fill="#e6560f" d="m498.012 202.825 7.07-.596.065.772-7.07.596z"></path><path fill="#ffb957" d="m490.443 195.942 2.39-3.983.664.399-2.39 3.982z"></path><path fill="#376f92" d="m487.504 199.575.598-4.456.767.103-.597 4.456z"></path><path fill="#ffb957" d="m479.961 215.81 1.793-4.38.717.292-1.793 4.382zM478.173 201.474l.312-.708 3.385 1.494-.312.708zM484.418 212.063l.599-3.833.765.12-.599 3.833zM490.53 200.424l2.787-2.291.492.598-2.788 2.29zM495.504 200.348l4.033-1.094.203.747-4.034 1.094z"></path><path fill="#e6560f" d="m493.73 207.156.463-.62 4.082 3.036-.462.621z"></path><path fill="#376f92" d="m488.548 206.747.672-.382 1.892 3.326-.673.383zM491.377 203.546l.39-.669 2.39 1.394-.39.669zM500.733 212.936a1.161 1.161 0 0 0 0-2.322 1.161 1.161 0 0 0 0 2.322Z"></path><path fill="#e6560f" d="M261.565 320.579c2.485 0 2.489-3.861 0-3.861-2.485 0-2.489 3.861 0 3.861ZM281.44 255.986c2.484 0 2.489-3.861 0-3.861-2.485 0-2.489 3.861 0 3.861ZM230.363 243.106l1.124-.626 9.772 17.556-1.125.626zM211.661 271.223l.434-1.211 19.875 7.122-.434 1.211z"></path><path fill="#ffb957" d="m214.562 300.362 16.061-8.456.6 1.139-16.061 8.456z"></path><path fill="#e6560f" d="M225.183 305.926 237.77 294l.886.935-12.587 11.925z"></path><path fill="#376f92" d="m226.498 257.329.903-.916 12.256 12.09-.904.917z"></path><path fill="#ffb957" d="M249.991 244.414h1.287v19.082h-1.287zM250.653 298.442h1.287v19.047h-1.287z"></path><path fill="#e6560f" d="m255.667 261.935 5.3-13.416 1.196.473-5.299 13.416z"></path><path fill="#ffb957" d="M217.675 281.237h16.397v1.287h-16.397z"></path><path fill="#376f92" d="m225.396 289.228 12.587-4.774.457 1.203-12.587 4.775z"></path><path fill="#e6560f" d="m237.82 289.319 4.97-3.808.783 1.021-4.97 3.808z"></path><path fill="#ffb957" d="m228.298 269.527.614-1.13 9.607 5.217-.614 1.13zM242.588 257.95l1.186-.501 5.465 12.918-1.185.502z"></path><path fill="#e6560f" d="m242.623 268.454 1.116-.64 4.471 7.783-1.116.641zM253.165 294.654l1.232-.372 3.81 12.587-1.233.373z"></path><path fill="#376f92" d="m240.913 317.303 4.382-14.412 1.232.375-4.382 14.411z"></path><path fill="#e6560f" d="m263.474 267.636 9.443-7.782.818.993-9.443 7.782z"></path><path fill="#376f92" d="m267.74 271.45 14.241-7.043.57 1.154-14.24 7.043zM268.406 286.633l.396-1.224 19.958 6.459-.396 1.224z"></path><path fill="#ffb957" d="m260.982 299.211 1.166-.544 8.116 17.39-1.167.545z"></path><path fill="#376f92" d="m262.414 292.912.953-.865 11.428 12.587-.953.865z"></path><path fill="#e6560f" d="m269.627 281.238 11.76-.992.108 1.283-11.76.991z"></path><path fill="#ffb957" d="m257.038 269.789 3.976-6.624 1.104.662-3.976 6.624z"></path><path fill="#376f92" d="m252.15 275.832.992-7.412 1.276.171-.993 7.412z"></path><path fill="#ffb957" d="m239.603 302.836 2.982-7.287 1.192.488-2.982 7.287zM236.628 278.991l.519-1.177 5.631 2.484-.52 1.178zM247.015 296.604l.996-6.376 1.271.198-.995 6.376zM257.182 277.243l4.636-3.81.817.994-4.636 3.81zM265.451 277.118l6.709-1.82.337 1.242-6.709 1.82z"></path><path fill="#e6560f" d="m262.506 288.441.768-1.033 6.79 5.052-.768 1.033z"></path><path fill="#376f92" d="m253.884 287.761 1.119-.636 3.146 5.534-1.118.636zM258.59 282.436l.65-1.113 3.975 2.319-.65 1.113zM274.152 298.054c2.485 0 2.49-3.861 0-3.861-2.484 0-2.488 3.861 0 3.861Z"></path><path fill="#e6560f" d="M215.54 230.652a1.161 1.161 0 0 0 0-2.322 1.161 1.161 0 0 0 0 2.322ZM227.489 191.818a1.161 1.161 0 0 0 0-2.322 1.161 1.161 0 0 0 0 2.322ZM196.78 184.075l.677-.377 5.875 10.555-.676.377zM185.537 200.979l.261-.729 11.95 4.282-.262.729z"></path><path fill="#ffb957" d="m187.28 218.497 9.656-5.084.361.685-9.655 5.083z"></path><path fill="#e6560f" d="m193.667 221.842 7.566-7.17.532.561-7.567 7.17z"></path><path fill="#376f92" d="m194.457 192.625.544-.55 7.368 7.269-.543.55z"></path><path fill="#ffb957" d="M208.581 184.86h.774v11.472h-.774zM208.98 217.343h.774v11.451h-.774z"></path><path fill="#e6560f" d="m211.992 195.395 3.186-8.066.72.285-3.186 8.065z"></path><path fill="#ffb957" d="M189.153 206.999h9.858v.774h-9.858z"></path><path fill="#376f92" d="m193.795 211.804 7.568-2.871.274.723-7.568 2.87z"></path><path fill="#e6560f" d="m201.265 211.857 2.987-2.29.471.615-2.987 2.29z"></path><path fill="#ffb957" d="m195.54 199.96.37-.681 5.774 3.136-.369.68zM204.13 193l.714-.303 3.285 7.767-.712.302z"></path><path fill="#e6560f" d="m204.152 199.313.671-.385 2.688 4.68-.67.385zM210.49 215.066l.74-.225 2.29 7.568-.74.225z"></path><path fill="#376f92" d="m203.123 228.682 2.635-8.665.74.226-2.634 8.664z"></path><path fill="#e6560f" d="m216.688 198.821 5.676-4.678.493.598-5.677 4.678z"></path><path fill="#376f92" d="m219.252 201.115 8.563-4.234.343.694-8.562 4.234zM219.653 210.243l.238-.736 11.998 3.883-.238.736z"></path><path fill="#ffb957" d="m215.189 217.805.701-.327 4.88 10.455-.702.328z"></path><path fill="#376f92" d="m216.05 214.018.573-.52 6.87 7.567-.573.52z"></path><path fill="#e6560f" d="m220.386 206.998 7.07-.597.065.772-7.07.596z"></path><path fill="#ffb957" d="m212.818 200.116 2.39-3.983.664.398-2.39 3.983z"></path><path fill="#376f92" d="m209.88 203.75.596-4.456.767.102-.597 4.457z"></path><path fill="#ffb957" d="m202.336 219.984 1.793-4.381.717.293-1.794 4.381zM200.547 205.649l.312-.708 3.386 1.493-.313.708zM206.792 216.237l.599-3.834.765.12-.599 3.833zM212.905 204.597l2.787-2.29.492.598-2.788 2.29zM217.878 204.523l4.033-1.094.203.747-4.034 1.094z"></path><path fill="#e6560f" d="m216.106 211.33.462-.621 4.082 3.037-.462.621z"></path><path fill="#376f92" d="m210.922 210.922.673-.383 1.891 3.327-.672.382zM213.752 207.72l.39-.67 2.39 1.395-.39.669zM223.107 217.11a1.161 1.161 0 0 0 0-2.322 1.161 1.161 0 0 0 0 2.322Z"></path><path fill="#e6560f" d="M578.578 203.3a1.876 1.876 0 0 0 0-3.75 1.876 1.876 0 0 0 0 3.75ZM597.878 140.576a1.876 1.876 0 0 0 0-3.75 1.876 1.876 0 0 0 0 3.75ZM548.278 128.068l1.093-.608 9.489 17.049-1.093.607zM530.118 155.373l.422-1.177 19.299 6.916-.422 1.177z"></path><path fill="#ffb957" d="m532.935 183.668 15.596-8.212.582 1.106-15.596 8.212z"></path><path fill="#e6560f" d="m543.248 189.07 12.222-11.58.86.907-12.222 11.58z"></path><path fill="#376f92" d="m544.526 141.88.877-.89 11.902 11.741-.878.89z"></path><path fill="#ffb957" d="M567.339 129.338h1.25v18.53h-1.25zM567.982 181.804h1.25V200.3h-1.25z"></path><path fill="#e6560f" d="m572.85 146.352 5.146-13.027 1.162.458-5.146 13.028z"></path><path fill="#ffb957" d="M535.958 165.096h15.922v1.25h-15.922z"></path><path fill="#376f92" d="m543.456 172.857 12.224-4.637.443 1.168-12.224 4.637z"></path><path fill="#e6560f" d="m555.52 172.944 4.826-3.698.76.992-4.826 3.698z"></path><path fill="#ffb957" d="m546.274 153.726.597-1.098 9.328 5.066-.597 1.098zM560.15 142.483l1.152-.487 5.307 12.544-1.151.487z"></path><path fill="#e6560f" d="m560.184 152.684 1.084-.623 4.342 7.56-1.083.622zM570.421 178.125l1.197-.362 3.699 12.223-1.197.362z"></path><path fill="#376f92" d="m558.523 200.119 4.255-13.995 1.196.364-4.256 13.994z"></path><path fill="#e6560f" d="m580.431 151.888 9.17-7.557.795.965-9.17 7.556z"></path><path fill="#376f92" d="m584.574 155.594 13.83-6.84.554 1.12-13.83 6.84zM585.221 170.336l.385-1.19 19.38 6.273-.384 1.189z"></path><path fill="#ffb957" d="m578.011 182.55 1.133-.528 7.88 16.888-1.132.528z"></path><path fill="#376f92" d="m579.403 176.434.925-.84 11.097 12.223-.925.84z"></path><path fill="#e6560f" d="m586.406 165.098 11.42-.963.104 1.244-11.42.963z"></path><path fill="#ffb957" d="m574.182 153.98 3.86-6.433 1.072.644-3.86 6.432z"></path><path fill="#376f92" d="m569.432 159.849.965-7.198 1.239.166-.965 7.198z"></path><path fill="#ffb957" d="m557.252 186.07 2.896-7.076 1.157.474-2.896 7.076zM554.362 162.915l.504-1.144 5.469 2.413-.505 1.143zM564.45 180.018l.966-6.191 1.235.193-.966 6.19zM574.322 161.218l4.503-3.7.793.966-4.502 3.7zM582.355 161.096l6.515-1.767.327 1.206-6.515 1.768z"></path><path fill="#e6560f" d="m579.492 172.092.746-1.003 6.593 4.905-.746 1.003z"></path><path fill="#376f92" d="m571.12 171.432 1.086-.618 3.056 5.374-1.086.618zM575.69 166.26l.63-1.08 3.86 2.252-.63 1.08zM590.801 181.427a1.876 1.876 0 0 0 0-3.75 1.876 1.876 0 0 0 0 3.75Z"></path><path fill="#fd8b66" d="M441.617 373.938c-7.382-.582-7.253-2.274-7.253-2.274 14.117-.331 11.915-3.165 10.944-4.694-.971-1.53-17.095-1.579-17.095-1.579s2.137-.194 9.13-2.526c6.994-2.33-1.942-4.662-9.519-4.662-7.576 0-15.152 5.634-17.483 6.8-2.332 1.165-10.102 2.136-13.793 1.942-3.691-.194-41.286 0-41.286 0l-4.57-33.795c-1.257-.046-2.75-.21-4.458-.396-8.937-.97-6.605 1.555-9.325 4.469-2.72 2.914-6.216 1.36-9.13.97-2.914-.387-5.828 1.555-8.742 4.275 0 0 12.821 44.875 20.786 48.566 7.965 3.69 64.69-8.353 72.849-8.16 8.159.195 14.376-.084 20.203 0 21.854.317 2.914-4.662 2.914-4.662a26.561 26.561 0 0 0 6.022 0c3.108-.388 7.188-3.69-.194-4.274Z"></path><path fill="#af2500" d="M351.73 320.19a14.14 14.14 0 0 0-4.51-5.58 16.472 16.472 0 0 0-6.523-2.73 25.96 25.96 0 0 0-3.504-.439 32.159 32.159 0 0 0-3.53-.064 43.59 43.59 0 0 0-6.985.738l.36-.147a28.077 28.077 0 0 0-3.724 2.443 10.282 10.282 0 0 0-1.503 1.474 5.844 5.844 0 0 0-.58.88c-.186.324-.391.637-.553.981a38.565 38.565 0 0 0-3.11 8.712 84.703 84.703 0 0 0-1.664 9.215c-.406 3.1-.68 6.221-.99 9.341l-1.167-1.18a9.302 9.302 0 0 0 3.005-1.187 8.114 8.114 0 0 0 1.249-.957c.383-.367.886-.859 1.345-1.27a19.484 19.484 0 0 1 3.144-2.351 9.69 9.69 0 0 1 4.039-1.39 16.505 16.505 0 0 1 4.012.452 9.273 9.273 0 0 0 3.082.16 3.572 3.572 0 0 0 2.188-1.255 6.73 6.73 0 0 0 .813-1.18 18.47 18.47 0 0 1 .968-1.765 4.311 4.311 0 0 1 2.205-1.648 7.897 7.897 0 0 1 2.227-.377 23.794 23.794 0 0 1 3.884.264l3.605.559a14.125 14.125 0 0 0 3.377.243 1.655 1.655 0 0 0 1.743-1.646 10.437 10.437 0 0 0-.39-3.453 42.3 42.3 0 0 0-2.512-6.843Zm.274-.125c1.006 2.23 2.085 4.423 2.957 6.744a12.64 12.64 0 0 1 .922 3.724 3.265 3.265 0 0 1-.635 2.18 3.65 3.65 0 0 1-1.995 1.196c-2.751.616-5.192.261-7.615.185a25.49 25.49 0 0 0-3.43-.017 5.01 5.01 0 0 0-1.367.259 1.145 1.145 0 0 0-.658.517c-.192.288-.415.849-.729 1.479a8.307 8.307 0 0 1-1.246 1.839 6.824 6.824 0 0 1-4.061 2.268 11.205 11.205 0 0 1-4.192-.264 15.516 15.516 0 0 0-3.226-.532c-1.865.074-3.875 1.341-5.67 2.788-.472.379-.86.721-1.386 1.17a9.134 9.134 0 0 1-1.743 1.146 10.627 10.627 0 0 1-3.9 1.142l-1.436.133.269-1.313 3.782-18.463a70.78 70.78 0 0 1 2.473-9.201c.128-.384.308-.755.47-1.133a7.577 7.577 0 0 1 .583-1.157 10.933 10.933 0 0 1 1.628-2.013 22.302 22.302 0 0 1 3.902-3.02l.156-.099.205-.049a28.912 28.912 0 0 1 7.61-.783 24.799 24.799 0 0 1 7.504 1.392 19.36 19.36 0 0 1 6.491 3.88 18.827 18.827 0 0 1 4.337 6.002Z"></path><path fill="#d04719" d="M535.166 311.712s11.606.767 16.417-3.377c0 0-4.86 10.608-16.213 11.132a21.33 21.33 0 0 0-.204-7.755Z" opacity=".8"></path></svg>