<svg xmlns="http://www.w3.org/2000/svg" enable-background="new 0 0 3000 3000" viewBox="0 0 3000 3000" id="couple-dancing-celebrates-new-year-party"><g><path fill="#DFE4EF" d="M495.975 2636.47c283.214 104.965 1720.562-8.078 1844.507-26.089 123.946-18.013 206.654-53.864 165.3-91.766-41.354-37.902-1863.988-42.142-1929.779-8.296C510.21 2544.163 458.756 2622.675 495.975 2636.47zM1979.551 2680.562c57.379-3.418 392.347-62.348 406.304-45.289 13.957 17.059 13.957 36.922 13.957 36.922s-344.272 39.066-372.186 37.515C1999.711 2708.159 1979.551 2680.562 1979.551 2680.562z"></path><path fill="#DFE4EF" d="M591.399,2670.968c11.063,4.625,249.215,18.582,245.672,26.336s-11.297,12.452-11.297,12.452
		s-214.756,10.9-226.788,0c-12.031-10.901-33.742-16.972-33.742-16.972L591.399,2670.968z"></path></g><g><g><path fill="#28264A" d="M625.523,2107.723l-12.17,5.216c-8.763-3.297-2.939,174.155,42.481,160.008L625.523,2107.723z"></path><path fill="#E4C012" d="M667.19,2251.672c5.764-76.701,37.559-133.328-1.414-154.936c-10.724-2.474-22.928,7.403-43.217,11.666
			c-11.907,2.5-8.206,97.132,10.943,141.427C638.082,2260.423,660.464,2295.143,667.19,2251.672z"></path><path fill="#FAB19E" d="M732.637,2059.326c-0.849,1.562-73.579,46.499-73.579,46.499s-8.52,5.281-5.773,23.292
			c3.356,22.018,13.479,20.597,13.479,20.597l86.275-24.185L732.637,2059.326z"></path><path fill="#EAA98C" d="M692.889,2084.762c-0.145,10.202,1.025,25.072,7.968,37.794c-4.528,1.231-18.66,13.309-30.807,12.236
			c-9.158-0.757-10.429-18.375-9.461-29.899c-0.98,0.569-1.538,0.898-1.538,0.898s-8.509,5.331-5.799,23.329
			c3.37,22.02,13.505,20.608,13.505,20.608l86.299-24.237l-20.372-66.162C732.23,2060.156,712.074,2072.834,692.889,2084.762z"></path><path fill="#3A3A60" d="M658.513,2151.268c43.602-37.134,72.184-12.651,19.645,27.201c0,0-5.226,61.585-10.213,68.28
			C662.953,2253.446,640.284,2228.432,658.513,2151.268z"></path></g><path fill="#E06020" d="M1063.438,1309.26c0,0,236.5,524.596,172.741,629.616c-63.763,105.021-515.618,208.095-515.618,208.095
		l-24.921-77.455l315.83-229.085l-113.898-271.495c0,0-99.513-94.574-123.167-157.019
		C750.746,1349.472,1063.438,1309.26,1063.438,1309.26z"></path><path fill="#D3581E" d="M761.1 2022.045l237.962-172.641c-2.011 90.771-1.284 173.906-.651 218.222-135.921 46.97-277.794 79.345-277.794 79.345l-8.522-26.237C756.44 2106.903 772.153 2046.726 761.1 2022.045zM1095.63 1383.671l-49.134 92.969c-30.062 43.08-42.064 193.897-46.459 336.561L897.56 1568.959c0 0-99.506-94.572-123.185-157.079-23.678-62.437 288.992-102.636 288.992-102.636S1076.453 1338.185 1095.63 1383.671z"></path><g><g><g><path fill="#252B4C" d="M1044.281,781.925c-7.312-45.079-19.812-53.234-34.676-71.898
					c-8.455-10.577-29.336-22.458-38.829-48.592c-16.555-45.498-61.685-42.087-97.907-20.635
					c-21.122,12.51-63.672,10.488-61.664,35.711c2.214,27.796-64.527,27.985-90.262,74.202
					c-25.698,46.257,37.988,65.681-22.636,130.174c-60.665,64.527-108.31,132.998-25.633,196.226
					c44.646,34.105,103.524,42.067,157.664,11.908c46.064-25.648,88.779-78.849,116.339-166.988
					C971.761,841.975,1055.724,852.599,1044.281,781.925z"></path><g><path fill="#28264A" d="M826.133,2569.331l1.901,12.228c-5.018,7.172,157.024,43.014,154.739-1.394L826.133,2569.331z"></path><path fill="#E4C012" d="M966.139,2564.954c-68.123-22.995-112.034-64.907-140.627-34.62
						c-4.728,9.138,1.387,22.478,0.547,41.836c-0.495,11.365,86.057,29.938,130.606,22.862
						C967.319,2593.339,1003.948,2581.112,966.139,2564.954z"></path><path fill="#FAB19E" d="M826.018,2453.454c0.946,1.367,7.977,80.965,7.977,80.965s0.837,9.334,17.032,14.598
						c19.802,6.432,22.86-2.622,22.86-2.622l15.987-82.211L826.018,2453.454z"></path><path fill="#EAA98C" d="M830.59,2497.326c8.461,4.402,21.373,9.662,34.913,9.2c-0.87,4.296,3.289,21.167-2.701,30.865
						c-4.473,7.331-19.724,1.002-28.944-4.641c0.066,1.058,0.101,1.665,0.101,1.665s0.888,9.344,17.06,14.625
						c19.807,6.423,22.88-2.634,22.88-2.634l15.953-82.254l-63.815-10.736C826.536,2454.142,828.674,2476.298,830.59,2497.326z"></path><path fill="#3A3A60" d="M873.209,2549.548c-23.525-48.09,5.269-68.3,29.185-11.488c0,0,54.552,18.998,59.462,25.07
						C966.764,2569.198,938.859,2583.932,873.209,2549.548z"></path></g><path fill="#E06020" d="M735.169,1357.569l301.31-10.478L996.9,1482.682c0,0-89.532,1003.252-105.99,1011.404
					c-16.457,8.152-57.847-1.502-65.867-5.149c-8.022-3.649-82.58-921.613-82.58-921.613S705.164,1402.825,735.169,1357.569z"></path><path fill="#D3581E" d="M735.169,1357.569c-30.005,45.256,7.295,209.755,7.295,209.755s74.557,917.963,82.579,921.581
					c8.022,3.72,49.412,13.333,65.864,5.181c16.455-8.149,105.993-1011.404,105.993-1011.404l39.602-135.592L735.169,1357.569z
					 M938.207,1868.421c-22.223,11.825-92.04,11.097-57.754,16.22c34.284,5.123,63.532,28.846,42.957,27.453
					c-20.578-1.39-86.854-27.505-80.584-16.67c6.169,10.837,64.204,45.135,64.752,60.909c0.549,15.77-16.008,493.203-32.697,512.732
					c-16.692,19.53-38.235-9.722-38.235-9.722s-62.81-716.471-59.972-770.993c2.845-54.415,27.56-109.593,14.565-123.036
					c-12.993-13.443-44.876-109.917-22.569-107.116c0,0,107.346,14.376,155.632,10.378
					C972.585,1464.582,960.427,1856.596,938.207,1868.421z"></path><path fill="#C6501C" d="M1040.404,1361.956l-40.619,135.627c0,0-23.349,304.769-32.242,298.763
					c-8.892-6.006,16.416-299.791,16.416-299.791l26.111-125.323L1040.404,1361.956z"></path><g><path fill="#FAB19E" d="M1110.007,974.391l79.938,59.312c0,0,34.211,56.488,10.6,75.308
						c-23.61,18.824-34.836,26.953-48.002,22.005c-20.733-7.792-97.5-68.345-97.5-68.345L1110.007,974.391z"></path><path fill="#EBA090" d="M1148.133,1002.689c-4.638,22.152-17.581,74.517-40.745,99.623
						c-25.979-18.88-52.369-39.651-52.369-39.651l54.961-88.265L1148.133,1002.689z"></path><path fill="#FFD600" d="M978.547,849.94c0,0,12.697,0.917,21.773,8.632c34.903,29.671,115.317,107.74,144.777,130.878
						c1.901,26.29-53.085,97.446-64.052,99.063c-10.97,1.615-97.599-69.164-106.647-79.981
						C965.349,997.711,950.343,902.707,978.547,849.94z"></path><path fill="#E4C012" d="M1099.14,1072.474c-8.087,9.317-14.908,15.579-18.071,15.99
						c-11.014,1.689-97.602-69.104-106.649-79.935c-8.869-10.638-23.461-102.01,2.411-155.325
						c9.567,28.286,30.769,87.495,39.738,103.449c11.891,21.077,38.519,24.068,44.69,48.455
						C1066.639,1026.509,1068.555,1064.298,1099.14,1072.474z"></path></g><path fill="#FFD600" d="M707.662,1383.787c0,0,190.292,23.368,229.641,19.775c39.35-3.596,180.11-42.462,181.488-48.219
					c0.738-3.085-28.693-91.63-66.225-224.344c-5.368-18.975,6.548-81.546,1.061-99.733c-5.162-17.109-30.873-42.852-35.997-58.524
					c-22.492-68.793-23.41-119.523-38.02-123.424c-46.22-12.343-141.45-3.727-167.52,18.456
					C786.016,889.959,690.515,1372.382,707.662,1383.787z"></path><path fill="#E4C012" d="M707.622,1383.77c0,0,190.299,23.383,229.661,19.81c39.366-3.576,180.149-42.496,181.485-48.196
					c0.753-3.095-28.683-91.684-66.174-224.372c-5.356-18.982,6.555-81.599,1.038-99.715c-0.106-0.284-0.113-0.476-0.22-0.76
					c-8.142,35.938-20.116,91.274-20.836,106.347c-1.027,22.846,29.803,99.12,34.775,112.558
					c5.067,13.435-12.788,9.837-27.746,12.465c-14.861,2.627,22.316,24.335,30.167,40.644c7.948,16.304-15.74,4.861-39.313,7.788
					c-23.665,3.028,24.171,14.302,33.562,19.728c9.391,5.518-89.202,33.963-109.842,41.198
					c-20.548,7.232-116.762-8.88-129.976-16.756c-13.215-7.978,33.896-39.517,50.284-58.873
					c16.393-19.164-85.206,46.859-108.552,36.936c-23.351-10.018,17.443-16.516,34.747-34.369
					c17.396-17.858-35.172,22.116-55.876,5.583c-20.703-16.531,5.126-78.578,68.4-100.14c63.274-21.558,67.266-72.113,89.42-96.557
					c22.153-24.444,82.269-10.049,111.704-26.218c29.441-16.069,9.432-65.023,0.021-71.116c-9.321-6.194-80.897,33.004-80.07,15.435
					c0.537-12.189,41.496-77.351,66.422-115.79c-5.446-24.252-8.864-42.628-13.711-52.428
					c-45.14,71.728-168.628,260.714-251.888,316.707C714.434,1282.034,700.068,1378.76,707.622,1383.77z"></path><path fill="#FFD600" d="M812.089,867.773c0,0-35.543,30.757-42.568,40.706c-7.024,9.947-55.533,213.296-56.095,227.403
					c-0.564,14.108,11.785,29.751,37.608,51.24c53.073,44.158,116.78-41.241,106.96-71.363
					C848.172,1085.635,812.089,867.773,812.089,867.773z"></path><path fill="#C6501C" d="M824.408 940.524c0 0 35.503 158.533 30.128 161.9C849.163 1105.79 821.708 974.255 824.408 940.524zM823.888 860.468c34.5-15.938 108.622-21.566 150.521-12.393 3.054 18.21 6.553 70.407-53.006 86.164C863.512 949.514 833.633 886.446 823.888 860.468zM1019.446 977.102c0 0 37.368 46.18 39.957 52.604 2.592 6.422-6.231 93.18-5.19 97.585 1.04 4.405 7.911 29.31 4.466 25.146-3.441-4.16-11.453-30.235-11.546-32.896-.092-2.658 4.585-80.983 4.431-85.42C1051.41 1029.688 1018.782 981.751 1019.446 977.102z"></path><g><g><g><path fill="#FAB19E" d="M932.374,844.249c1.764-2.986-3.922-52.996-3.468-54.447l-72.519-52.889l3.95,108.87
								c-4.881,1.841-16.499,4.845-31.388,12.302c35.413,68.332,120.72,88.278,140.419-8.575
								C972.775,844.253,940.508,846.78,932.374,844.249z"></path><path fill="#EBA090" d="M969.387 849.51c-12.351 60.478-50.235 75.411-85.566 61.349 19.801-22.893 43.962-50.964 56.163-65.563C952.298 846.055 972.032 845.298 969.387 849.51zM932.681 841.542c.181-7.759-2.047-29.994-3.118-42.631-15.163-3.352-41.512-10.906-51.572-25.408C877.99 773.503 870.857 837.467 932.681 841.542z"></path><path fill="#FAB19E" d="M840.066,702.172c29.599,169.873,191.186,143.133,121.56-48.021
								c-2.004,24.022-94.091,22.768-94.091,22.768C864.329,695.186,854.365,704.866,840.066,702.172z"></path><path fill="#FAB19E" d="M865.07,768.512l-14.507-46.802C805.454,712.779,833.849,778.077,865.07,768.512z"></path><path fill="#28264A" d="M839.321 737.477c40.677 8.065-14.995 21.935 7.877 6.85C847.198 744.327 833.248 738.254 839.321 737.477zM928.595 689.505c-.645 4.277 13.403 8.49 29.036 4.032C973.26 689.076 930.068 679.692 928.595 689.505zM896.896 699.012c-2.377-3.617-15.655 2.607-24.335 16.346C863.883 729.102 902.334 707.308 896.896 699.012zM935.901 725.081c-4.394-3.027-3.194-10.619 4.458-18.219 3.619-6.986 33.812.552 16.695 6.097C937.118 705.261 945.803 726.452 935.901 725.081zM887.751 739.386c-4.394-3.032-3.2-10.619 4.461-18.22 3.61-6.991 33.794.561 16.689 6.095C888.967 719.563 897.653 740.754 887.751 739.386zM921.246 729.244c37.884 47.793-21.104 31.405 9.287 23.746C930.533 752.991 919.039 729.529 921.246 729.244zM924.674 781.503c2.053-7.312 12.009 4.258 16.835-6.04 7.171.122 5.26 13.704-3.57 16.291C930.654 793.436 924.306 788.284 924.674 781.503z"></path></g></g></g><g><g><path fill="#FAB19E" d="M1151.805,1129.234c-25.292-25.963,2.759-86,2.759-86l159.294-278.483l50.248,25.554
							c0,0-87.371,265.237-138.772,327.518C1202.052,1146.028,1164.481,1142.249,1151.805,1129.234z"></path><g><path fill="#FAB19E" d="M1312.591,673.158c4.702-1.697,8.365,0.936,10.021,6.643c3.524,12.154,5.797,24.594,8.802,37.305
								c13.055-21.209,27.553-43.765,40.612-64.974c3.039,1.112,4.398,4.309,4.519,6.97c0.122,2.66-0.66,5.269-1.473,7.807
								c-3.191,9.936-7.005,19.672-11.421,29.13c10.979-13.568,18.533-23.563,29.376-35.883c2.148,1.322,4.049,4.543,3.823,7.058
								c-0.229,2.514-2.287,6.719-3.402,8.983c-5.08,10.286-9.228,18.695-14.304,28.985c8.251-8.895,17.819-17.311,26.071-26.206
								c1.853,0.615,3.465,3.692,3.513,5.646c0.044,1.954-0.609,3.879-1.503,5.618c-4.55,8.822-11.674,19.738-15.592,26.638
								c6.124-5.413,13.036-10.388,19.155-15.8c5.819,5.038-2.153,10.928-5.032,16.442c-11.94,22.88-24.381,46.946-36.32,69.826
								c0,0-9.065,17.25-16.989,29.675c-0.7-0.441-42.229-21.865-46.69-23.936c3.467-6.219,5.126-24.651,5.126-24.651
								C1299.417,736.677,1307.614,721.734,1312.591,673.158z"></path><path fill="#DB8F82" d="M1359.589 701.868c.519.342 2.521-1.783 4.471-4.746 1.949-2.964 3.112-5.641 2.591-5.981-.516-.339-2.514 1.782-4.467 4.746C1360.235 698.847 1359.072 701.525 1359.589 701.868zM1374.273 712.816c.521.342 2.52-1.783 4.47-4.746 1.952-2.961 3.115-5.64 2.597-5.981-.519-.339-2.521 1.786-4.47 4.749C1374.917 709.799 1373.757 712.478 1374.273 712.816zM1387.141 724.197c.518.342 2.521-1.783 4.469-4.746 1.952-2.961 3.113-5.642 2.595-5.981-.519-.342-2.518 1.785-4.469 4.746C1387.785 721.18 1386.622 723.855 1387.141 724.197zM1381.131 733.052c.337-.524-5.823-5.036-13.752-10.079-7.924-5.048-14.622-8.712-14.958-8.187-.33.521 5.825 5.032 13.754 10.079C1374.103 729.909 1380.801 733.576 1381.131 733.052zM1338.937 753.622c.128.083.535-.352 1.172-1.229.594-.896 1.619-2.135 2.298-3.98 1.7-3.476 2.863-9.187 1.284-15.105-1.483-5.93-4.991-10.325-7.647-13.085-2.752-2.738-4.867-3.941-5.043-3.692-.193.25 1.514 1.85 3.862 4.752 2.254 2.917 5.315 7.188 6.654 12.59 1.428 5.375.646 10.517-.592 13.971-.45 1.804-1.23 3.114-1.579 4.116C1338.964 752.945 1338.806 753.538 1338.937 753.622zM1310.882 768.432c-.119.1.24.715.992 1.749.757 1.036 1.874 2.531 3.514 4.135 3.161 3.321 8.151 7.387 14.347 10.693 12.438 6.767 24.118 7.71 24.107 7.079.126-.602-11.022-2.5-23.04-9.053C1318.639 776.694 1311.441 767.912 1310.882 768.432z"></path></g></g></g></g></g></g><g><g><path fill="#FFD600" d="M800.802,481.838c0.19,53.714,6.499,130.314,6.37,201.047l0.001,0.287c0,0,0,0,0.097,0
				c0.19-0.098,1.625-0.481,4.017-1.159c6.197-8.487,29.516-22.935,59.163-35.891c30.317-13.24,57.397-20.672,67.27-18.905
				c0.479-0.192,0.862-0.481,1.341-0.767c-0.003-0.097-0.098-0.19-0.291-0.286c-0.191-0.19-0.48-0.565-0.865-0.944
				C926.656,613.383,835.89,517.444,800.802,481.838z"></path><path fill="#E06020" d="M823.898,505.54c-1.113,2.697-3.246,5.509-7.491,7.363
				c-5.745,2.574-11.256,1.471-14.966,0.092c-0.353-11.051-0.605-21.515-0.606-31.153
				C806.888,487.962,814.851,496.203,823.898,505.54z" opacity=".2"></path><g><path fill="#C6501C" d="M802.703,499.655c0,0,5.368,3.833,8.753,0.656c3.387-3.181,0.337-8.824,0.337-8.824
					s5.933-1.155,6.375-7.103c0.45-5.944-7.395-4.706-7.395-4.706s1.018-4.737-2.096-5.785c-3.111-1.048-6.006,2.297-7.127,4.327
					c0,0-5.463-2.243-7.922,0.358c-2.462,2.603-2.166,7.869,0.082,10.2c0,0-5.247,7.573-0.133,11.479
					C798.688,504.159,802.703,499.655,802.703,499.655z"></path><path fill="#E06020" d="M796.804,495.793c0,0,3.567,4.23,6.957,2.306c3.391-1.922,2.073-7.172,2.073-7.172
					s5.039,0.252,6.611-4.54c1.572-4.786-5.029-5.353-5.029-5.353s1.787-3.677-0.519-5.169c-2.309-1.486-5.335,0.668-6.658,2.111
					c0,0-3.965-2.945-6.49-1.306c-2.522,1.636-3.357,6.016-2.01,8.382c0,0-5.793,5.152-2.449,9.389
					C792.636,498.679,796.804,495.793,796.804,495.793z"></path></g><path fill="#E06020" d="M837.072,519.279c-0.443,0.715-1.071,1.282-1.86,1.74c-2.74,1.603-6.263,0.645-7.875-2.071
				c-1.543-2.692-0.704-6.074,1.967-7.704C831.857,513.842,834.454,516.536,837.072,519.279z"></path><path fill="#E06020" d="M824.716,539.281c-3.063-5.254-9.842-7.047-15.138-4c-5.296,3.042-7.106,9.772-4.04,15.025
				c3.065,5.258,9.843,7.048,15.139,4.003C825.973,551.264,827.78,544.538,824.716,539.281z" opacity=".5"></path><path fill="#E06020" d="M827.636 568.012c-2.758 1.586-3.703 5.094-2.105 7.834 1.597 2.741 5.132 3.675 7.893 2.089 2.761-1.589 3.705-5.097 2.107-7.837C833.932 567.359 830.399 566.426 827.636 568.012zM811.429 601.294c-1.888 1.286-4.022 1.872-6.133 1.864-.276-7.36-.601-14.7-.915-21.871 3.876-.361 7.768 1.305 10.11 4.749C817.834 591.072 816.482 597.927 811.429 601.294z"></path><path fill="#E06020" d="M828.027 614.277c-2.761 1.589-3.705 5.098-2.105 7.835 1.597 2.741 5.132 3.675 7.892 2.089 2.762-1.589 3.706-5.094 2.105-7.835C834.322 613.625 830.789 612.691 828.027 614.277zM815.36 656.242c-2.613 1.49-5.604 1.867-8.345 1.089-.127-7.019-.325-14.065-.501-21.065 4.818-1.523 10.232.406 12.88 4.933C822.437 646.484 820.614 653.194 815.36 656.242z" opacity=".5"></path><path fill="#E06020" d="M875.311,559.307c-0.404,0.409-0.85,0.721-1.367,1.005c-2.826,1.408-6.334,0.212-7.703-2.613
				c-1.153-2.337-0.588-5.021,1.196-6.67C870.075,553.82,872.695,556.564,875.311,559.307z"></path><path fill="#E06020" d="M869.405,572.947c-3.063-5.253-9.842-7.044-15.138-4
				c-5.296,3.044-7.106,9.772-4.039,15.025c3.063,5.254,9.842,7.048,15.138,4.003C870.662,584.931,872.469,578.205,869.405,572.947z
				" opacity=".5"></path><path fill="#E06020" d="M870.132 601.181c-2.761 1.586-3.704 5.094-2.105 7.835 1.598 2.737 5.132 3.675 7.893 2.085 2.761-1.587 3.705-5.094 2.105-7.835C876.428 600.525 872.894 599.592 870.132 601.181zM916.433 602.543l.023.049c.509 4.187-1.526 8.437-5.425 10.72-5.255 3.049-12.065 1.265-15.107-4.019-3.09-5.262-1.268-11.974 4.036-15.042 2.344-1.314 4.924-1.685 7.371-1.305l.022.049C910.538 596.359 913.611 599.599 916.433 602.543zM874.585 631.045c-3.064-5.258-9.842-7.048-15.138-4.003-5.295 3.044-7.103 9.771-4.039 15.028 3.063 5.253 9.842 7.044 15.138 4C875.842 643.025 877.649 636.299 874.585 631.045z"></path><path fill="#E06020" d="M807.172,682.886c0.001,0.096,0.001,0.19,0.098,0.287c-0.002,0.284,0.095,0.567,0.193,0.757
				c0.387,0.666,1.154,1.233,2.305,1.512c-0.004-0.951,0.569-2.092,1.52-3.428c6.197-8.487,29.516-22.935,59.163-35.891
				c30.317-13.24,57.397-20.672,67.27-18.905c0.48,0.092,0.96,0.186,1.342,0.375c0.193-0.381,0.401-1.633-1.157-2.372
				c-6.433-3.872-35.906,3.851-69.762,18.534C833.333,658.917,807.148,675.945,807.172,682.886z"></path></g></g><g><g><g><path fill="#C6501C" d="M748.04,1086.722c0,0-21.858,32.682-21.471,43.967c1.159,33.746,32.598,48.603,39.867,50.865
					c7.267,2.263,13.17-3.693,16.079-2.717c2.909,0.98,11.424,8.079,15.175,2.275c3.751-5.808,25.935-8.734,31.763-16.845
					c5.828-8.111,26.448-37.85,25.282-55.871C853.66,1091.791,765.481,1071.515,748.04,1086.722z"></path><path fill="#FAB19E" d="M961.254,847.107c0,0-223.413,237.274-226.866,261.855c-5.455,38.865,26.328,89.034,83.364,55.768
					c28.616-16.692,192.125-285.091,192.125-285.091L961.254,847.107z"></path><path fill="#EBA090" d="M783.172 1043.601c0 0-17.534 28.048-15.824 32.27C769.059 1080.091 785.063 1046.437 783.172 1043.601zM786.934 1044.527c0 0-22.108 55.284-4.265 48C790.946 1089.15 786.934 1044.527 786.934 1044.527z"></path><path fill="#DB8F82" d="M961.789,809.399c0,0,28.13-41.768,36.039-41.741l5.887,8.236c0,0-10.456,26.169-10.983,28.579
					c-0.529,2.408,1.814,14.802-10.615,25.63C969.687,840.931,956.148,819.095,961.789,809.399z"></path><g><path fill="#FAB19E" d="M1052.897,816.334c-0.99-3.547-13.328-1.363-13.328-1.363s2.663-6.791-3.806-9.526
						c-3.797-1.608-9.417,0.898-9.417,0.898s2.432-8.452-4.507-12.404c-6.935-3.945-12.879,2.785-12.879,2.785
						s1.024-12.821-11.29-11.799c-8.569,0.711-11.355,2.687-14.047,8.002c-7.504,3.938-20.992,13.469-23.917,19.104
						c-5.074,9.759-3.576,24.647,1.548,35.077c-6.298,9.657-15.011,24.742-15.011,24.742l48.326,28.804l15.308-21.015l34.472-37.544
						C1044.348,842.094,1053.465,824.504,1052.897,816.334z"></path></g><g><path fill="#FFD600" d="M1145.932,747.652c-2.517-14.592-14.745-25.07-28.142-26.212c-13.396-1.145-33.811,4.327-34.997,24.458
						c-1.185,20.132,8.99,26.157,19.624,26.669c10.633,0.506,22.692-4.996,25.253-11.178c2.563-6.182,2.939-11.459-1.713-16.222
						c-4.653-4.759-9.451-6.598-17.062-3.958c-7.614,2.639-8.869,10.599-7.475,12.943c1.393,2.346,6.102,2.806,5.998-1.008
						c-0.104-3.811,3.934-7.893,9.542-6.058c5.609,1.836,8.178,11.316-0.395,16.069c-8.578,4.754-24.827,0.79-25.771-8.701
						c-1.071-10.726,2.008-17.697,14.8-22.965c12.79-5.264,33.703,5.085,32.409,20.591c-1.29,15.507-9.208,21.555-36.771,26.578
						c-23.708,4.324-102.815,1.915-141.165,0.43c0.061,0.636,0.085,1.273,0.116,1.901c0.067,1.4,0.083,2.799,0.143,4.197
						c0.063,1.383,0.247,2.72,0.467,4.082c0.023,0.136,0.042,0.274,0.061,0.411c28.022,1.171,70.386,2.274,85.436,1.783
						c21.012-0.687,64.302-2.781,80.36-9.619C1141.705,775.428,1148.448,762.244,1145.932,747.652z"></path><path fill="#C9A923" d="M1093.736,739.808c0.466-0.652,0.992-1.282,1.583-1.891l0,0c-2.226-2.396-3.99-5.204-5.202-8.239
						c-0.326,0.304-0.643,0.617-0.954,0.941c-0.006,0.006-0.011,0.013-0.017,0.018c-0.304,0.321-0.604,0.651-0.893,0.992l0,0
						C1089.604,734.632,1091.463,737.404,1093.736,739.808z M1135.672,742.205c0.24,0.405,0.462,0.819,0.667,1.239
						c0.003,0.003,0.003,0.003,0.003,0.003c0.205,0.421,0.396,0.851,0.569,1.284l0,0c2.95,0.14,5.876,0.607,8.717,1.397v-0.003
						c-0.107-0.464-0.22-0.929-0.344-1.385c0-0.003-0.004-0.009-0.004-0.011c-0.124-0.455-0.257-0.905-0.401-1.351l0,0
						C1141.868,742.643,1138.776,742.244,1135.672,742.205L1135.672,742.205z M1092.965,759.39c-0.107-0.126-0.212-0.25-0.308-0.378
						c-0.046-0.064-0.09-0.124-0.135-0.183c-0.225-0.306-0.432-0.62-0.619-0.945c-2.491,0.854-5.064,1.449-7.676,1.783l0,0
						c0.281,0.843,0.599,1.636,0.95,2.38l0,0c2.828-0.409,5.612-1.109,8.298-2.089c-0.116-0.119-0.225-0.245-0.335-0.366
						C1093.081,759.523,1093.021,759.458,1092.965,759.39z M1114.559,764.055c-0.766,0.279-1.572,0.509-2.404,0.681
						c0.359,2.166,0.716,4.331,1.074,6.497c0.812-0.231,1.612-0.486,2.392-0.769
						C1115.266,768.328,1114.914,766.191,1114.559,764.055z M1128.498,769.97c-0.369,0.245-0.753,0.483-1.147,0.717
						c-0.003,0-0.003,0-0.003,0c-0.396,0.236-0.806,0.464-1.229,0.692l0,0c0.276,3.548,0.291,7.116,0.023,10.671
						c0.17-0.07,0.344-0.138,0.508-0.208c0.372-0.159,0.735-0.327,1.099-0.492c0.317-0.148,0.63-0.3,0.941-0.452
						C1128.901,777.261,1128.839,773.609,1128.498,769.97L1128.498,769.97z M1059.76,790.923c0.936-0.044,1.883-0.089,2.844-0.14
						c1.598-3.208,3.047-6.491,4.339-9.833c-0.884,0.016-1.776,0.03-2.678,0.047C1062.932,784.377,1061.424,787.688,1059.76,790.923
						z M1100.208,778.832c-0.088,0.015-0.175,0.03-0.262,0.044c-0.356,0.057-0.716,0.113-1.092,0.167
						c-1.335,3.203-2.881,6.313-4.624,9.313c1.027-0.112,2.044-0.229,3.056-0.349c0,0,0,0,0.003,0
						c1.68-3.051,3.166-6.206,4.444-9.444c-0.169,0.032-0.328,0.064-0.5,0.093C1100.904,778.717,1100.56,778.776,1100.208,778.832z
						 M1118.542,747.854c0.698,0.459,1.316,1.047,1.834,1.725c1.923-1.457,3.981-2.732,6.149-3.785
						c-0.182-0.207-0.366-0.418-0.567-0.628c-0.421-0.427-0.843-0.834-1.266-1.214
						C1122.526,745.06,1120.469,746.365,1118.542,747.854z M1107.419,753.142c-0.021-0.79,0.138-1.591,0.452-2.349
						c-1.821-1.497-3.526-3.125-5.1-4.873c-0.506,0.779-0.9,1.583-1.188,2.375c1.797,1.917,3.745,3.693,5.823,5.302
						C1107.418,753.453,1107.424,753.303,1107.419,753.142z M1123.928,722.632c-2.508,2.389-4.809,4.998-6.864,7.792
						c0.45,0.069,0.9,0.15,1.349,0.246c0,0,0.003,0,0.003,0.003c0.448,0.093,0.894,0.198,1.34,0.31
						c2.045-2.661,4.319-5.142,6.804-7.409C1125.696,723.22,1124.818,722.906,1123.928,722.632z"></path><g><path fill="#C9A923" d="M1106.267 722.052c-.006.003-.009.003-.015.003-.448.087-.895.178-1.343.278 0 0 0 0-.003.001-.768 3.253-1.143 6.595-1.109 9.94.002-.004.002-.004.002-.004.277-.126.557-.253.842-.378.303-.133.611-.263.929-.395.006-.003.015-.006.023-.009.228-.093.46-.18.694-.264.062-3.182.505-6.336 1.318-9.403C1107.161 721.892 1106.713 721.969 1106.267 722.052zM1130.129 736.048c3.095-1.205 6.328-2.017 9.623-2.413l0 0c-.294-.379-.594-.753-.903-1.117-.012-.011-.021-.025-.031-.037-.314-.37-.634-.733-.962-1.085l0 0c-3.497.555-6.917 1.55-10.161 2.962l0 0C1128.54 734.88 1129.354 735.446 1130.129 736.048zM1116.424 775.186c-.86.255-1.759.506-2.684.752-.831 3.408-1.814 6.779-2.939 10.101.465-.084.925-.167 1.382-.254.017-.003.031-.006.049-.01.457-.086.907-.172 1.353-.26.003 0 .003 0 .006 0 1.102-3.403 2.057-6.85 2.861-10.335C1116.442 775.182 1116.433 775.182 1116.424 775.186zM1049.766 781.108c-1.402 3.556-3.018 7.029-4.836 10.391 0 0 .003 0 .006 0 .193-.003.383-.01.57-.014.26-.009.521-.015.769-.024.003 0 .009 0 .015 0 .486-.015.986-.032 1.495-.049 1.746-3.343 3.297-6.787 4.648-10.309-.003 0-.003 0-.003 0C1051.546 781.104 1050.658 781.109 1049.766 781.108zM1090.607 750.091c.02-.859.079-1.689.183-2.495l0 0c-2.742.107-5.48-.386-8.007-1.431-.004.004-.003.006-.003.009-.048.909-.07 1.783-.072 2.635C1085.231 749.721 1087.921 750.161 1090.607 750.091L1090.607 750.091zM1137.729 754.521c-.068.485-.145.962-.233 1.428-.001.018-.003.038-.006.056-.089.474-.184.94-.291 1.397l0 0c2.56 2.473 4.832 5.235 6.762 8.223l0 0c.41-.927.764-1.876 1.072-2.845C1142.918 759.769 1140.464 756.997 1137.729 754.521zM1080.651 780.525c-1.258 3.136-2.692 6.201-4.322 9.162-.049.09-.102.179-.152.272.97-.072 1.943-.141 2.921-.216h.003c1.608-3.03 3.042-6.154 4.281-9.351-.003 0-.006.001-.006.001C1082.484 780.438 1081.578 780.485 1080.651 780.525zM1108.896 741.208c-.076.026-.147.055-.222.084.189 2.262.697 4.49 1.5 6.617.658-.467 1.418-.831 2.259-1.048-.75-2.029-1.202-4.156-1.329-6.312C1110.395 740.725 1109.659 740.94 1108.896 741.208zM1121.413 758.105c2.222.856 4.285 2.143 6.036 3.76.08-.158.156-.318.221-.476.272-.659.513-1.3.732-1.937-1.882-1.592-4.029-2.849-6.35-3.715C1121.958 756.528 1121.75 757.326 1121.413 758.105zM1101.018 772.46c1.22-2.42 2.113-4.995 2.649-7.649-.822-.141-1.633-.327-2.426-.548-.543 2.73-1.497 5.369-2.831 7.822C1099.269 772.255 1100.139 772.377 1101.018 772.46z"></path></g><path fill="#FFD600" d="M961.965,791.284c-0.064-4.217-0.129-8.436-0.195-12.656c-0.005-0.404-0.332-0.624-0.704-0.49
						c-0.107,0.035-0.218,0.075-0.324,0.114c-0.083-0.038-0.172-0.059-0.282-0.037c-6.864,1.328-13.793,2.228-20.749,2.686
						c-0.322,0.024-0.435,0.282-0.389,0.533c-0.049,0.071-0.085,0.152-0.087,0.263c-0.03,2.584-0.064,5.161-0.097,7.742
						c-0.002,0.279,0.17,0.518,0.455,0.544c7.279,0.59,14.558,1.183,21.836,1.776C961.674,791.774,961.969,791.557,961.965,791.284z
						"></path><path fill="#E06020" d="M959.307,791.626c0,0-1.621-14.026,0.159-14.524c1.783-0.498,85.772,0.246,86.755,2.189
						c0.984,1.941-0.33,13.391-1.137,14.206c-0.805,0.816-81.798-0.838-83.498-0.583
						C959.881,793.166,959.307,791.626,959.307,791.626z"></path></g><g><path fill="#FAB19E" d="M1030.53,840.698c-5.226-7.422,0.237-12.984,0.237-12.984s-7.93,11.834-14.984,5.401
						c-7.36-6.712,3.099-18.992,3.099-18.992s-12.814,13.073-19.902,8.791c-5.605-3.385,3.389-21.327,3.389-21.327
						s-10.389,12.084-17.508,7.712c-7.689-4.73-1.237-16.373-1.237-16.373s22.231-29.527,31.547-33.666
						c2.819-1.255,12.129,2.939,11.821,6.197c-0.27,2.83-13.554,22.772-13.554,22.772s20.31-28.526,23.513-29.038
						c2.023-0.332,9.526,5.79,9.888,7.854c0.515,2.93-17.352,31.45-17.352,31.45s7.732-7.24,10.719-6.892
						c1.675,0.193,7.768,5.734,8.274,7.14c0.999,2.802-4.899,10.757-4.899,10.757s5.328-2.788,7.655-1.563
						c1.392,0.737,2.955,1.879,4.387,3.657C1059.88,816.867,1040.681,855.107,1030.53,840.698z"></path><g><g><path fill="#DB8F82" d="M1003.678,801.928c1.148,0.792,4.78-2.487,8.107-7.328c3.325-4.836,5.087-9.396,3.938-10.189
								c-1.149-0.788-4.779,2.491-8.107,7.329C1004.29,796.578,1002.526,801.137,1003.678,801.928z"></path></g><g><path fill="#DB8F82" d="M1020.956,810.717c1.154,0.786,4.039-1.446,6.444-4.978c2.401-3.536,3.418-7.038,2.263-7.823
								c-1.155-0.785-4.037,1.446-6.441,4.979C1020.819,806.43,1019.804,809.931,1020.956,810.717z"></path></g><g><path fill="#DB8F82" d="M1034.186,822.914c1.143,0.798,4.366-1.844,7.191-5.898c2.827-4.056,4.195-7.989,3.048-8.787
								c-1.143-0.804-4.365,1.838-7.192,5.898C1034.405,818.181,1033.04,822.113,1034.186,822.914z"></path></g></g></g></g><g><path fill="#DB8F82" d="M964.129,849.396c-0.52,0.372,0.631,3.157,3.48,7.049c2.79,3.923,7.579,8.784,13.906,12.741
					c6.363,3.907,12.916,6.031,17.757,6.591c4.845,0.646,7.918-0.041,7.892-0.728c-0.008-0.706-2.8-1.294-7.103-2.761
					c-4.314-1.381-10.047-3.819-15.88-7.396C972.495,857.665,965.438,848.405,964.129,849.396z"></path></g></g></g></g><g><g><g><g><g><path fill="#FAB19E" d="M1405.558,887.683c0.643-4.054,14.585-3.219,14.585-3.219s-3.813-7.177,3.001-11.038
						c3.998-2.265,10.541-0.207,10.541-0.207s-3.775-9.05,3.403-14.311c7.177-5.261,14.622,1.432,14.622,1.432
						s-2.778-14.067,10.992-14.512c9.581-0.31,12.919,1.524,16.579,7.063c8.815,3.397,24.971,12.229,28.933,18.092
						c6.869,10.161,7.116,26.84,2.775,39.045c8.213,9.892,19.791,25.482,19.791,25.482l-49.834,38.084l-19.64-21.312l-42.982-37.169
						C1418.325,915.115,1405.976,896.803,1405.558,887.683z"></path></g><g><path fill="#B9C1E1" d="M1442.655,912.398c6.552,5.595,10.741,11.452,9.351,13.078l-25.83,30.252
						c-1.39,1.625-7.829-1.593-14.383-7.19c-6.554-5.598-10.741-11.452-9.352-13.079l25.832-30.25
						C1429.66,903.583,1436.1,906.801,1442.655,912.398z"></path><path fill="#929ED3" d="M1428.287,905.211l-25.833,30.239c-0.754,0.829,0.111,2.964,2.085,5.535
						c4.144-3.133,10.604-7.082,15.781-6.469c5.085,0.588,12.782,4.305,17.927,7.11l13.747-16.15
						c1.393-1.596-2.756-7.471-9.321-13.095C1436.141,906.815,1429.646,903.558,1428.287,905.211z" opacity=".5"></path><path fill="#DFE4EF" d="M1523.129,794.42c0,0,7.777-32.104,6.846-41.191c-0.929-9.086,8.6,9.874,9.741,9.772
						c1.14-0.103-4.473-21.362,0.15-21.621c4.62-0.258,10.316,21.981,1.621,32.48c-1.72,2.075,27.375-14.75,24.636-7.477
						c-2.735,7.273-15.373,13.76-9.624,15.49c10.666,3.207,41.295-7.921,34.647-3.218c-6.647,4.706-23.576,6.899-21.48,9.446
						c2.096,2.548,29.084,5.212,15.66,7.238c-13.424,2.027-39.136,21.655-49.234,21.162
						C1525.994,816.007,1518.005,806.833,1523.129,794.42z"></path><path fill="#E06020" d="M1540.385,797.951c8.467,7.23,13.453,15.291,11.136,18.001l-104.078,121.88
						c-0.011,0.013-0.01,0.035-0.02,0.049c-2.327,2.723-11.102-0.95-19.562-8.173l-0.576-0.492
						c-4.847-4.25-8.49-8.744-10.107-12.232c-1.107-2.325-1.314-4.211-0.426-5.272l-0.015-0.013l104.124-121.93
						C1523.178,787.059,1531.919,790.722,1540.385,797.951z"></path><path fill="#D3581E" d="M1520.872,789.789l-104.161,121.907l0.034,0.058c-0.896,0.991-0.706,2.9,0.442,5.256
						c1.646,3.462,5.221,7.965,10.098,12.172l0.55,0.534c8.501,7.204,17.28,10.908,19.558,8.171
						c0.058-0.033,0.058-0.033,0.058-0.033l1.056-1.243c-9.541-5.664-19.529-13.549-18.182-21.178
						c2.115-12.275,77.878-99.718,99.568-124.572C1525.605,788.719,1522.21,788.227,1520.872,789.789z"></path><g><polygon fill="#FFD600" points="1534.879 826.516 1528.819 831.535 1536.49 833.323 1536.562 833.496 1547.946 820.166 1548.035 819.801 1540.806 822.881 1534.142 818.683"></polygon><path fill="#E4C012" d="M1416.92,914.105l0.258,2.88c1.619,3.487,5.26,7.982,10.107,12.232l6.744-0.502l-5.185-5.868
							l0.187-0.672l1.637-6.525l0.114-0.456l-0.462,0.217l-6.159,2.605l-0.636,0.291L1416.92,914.105z"></path><polygon fill="#E4C012" points="1490.865 862.187 1483.636 865.292 1476.981 861.096 1477.698 868.929 1471.651 873.963 1479.325 875.702 1482.243 883.006 1486.266 876.247 1494.116 875.729 1488.93 869.813"></polygon><polygon fill="#FFD600" points="1492.603 822.884 1485.189 831.565 1485.442 831.725 1485.88 839.579 1491.843 834.479 1499.447 836.538 1496.454 829.273 1500.746 822.691 1492.934 823.276"></polygon><polygon fill="#FFD600" points="1452.043 910.413 1458.764 914.545 1459.141 922.403 1464.55 917.823 1470.625 910.711 1474.011 905.513 1466.196 906.1 1461.26 899.943 1459.414 907.62"></polygon><polygon fill="#E4C012" points="1519.42 812.923 1515.481 815.774 1510.902 814.146 1512.395 818.773 1509.433 822.627 1514.292 822.635 1517.044 826.645 1518.552 822.023 1523.217 820.647 1519.288 817.783"></polygon><polygon fill="#FFD600" points="1503.645 856.081 1505.178 860.713 1502.195 864.593 1507.035 864.571 1508.382 866.497 1513.362 860.666 1512.062 859.721 1512.157 854.872 1508.229 857.724"></polygon><polygon fill="#FFD600" points="1456.937 875.632 1453 878.482 1448.418 876.854 1449.913 881.481 1446.948 885.333 1451.81 885.343 1454.56 889.353 1456.071 884.731 1460.734 883.355 1456.805 880.491"></polygon></g></g><g><path fill="#FAB19E" d="M1433.448,911.799c6.814-7.478-1.924-14.348-1.924-14.348s10.298,12.091,17.285,4.066
						c7.293-8.376-5.859-20.637-5.859-20.637s15.863,12.838,23.162,7.19c5.777-4.471-6.481-23.188-6.481-23.188
						s13.053,12.055,20.375,6.299c7.913-6.221-0.725-18.289-0.725-18.289s-12.3-15.741-23.148-19.133
						c-3.282-1.025-13.201,8.72-12.442,12.292c0.658,3.098,1.975,5.455,1.975,5.455s-4.123-2.557-7.736-2.718
						c-2.286-0.103-9.811,7.636-9.947,9.966c-0.194,3.312,1.22,6.173,1.22,6.173s-3.137-1.931-6.398-1.165
						c-1.831,0.43-7.87,7.343-8.247,8.968c-0.752,3.23,0.447,6.187,0.447,6.187s-5.229,0.86-8.856,6.599
						C1402.112,891.907,1427.914,917.872,1433.448,911.799z"></path><g><path fill="#DB8F82" d="M1468.885 876.477c-.486.425-4.369-3.229-8.671-8.161-4.303-4.931-7.397-9.272-6.911-9.696.486-.424 4.368 3.229 8.671 8.161C1466.278 871.712 1469.371 876.053 1468.885 876.477zM1449.001 887.097c-.488.422-3.41-2.161-6.525-5.767-3.114-3.606-5.243-6.871-4.755-7.294.488-.422 3.409 2.161 6.525 5.767C1447.36 883.41 1449.489 886.675 1449.001 887.097zM1436.753 903.052c-.484.428-3.835-2.573-7.486-6.703-3.651-4.13-6.219-7.823-5.736-8.25.483-.428 3.835 2.574 7.485 6.703S1437.236 902.624 1436.753 903.052z"></path></g><path fill="#DB8F82" d="M1472.325,845.876c0.057-0.072,1.04,0.536,2.635,1.965c1.594,1.42,3.804,3.706,5.868,7.139
						c1.04,1.706,2.037,3.708,2.713,6.056c0.646,2.31,1.151,5.118-0.09,8.02l-0.622,1.023c-0.262,0.307-0.567,0.593-0.86,0.886
						c-0.597,0.488-1.19,0.876-1.813,1.31c-1.292,0.764-2.679,1.503-4.241,1.929c-1.549,0.439-3.224,0.649-4.924,0.517
						c-0.427-0.018-0.85-0.085-1.275-0.156c-0.214-0.028-0.426-0.071-0.636-0.126l-0.337-0.078c-0.081-0.019-0.15-0.039-0.205-0.064
						c-0.057-0.038,0.051,0.08,0.059,0.106c0.052,0.096,0.008-0.019,0.124,0.237c0.55,1.192,0.986,2.466,1.27,3.807
						c0.617,2.651,0.441,5.745-1.003,8.391c-0.335,0.665-0.824,1.236-1.244,1.854c-0.532,0.526-0.992,1.078-1.603,1.575
						c-1.298,1.099-2.987,1.468-4.527,1.537c-3.132,0.023-5.942-1.046-8.597-2.282c-0.542-0.244-1.056-0.532-1.584-0.795
						c-0.436-0.236-1.283-0.712-1.049-0.581l-0.011-0.011l-0.001,0.004l0.001,0.007l0.216,0.552
						c0.517,1.399,0.939,2.828,1.242,4.286c0.548,2.847,0.705,6.221-1.305,8.876c-1.987,2.502-5.12,3.526-7.897,3.398
						c-1.396-0.047-2.73-0.306-3.989-0.686c-0.316-0.092-0.628-0.192-0.932-0.307l-0.423-0.155l-0.095-0.042l-0.241-0.12
						c0.02,0.091,0.028,0.165,0.033,0.304c0.066,0.738,0.039,1.476-0.026,2.202c-0.16,1.451-0.606,2.866-1.348,4.075
						c-0.37,0.603-0.8,1.159-1.284,1.642c-0.442,0.512-1.192,1.007-1.901,1.204c-1.482,0.402-2.83,0.078-3.967-0.317
						c-4.491-1.827-7.406-4.644-9.877-6.801c-2.415-2.234-4.164-4.132-5.32-5.457c-1.152-1.328-1.698-2.098-1.62-2.169
						c0.175-0.166,2.749,2.566,7.711,6.744c2.499,1.986,5.609,4.651,9.634,6.128c0.991,0.325,2.063,0.476,2.923,0.205
						c0.794-0.208,1.523-1.165,2.121-2.119c0.565-0.977,0.901-2.114,1.011-3.319c0.038-0.605,0.052-1.223-0.017-1.847
						c-0.084-1.154-0.621-2.723-1.085-4.255c1.007,0.52,2.252,1.252,3.25,1.68l0.76,0.32l0.445,0.157
						c0.274,0.099,0.552,0.183,0.833,0.26c1.122,0.319,2.288,0.522,3.453,0.545c2.303,0.088,4.688-0.833,6.083-2.622
						c1.359-1.755,1.361-4.485,0.826-7.07c-0.282-1.309-0.674-2.624-1.162-3.927l-0.596-1.464l-0.991-2.086
						c-0.842-1.561-1.687-3.13-2.536-4.704c2.044,1.404,4.42,3.212,6.292,4.291c1.224,0.763,1.372,0.788,1.939,1.116
						c0.497,0.246,0.984,0.519,1.49,0.747c2.472,1.169,5.091,2.097,7.534,2.071c1.188-0.061,2.323-0.312,3.135-1.006
						c0.442-0.353,0.862-0.85,1.298-1.259c0.327-0.5,0.737-0.951,1.001-1.477c1.14-2.071,1.344-4.521,0.835-6.841
						c-0.232-1.161-0.603-2.298-1.085-3.377c-0.116-0.334-0.526-1.04-0.791-1.542c-0.251-0.521-0.665-1.14-1.09-1.762
						c-0.805-1.199-1.605-2.391-2.398-3.574c1.219,0.752,2.432,1.501,3.639,2.246c1.159,0.771,1.823,0.948,2.618,1.289
						c0.185,0.064,0.37,0.122,0.567,0.166l0.267,0.068c0.176,0.05,0.355,0.088,0.536,0.115c0.359,0.064,0.717,0.13,1.079,0.15
						c1.441,0.135,2.872-0.016,4.224-0.368c1.361-0.339,2.605-0.972,3.786-1.629c0.556-0.37,1.156-0.749,1.642-1.127l0.599-0.579
						l0.454-0.711c0.989-2.101,0.743-4.677,0.187-6.828c-0.548-2.195-1.417-4.144-2.337-5.823c-1.824-3.386-3.823-5.751-5.237-7.293
						C1473.067,846.769,1472.232,845.986,1472.325,845.876z"></path></g></g><path fill="#DB8F82" d="M1508.1,912.936c0.226,0.121-1.047,3.138-3.903,7.578c-2.79,4.469-7.502,10.206-13.844,15.273
				c-6.385,5.013-13.095,8.273-18.182,9.761c-5.075,1.581-8.428,1.617-8.448,1.303c-0.04-0.328,3.118-0.935,7.9-2.862
				c4.802-1.838,11.118-5.201,17.279-10.033C1501.266,924.151,1507.333,912.404,1508.1,912.936z"></path><g><path fill="#FAB19E" d="M1452.476,889.297c2.658-5.619,22.688-36.622,26.534-36.871c3.846-0.249,24.619,11.009,29.164,15.383
					c4.545,4.374,12.705,27.027,2.816,42.22c0,0-20.446,8.25-26.393-7.161c-5.948-15.411-3.651-25.462-3.651-25.462
					s-18.408,21.243-20.947,20.269C1457.46,896.7,1452.476,889.297,1452.476,889.297z"></path><path fill="#DB8F82" d="M1498.413,913.612c0.003,0.119-1.2,0.258-3.343-0.219c-2.083-0.5-5.313-1.648-8.055-4.777
					c-1.361-1.534-2.508-3.55-3.313-5.832c-0.766-2.236-1.555-4.662-2.187-7.297c-0.642-2.632-1.194-5.457-1.536-8.456
					c-0.182-1.498-0.284-3.042-0.336-4.623c-0.008-0.589-0.017-1.19-0.026-1.801c0,0-0.052,0.068-0.068,0.088l-0.039,0.052
					l-0.752,0.853c-1.101,1.223-2.217,2.465-3.349,3.723c-2.286,2.499-4.662,5.035-7.192,7.54c-1.166,1.149-2.341,2.272-3.576,3.341
					c-0.617,0.536-1.251,1.056-1.944,1.549c-0.345,0.248-0.714,0.486-1.14,0.711c-0.344,0.21-1.254,0.486-1.973,0.289
					c-1.424-0.682-1.952-1.318-2.753-2.035c-0.716-0.703-1.369-1.426-2.003-2.152c-0.609-0.738-1.212-1.47-1.811-2.196l-0.857-1.105
					l-1.116-1.5c-0.464-0.339,0.005-0.749,0.153-1.128l0.454-0.846c0.22-0.429,0.468-0.791,0.699-1.186
					c0.479-0.761,0.954-1.512,1.423-2.256c0.972-1.447,1.924-2.862,2.85-4.24c3.762-5.453,7.266-10.197,10.23-14.134
					c5.922-7.872,9.857-12.402,10.126-12.171c0.108,0.1-0.749,1.306-2.285,3.551c-1.632,2.354-3.86,5.569-6.598,9.518
					c-2.79,4.047-6.149,8.885-9.777,14.379c-0.893,1.381-1.808,2.797-2.744,4.247c-0.447,0.731-0.898,1.471-1.353,2.219
					c-0.436,0.712-0.993,1.767-0.825,1.507c1.489,1.89,4.581,5.94,6.861,7.291c-0.217,0.107,0.525-0.217,1.096-0.658
					c0.586-0.422,1.179-0.907,1.761-1.416c1.167-1.018,2.317-2.116,3.459-3.243c2.485-2.459,4.852-4.97,7.135-7.437
					c1.134-1.242,2.253-2.468,3.355-3.676c1.874-2.121,3.72-4.211,5.535-6.267c-0.295,1.982-0.627,3.991-0.728,5.526
					c-0.114,1.924-0.068,2.126-0.075,3.021c0.028,1.512,0.1,2.999,0.249,4.45c0.277,2.902,0.75,5.66,1.308,8.242
					c1.234,5.146,2.299,9.805,4.72,12.668c2.341,2.967,5.259,4.259,7.199,4.955C1497.262,913.358,1498.422,913.473,1498.413,913.612
					z"></path></g></g><path fill="#E06020" d="M1909.936,888.058c0,0-30.832,4.554-43.008,15.034c-4.312,3.711-165.036,178.355-170.745,176.951
			c-5.711-1.405-174.937-162.903-174.937-162.903l-58.768,50.021c0,0,169.42,252.882,236.516,278.272
			c67.094,25.39,195.417-159.93,195.417-159.93S2004.293,928.61,1909.936,888.058z"></path><path fill="#C6501C" d="M1699.828,1087.075c2.168,0.887,18.66,29.271,15.367,31.1c-3.293,1.829-15.367-21.588-15.367-21.588
			s2.195,32.198-5.489,26.344C1686.656,1117.077,1691.778,1083.782,1699.828,1087.075z"></path><path fill="#D3581E" d="M1894.421,1085.522c0,0-128.335,185.317-195.398,159.883c-67.128-25.368-236.572-278.267-236.572-278.267
			l22.44-19.058c35.711,52.817,143.362,207.171,195.788,230.588c63.42,28.295,266.104-228.702,266.104-228.702l-12.554-44.426
			C1981.193,961.609,1894.421,1085.522,1894.421,1085.522z"></path></g><g><g><polygon fill="#FAB19E" points="1877.621 2447.094 1842.433 2541.073 1787.94 2522.823 1811.537 2424.097"></polygon><g><path fill="#28264A" d="M1841.29,2582.022c0,0-3.359,14.534-12.124,16.59c-8.763,2.056-150.806-35.484-187.119-67.145
					l3.188-16.547C1645.236,2514.921,1837.417,2547.097,1841.29,2582.022z"></path><path fill="#E06020" d="M1861.672,2497.491c-0.325-0.521-50.547-13.986-53.398-11.086c-2.85,2.902-9.818,7.811-11.728,6.646
					c-1.911-1.163,0.164-25.122-3.417-24.482c-3.582,0.641-18.301,31.698-20.517,31.768c-2.216,0.071-84.172,8.917-84.172,8.917
					s-18.66-16.532-32.935-8.219c-14.275,8.314-12.813,20.97-12.813,20.97s132.041,67.897,196.033,62.888
					C1853.667,2583.722,1868.232,2508.036,1861.672,2497.491z"></path><path fill="#C6501C" d="M1821.362,2537.827c-2.395,7.858-10.705,12.288-18.564,9.894c-7.858-2.394-12.288-10.705-9.894-18.563
					c2.394-7.859,10.705-12.289,18.563-9.895C1819.326,2521.658,1823.756,2529.969,1821.362,2537.827z"></path><path fill="#C6501C" d="M1838.749,2584.887c-64.016,5.005-196.05-62.883-196.05-62.883s-0.599-5.02,2.529-10.839
					c34.792,29.108,162.639,64.379,182.593,53.497c18.106-9.898,24.257-51.684,26.412-69.343c4.462,1.23,7.372,2.052,7.454,2.206
					C1868.225,2508.029,1853.686,2583.697,1838.749,2584.887z"></path><path fill="#28264A" d="M1765.865 2495.517c0 0 3.991 12.813 2.74 14.939-1.25 2.126-6.708 1.091-6.708 1.091s-1.644-16.163-.883-16.36C1761.778 2494.989 1765.064 2492.786 1765.865 2495.517zM1739.317 2498.221c0 0 3.991 12.813 2.741 14.939-1.25 2.126-6.707 1.09-6.707 1.09s-1.646-16.163-.884-16.36C1735.23 2497.692 1738.515 2495.49 1739.317 2498.221zM1718.551 2499.697c0 0 3.991 12.813 2.74 14.939-1.25 2.125-6.706 1.09-6.706 1.09s-1.645-16.163-.883-16.36C1714.464 2499.169 1717.749 2496.965 1718.551 2499.697z"></path></g></g><g><polygon fill="#FAB19E" points="2257.126 2311.615 2314.269 2394.107 2268.205 2428.469 2200.555 2352.792"></polygon><g><path fill="#28264A" d="M2350.403,2411.473c0,0,10.831,10.258,8.165,18.855c-2.665,8.597-106.974,112.063-152.665,127.341
					l-12.654-11.13C2193.249,2546.539,2318.326,2397.123,2350.403,2411.473z"></path><path fill="#E06020" d="M2287.836,2351.085c-0.613,0.017-37.659,36.502-36.602,40.428c1.058,3.928,1.762,12.422-0.209,13.48
					c-1.972,1.058-21.579-12.865-22.842-9.454c-1.26,3.413,18.064,31.834,17.001,33.78c-1.061,1.946-34.941,77.094-34.941,77.094
					s-23.705,7.717-23.767,24.237c-0.061,16.519,11.592,21.668,11.592,21.668s125.419-79.467,153.51-137.182
					C2358.137,2401.662,2300.252,2350.771,2287.836,2351.085z"></path><path fill="#C6501C" d="M2302.201,2406.273c5.564,6.044,5.174,15.453-0.87,21.017c-6.044,5.564-15.454,5.174-21.018-0.87
					c-5.563-6.044-5.174-15.454,0.87-21.017C2287.227,2399.839,2296.638,2400.229,2302.201,2406.273z"></path><path fill="#C6501C" d="M2351.586,2415.114c-28.106,57.733-153.514,137.199-153.514,137.199s-4.631-2.025-8.065-7.669
					c42.719-15.258,137.881-107.632,138.603-130.349c0.635-20.625-32.28-47.092-46.415-57.894c3.32-3.225,5.503-5.317,5.677-5.31
					C2300.242,2350.772,2358.125,2401.632,2351.586,2415.114z"></path><path fill="#28264A" d="M2237.612 2432.697c0 0 13.069 3.048 14.269 5.202 1.2 2.155-2.457 6.336-2.457 6.336s-14.769-6.767-14.553-7.525C2235.087 2435.954 2234.852 2432.005 2237.612 2432.697zM2226.499 2456.958c0 0 13.069 3.048 14.269 5.203 1.199 2.155-2.457 6.335-2.457 6.335s-14.77-6.767-14.554-7.524C2223.973 2460.214 2223.737 2456.266 2226.499 2456.958zM2217.254 2475.611c0 0 13.069 3.049 14.269 5.203 1.2 2.155-2.457 6.336-2.457 6.336s-14.77-6.767-14.553-7.525C2214.728 2478.867 2214.492 2474.919 2217.254 2475.611z"></path></g></g><path fill="#3A3A60" d="M1827.633,1390.16c3.298-10.146,19.924-13.606,19.924-13.606c126.15-11.455,220.38-26.647,224.163,99.965
			c3.569,119.453-66.702,409.282-67.014,410.861c64.662,159.625,207.85,344.761,268.316,431.872
			c-1.799,1.921-44.331,56.483-75.142,56.223c-33.661-29.576-352.622-381.542-355.507-386.931c-0.015-0.027-0.032-0.054-0.047-0.079
			c0.001-0.002,0.002-0.002,0.004-0.002C1832.625,1970.307,1774.286,1554.213,1827.633,1390.16z"></path><path fill="#313055" d="M1855.454,2002.846c59.085,63.209,312.737,346.518,342.462,372.643
			c12.503-3.934-136.95-168.846-122.784-220.693c7.425-26.97,17.919-56.344,27.748-81.307
			c-37.058-59.108-72.492-122.716-98.144-186.144c0.246-1.568,70.534-291.406,66.993-410.782
			c-3.816-126.701-98.065-111.507-224.168-100.012c0,0-16.609,3.437-19.944,13.601c-8.844,27.292-14.652,61.463-18.061,99.671
			c23.202-5.385,47.338-0.41,47.338-0.41s48.275,100.828,48.795,106.583C1906.175,1601.364,1877.322,1943.147,1855.454,2002.846z"></path><path fill="#3A3A60" d="M1895.065,1371.482c-2.506,104.231,54.016,195.58,63.402,208.213
			c-44.487,183.629-144.742,786.107-166.447,868.468c51.424,55.468,82.363,24.851,84.887,25.601
			c152.156-277.991,331.835-790.43,344.299-841.635c29.242-132.373-12.682-239.224-37.09-286.779L1895.065,1371.482z"></path><path fill="#313055" d="M1895.118,1371.477c-1.646,69.893,23.125,134.027,42.504,172.418c-9.681-26.872-2.44-47.184,72.9-61.924
			c96.909-18.915,165.213,101.213,165.213,101.213s-82.147,310.536-105.699,338.772c-23.552,28.234-61.003,21.468-52.612,30.861
			c8.391,9.395,51.694,7.123,34.025,20.224c-17.669,13.103-88.67,18.073-76.06,27.085c12.611,9.012,60.149,27.918,51.14,53.388
			c-9.01,25.47-135.314,370.549-181.473,386.133c-19.332,6.485-35.63-1.613-47.996-13.258c-1.974,9.17-3.635,16.477-4.998,21.722
			c51.426,55.491,82.311,24.949,84.892,25.684c152.093-277.993,331.813-790.434,344.297-841.645
			c29.184-132.42-12.772-239.266-37.181-286.794L1895.118,1371.477z"></path></g><path fill="#28264A" d="M1901.515,1407.553c0,0,15.805,146.103,44.381,159.772l-17.599-101.175c0,0,21.903,5.328,20.72-5.329
		c-1.184-10.656-4.737-46.767-4.737-46.767L1901.515,1407.553z"></path><path fill="#E06020" d="M1790.788,1426.38c0,0,297.867,24.87,332.59,23.47c34.722-1.4,107.055-58.026,107.055-58.026
		s-139.893-500.678-164.706-506.929c-24.812-6.253-115.528-14.402-158.949,8.021
		C1863.356,915.338,1790.788,1426.38,1790.788,1426.38z"></path><path fill="#D3581E" d="M1905.185,1005.406c47.195,23.067,137.457-37.219,143.079,0c5.623,37.219,24.231,194.364-18.156,146.807
		c-42.388-47.558-59.945-83.854-74.739-52.839c-14.794,31.016-84.287,10.451-72.492-30.903
		C1894.673,1027.117,1886.074,996.065,1905.185,1005.406z"></path><path fill="#D3581E" d="M2230.4,1391.791c0,0-72.301,56.655-107.038,58.034c-34.738,1.447-332.555-23.434-332.555-23.434
		s22.262-156.663,49.487-300.368c0.689,64.995,1.241,221.658-9.719,243.093c-13.991,27.225,4.617-5.445,31.016-17.231
		c26.398-11.717,0,24.123-13.991,37.701c-13.923,13.509,170.585,12.82,200.636,10.407c30.05-2.412-30.051-51.831-47.489-99.319
		c-17.437-47.419,73.267,45.903,101.387,36.46c28.052-9.511-11.028-24.674-36.392-43.284c-25.364-18.609,33.083-1.516,43.973-13.922
		c8.409-9.65-18.609-262.874-30.946-374.048C2121.432,1001.615,2230.4,1391.791,2230.4,1391.791z"></path><path fill="#C6501C" d="M1858.778,1034.935c1.29-0.86-24.584,184.995-31.821,180.86
		C1819.719,1211.659,1847.922,1042.172,1858.778,1034.935z"></path><g><g><path fill="#E06020" d="M2079.269,550.919c-37.327-31.738-143.162,59.874-143.162,59.874s85.256,83.312,130.125,91.064
				C2066.232,701.857,2116.597,582.66,2079.269,550.919z"></path><path fill="#C6501C" d="M2066.209,701.875c-44.856-7.785-130.075-91.089-130.075-91.089s2.516-2.155,6.887-5.749
				c46.472,14.134,99.772,61.026,115.043,47.371c13.894-12.457,18.446-75.098,19.763-102.587c0.479,0.3,0.959,0.719,1.437,1.078
				C2116.574,582.64,2066.209,701.875,2066.209,701.875z"></path><path fill="#FFD600" d="M2066.232,701.857c-4.469,6.386-37.22-8.823-73.154-33.97c-35.932-25.147-61.439-50.709-56.97-57.095
				c4.469-6.386,37.221,8.823,73.154,33.97C2045.195,669.909,2070.701,695.471,2066.232,701.857z"></path><polygon fill="#FFD600" points="2062.909 729.018 2066.232 701.857 1936.108 610.792 1911.816 623.279"></polygon><path fill="#C6501C" d="M2077.236,744.007c-6.336,9.054-52.774-12.51-103.721-48.164c-50.947-35.654-87.112-71.898-80.776-80.952
				c6.336-9.053,52.774,12.511,103.721,48.165C2047.407,698.71,2083.572,734.953,2077.236,744.007z"></path><path fill="#28264A" d="M2062.837,736.631c-4.488,6.413-43.549-13.178-87.245-43.757c-43.696-30.58-75.481-60.568-70.992-66.981
				c4.488-6.413,43.549,13.179,87.244,43.758C2035.54,700.23,2067.324,730.218,2062.837,736.631z"></path></g><path fill="#FAB19E" d="M2010.744,773.158l2.143,84.651c0,0-4.938,30.6-46.582,36.83c-13.222,1.978-19.646-7.557-22.255-21.492
			c3.504-27.319,8.515-54.725,8.515-54.725L2010.744,773.158z"></path><path fill="#DB8F82" d="M1998.83,813.077c-8.016,35.284-39.684,40.55-52.1,41.257c2.906-19.803,5.815-35.913,5.815-35.913
			l45.894-35.677C2001.031,790.288,2001.817,800.111,1998.83,813.077z"></path><path fill="#FAB19E" d="M1916.442,662.425c0,0-30.487,73.553-23.327,112.701c2.898,15.841,17.289,59.077,50.797,56.135
			c33.508-2.943,93.878-85.776,77.184-119.693C2004.41,677.651,1916.442,662.425,1916.442,662.425z"></path><path fill="#28264A" d="M2046.244,716.964c0,0-91.143-75.816-132.548-87.852c-41.406-12.036-39.387,14.182-0.666,52.968
			c17.599,17.63,50.589,23.537,81.351,24.754c10.106,19.467-6.429,67.484-22.5,85.65c-16.071,18.166-24.809-11.755-41.444-19.675
			c-16.632-7.92-38.545,0.514-38.545,0.514s-2.205,49.565,29.364,57.049c25.978,6.159,74.513-10.352,88.112-19.049
			c0.23,1.939,18.437,4.338,16.525-16.551C2047.414,798.851,2051.507,748.927,2046.244,716.964z"></path><path fill="#C6501C" d="M1945.796,860.312c0,0-17.905,14.596-20.557,20.784c-2.653,6.188,13.667,26.455,27.914,31.922
			c38.015,14.587,81.777-26.523,79.566-36.689c-2.209-10.167-20.092-25.223-20.092-25.223s-10.158,38.331-46.655,33.179
			C1944.049,881.191,1945.796,860.312,1945.796,860.312z"></path><g><path fill="#FAB19E" d="M2006.953,760.281c0,0-2.62-31.913,6.044-41.712c6.382-7.216,17.299-7.29,22.01-4.758
				c16.769,9.01,6.674,42.459-13.445,50.239C2017.195,765.738,2010.122,764.759,2006.953,760.281z"></path><path fill="#28264A" d="M2033.856,728.633c-44.833,11.726,18.198,23.46-8.324,8.166
				C2025.532,736.799,2040.681,729.09,2033.856,728.633z"></path></g><path fill="#28264A" d="M1942.978 703.585c1.583-4.178 16.356-.886 28.184 11.011C1982.988 726.498 1939.358 713.164 1942.978 703.585zM1914.33 694.615c-1.422-3.518-12.513-1.567-20.918 7.61C1885.009 711.406 1917.581 702.677 1914.33 694.615zM1954.307 724.375c-3.891-4.657-25.344 6.085-11.543 7.385 13.715-9.134 10.726 8.269 17.953 5.581C1963.516 734.322 1961.344 728.812 1954.307 724.375zM1907.409 714.929c-3.891-4.658-25.345 6.085-11.543 7.385 13.715-9.134 10.727 8.269 17.953 5.581C1916.618 724.876 1914.446 719.366 1907.409 714.929zM1924.644 733.821c-6.087 12.561-8.942 18.603-7.618 22.353 3.344 9.47 22.575-1.516 4.467-2.02C1921.493 754.153 1926.431 733.659 1924.644 733.821z"></path><path fill="#DFE4EF" d="M1909.179,785.284c11.998,10.168,19.726,1.017,20.946,5.897c1.22,4.881-5.49,13.016-16.066,10.575
			C1902.11,798.998,1899.219,776.844,1909.179,785.284z"></path></g><g><path fill="#FAB19E" d="M2171.102,344.913c3.167-4.313,7.991-4.155,12.863-0.072c10.376,8.696,19.814,18.392,30.059,27.895
			c-1.045-26.626-1.611-55.311-2.656-81.936c3.362-0.826,6.477,1.205,8.171,3.496c1.694,2.291,2.557,5.076,3.345,7.814
			c3.092,10.729,5.504,21.654,7.219,32.687c1.663-18.596,2.419-31.983,4.706-49.392c2.699-0.104,6.305,1.625,7.604,3.993
			c1.3,2.369,1.975,7.333,2.333,10.01c1.624,12.164,2.951,22.111,4.574,34.275c2.028-12.817,5.51-26.003,7.538-38.82
			c2.014-0.561,5.282,1.212,6.488,2.92c1.205,1.709,1.77,3.809,2.011,5.886c1.219,10.549,1.397,24.496,2.031,32.962
			c2.213-8.461,5.389-16.998,7.601-25.458c8.172,1.007,4.6,10.995,5.329,17.607c3.03,27.447,6.33,56.242,9.359,83.69
			c0,0,2.232,20.727,2.6,36.49c-0.885,0.025-62.921,5.171-68.12,5.99c-0.628-7.59-2.265-23.586-2.265-23.586
			C2192.775,409.986,2195.641,391.033,2171.102,344.913z"></path><path fill="#DB8F82" d="M2229.973 342.398c.664-.005 1.174-3.086 1.141-6.881-.033-3.795-.598-6.866-1.26-6.861-.665.006-1.174 3.087-1.142 6.881C2228.745 339.332 2229.309 342.405 2229.973 342.398zM2249.547 343.372c.663-.006 1.174-3.087 1.141-6.881-.033-3.795-.597-6.866-1.261-6.861-.663.006-1.174 3.087-1.14 6.882C2248.319 340.306 2248.884 343.378 2249.547 343.372zM2267.762 345.811c.664-.006 1.174-3.087 1.141-6.881-.034-3.795-.598-6.867-1.261-6.861-.664.006-1.174 3.087-1.142 6.881C2266.534 342.745 2267.099 345.817 2267.762 345.811zM2267.702 357.26c-.016-.664-8.177-1.002-18.228-.757-10.05.245-18.185.98-18.169 1.644.017.664 8.176 1.003 18.228.757C2259.584 358.659 2267.718 357.923 2267.702 357.26zM2241.598 399.474c.165-.004.267-.634.308-1.792-.006-1.152.164-2.861-.327-4.905-.563-4.1-2.936-9.87-7.866-14.184-4.853-4.385-10.593-6.199-14.593-7.066-4.083-.792-6.676-.6-6.686-.274-.02.335 2.452.745 6.265 1.919 3.742 1.246 9.01 3.215 13.417 7.216 4.475 3.927 6.846 8.961 7.807 12.767.675 1.872.761 3.499 1.049 4.596C2241.217 398.855 2241.432 399.477 2241.598 399.474zM2226.385 430.573c-.047.159.636.493 1.924.963 1.288.469 3.17 1.13 5.587 1.577 4.787 1.066 11.643 1.706 19.123.946 15.082-1.402 26.019-7.528 25.631-8.082-.247-.611-11.281 4.348-25.865 5.691C2238.199 433.29 2226.571 429.777 2226.385 430.573z"></path></g><path fill="#E06020" d="M2065.728,884.895l55.243-7.717l99.25-106.758l-2.043-324.315l77.027-7.489
		c0,0,53.213,329.095,53.213,388.973c0,59.879-210.363,250.085-210.363,250.085S2066.313,970.119,2065.728,884.895z"></path><path fill="#C6501C" d="M2225.024 773.158c0 0 51.658 17.725 45.455 22.893C2264.275 801.22 2224.541 775.594 2225.024 773.158zM2230.4 789.331c0 0 21.986 22.228 11.648 19.643S2229.607 793.466 2230.4 789.331z"></path><path fill="#D3581E" d="M2348.396,827.583c0,59.895-210.354,250.123-210.354,250.123s-18.196-27.293-36.392-65.339
		C2189.58,1020.138,2348.396,823.724,2348.396,827.583z"></path><path fill="#C6501C" d="M2086.065,974.779c0,0,56.268,95.363,51.977,102.928C2133.752,1085.271,2078.699,987.96,2086.065,974.779z"></path></g><path fill="#DFE4EF" d="M1646.213,382.597c-26.761,14.704-53.972,27.107-81.242,37.433l-45.921,15.558
	c-15.973,4.792-31.882,8.957-47.644,12.549l0.095-0.253l-39.206,8.122c-46.3,8.082-90.66,11.621-130.824,12.446
	c-95.417,1.962-179.545-10.63-234.238-21.799l-7.801,3.466c11.469,2.426,24.224,4.94,38.468,7.405
	c17.287,2.991,36.475,5.88,57.161,8.369c0,0,14.798,95.355,33.699,97.218c19.869,1.962,66.801-89.812,66.801-89.812
	c3.058,0.082,35.599,90.96,54.251,91.49c27.206,0.778,53.629-94.732,53.629-94.732c2.965-0.263,46.237,86.138,67.616,83.534
	c26.525-3.228,38.201-99.833,38.201-99.833c6.485-1.453,62.097,76.102,86.425,70.056c20.611-5.124,20.433-82.465,20.433-82.465
	h0.003l5.574-22.506c22.346-9.08,44.602-19.602,66.561-31.647L1646.213,382.597z"></path><g><g><path fill="#FFD600" d="M1085.684,1448.788c10.161,3.303,20.856,5.667,30.118,3.184c1.109-0.298,4.323-1.672,0.603,0.049
			c-3.74,1.734-0.797,0.308,0.051-0.263c1.109-0.747,2.151-1.613,3.107-2.599c2.676-2.754,4.628-6.413,5.856-10.62
			c2.572-8.81,1.991-19.239,3.287-28.719c1.387-10.168,5.557-16.347,12.999-19.821c4.475-2.089,8.818-3.785,14.103-3.571
			c6.039,0.245,12.3,2.257,18.447,4.842c-1.824-0.769-4.037,3.514-5.924,2.719c-5.389-2.267-10.842-4.082-16.185-4.666
			c-2.846-0.313-5.649-0.277-8.296,0.271c-0.531,0.11-1.057,0.232-1.572,0.386c2.18-0.647,0.64-0.286,0.155,0.245
			c-0.818,0.892-1.78,1.574-2.56,2.531c-5.228,6.415-5.624,16.76-6.227,26.37c-0.63,10.024-1.797,20.018-7.363,26.443
			c-3.782,4.365-9.256,6.655-14.406,8.5c-9.653,3.46-21.242,0.972-32.111-2.562
			C1081.703,1452.138,1083.687,1448.137,1085.684,1448.788L1085.684,1448.788z"></path></g><g><path fill="#FFD600" d="M1602.001,755.9c10.161,3.303,20.855,5.667,30.118,3.184c1.109-0.298,4.322-1.673,0.603,0.049
			c-3.74,1.733-0.796,0.308,0.051-0.264c1.109-0.746,2.151-1.613,3.107-2.599c2.677-2.754,4.629-6.413,5.856-10.62
			c2.572-8.81,1.991-19.239,3.287-28.719c1.388-10.168,5.557-16.347,12.999-19.821c4.475-2.089,8.817-3.785,14.103-3.571
			c6.038,0.245,12.3,2.257,18.447,4.842c-1.823-0.769-4.037,3.514-5.924,2.719c-5.388-2.267-10.842-4.082-16.184-4.666
			c-2.847-0.313-5.65-0.277-8.297,0.271c-0.53,0.111-1.056,0.232-1.572,0.386c2.18-0.647,0.639-0.286,0.154,0.245
			c-0.817,0.892-1.78,1.574-2.56,2.531c-5.227,6.415-5.624,16.761-6.226,26.371c-0.63,10.024-1.798,20.018-7.364,26.443
			c-3.782,4.365-9.257,6.655-14.405,8.5c-9.654,3.46-21.242,0.972-32.112-2.562C1598.019,759.25,1600.003,755.249,1602.001,755.9
			L1602.001,755.9z"></path></g><g><path fill="#FFD600" d="M2212.966,1955.125c10.654-0.799,21.447-2.668,29.074-8.479c0.913-0.697,3.366-3.188,0.576-0.184
			c-2.803,3.022-0.62,0.588-0.053-0.263c0.743-1.111,1.379-2.308,1.889-3.584c1.431-3.563,1.849-7.689,1.389-12.047
			c-0.962-9.127-5.456-18.557-7.854-27.819c-2.574-9.935-1.059-17.233,4.508-23.27c3.348-3.631,6.723-6.847,11.695-8.654
			c5.68-2.064,12.236-2.579,18.905-2.518c-1.979-0.019-2.403,4.783-4.449,4.763c-5.846-0.054-11.58,0.337-16.746,1.823
			c-2.752,0.79-5.332,1.887-7.573,3.398c-0.449,0.304-0.89,0.616-1.309,0.953c1.773-1.425,0.484-0.505,0.237,0.169
			c-0.419,1.135-1.05,2.13-1.409,3.313c-2.403,7.919,1.155,17.641,4.243,26.761c3.22,9.515,5.931,19.203,3.219,27.26
			c-1.844,5.474-6.041,9.669-10.105,13.33c-7.619,6.863-19.285,8.957-30.683,9.81
			C2210.554,1959.735,2210.872,1955.281,2212.966,1955.125L2212.966,1955.125z"></path></g><g><path fill="#FFD600" d="M2233.639,1029.193c4.736-9.576,8.623-19.817,7.505-29.341c-0.135-1.141-1.03-4.519,0.135-0.59
			c1.175,3.951,0.19,0.833-0.253-0.087c-0.577-1.206-1.286-2.362-2.123-3.451c-2.339-3.047-5.677-5.507-9.661-7.33
			c-8.346-3.819-18.75-4.753-27.943-7.405c-9.86-2.843-15.371-7.862-17.733-15.728c-1.42-4.73-2.47-9.272-1.494-14.471
			c1.115-5.939,4.011-11.844,7.459-17.553c-1.025,1.694,2.893,4.502,1.834,6.255c-3.023,5.004-5.607,10.138-6.958,15.34
			c-0.721,2.771-1.09,5.55-0.931,8.247c0.033,0.541,0.077,1.08,0.154,1.612c-0.323-2.25-0.19-0.674,0.265-0.117
			c0.764,0.938,1.3,1.989,2.135,2.9c5.592,6.101,15.771,7.988,25.193,9.974c9.828,2.072,19.548,4.672,25.101,11.109
			c3.773,4.373,5.247,10.122,6.328,15.483c2.029,10.052-2.109,21.159-7.178,31.403
			C2236.377,1033.617,2232.705,1031.075,2233.639,1029.193L2233.639,1029.193z"></path></g><g><path fill="#FFD600" d="M1038.97,2238.587c16.893,18.162,42.917,26.648,67.266,21.939c0.281-0.054,2.384,5.086,2.594,5.552
			c0.2,0.435,2.287,5.638,2.48,5.6c-24.351,4.709-50.375-3.778-67.268-21.94c-1.195-1.287-1.864-3.955-2.589-5.55
			c-0.598-1.314-1.195-2.63-1.779-3.95C1039.477,2239.79,1039.29,2238.928,1038.97,2238.587L1038.97,2238.587z"></path></g><g><path fill="#FFD600" d="M1822.654,460.656c16.893,18.162,42.917,26.648,67.266,21.939c0.282-0.055,2.384,5.085,2.595,5.552
			c0.199,0.435,2.287,5.637,2.479,5.6c-24.351,4.71-50.375-3.777-67.268-21.94c-1.196-1.287-1.864-3.955-2.589-5.55
			c-0.597-1.315-1.195-2.63-1.779-3.95C1823.161,461.859,1822.975,460.998,1822.654,460.656L1822.654,460.656z"></path></g><g><path fill="#FFD600" d="M2093.029,1664.939c16.892,18.162,42.917,26.647,67.266,21.938c0.282-0.054,2.384,5.085,2.594,5.552
			c0.2,0.436,2.287,5.638,2.48,5.601c-24.351,4.71-50.375-3.778-67.268-21.941c-1.196-1.286-1.865-3.955-2.589-5.55
			c-0.597-1.313-1.195-2.629-1.779-3.949C2093.536,1666.142,2093.349,1665.28,2093.029,1664.939L2093.029,1664.939z"></path></g><g><path fill="#FFD600" d="M1548.943,726.374c15.745-21.109,19.642-49.91,10.077-74.442c-0.111-0.283,4.858-3.459,5.303-3.769
			c0.418-0.291,5.452-3.464,5.376-3.658c9.566,24.533,5.668,53.333-10.079,74.444c-1.116,1.493-3.775,2.701-5.303,3.763
			c-1.258,0.875-2.518,1.75-3.786,2.612C1550.102,725.614,1549.238,725.974,1548.943,726.374L1548.943,726.374z"></path></g><g><path fill="#DFE4EF" d="M1616.012,678.912c12.362-20.395,32.143-33.378,51.129-33.56c0.219-0.001,1.648-5.264,1.793-5.745
			c0.138-0.449,1.553-5.767,1.704-5.768c-18.986,0.182-38.766,13.164-51.129,33.561c-0.874,1.444-1.29,4.095-1.79,5.742
			c-0.412,1.356-0.823,2.715-1.225,4.075C1616.359,677.677,1616.246,678.528,1616.012,678.912L1616.012,678.912z"></path></g><g><path fill="#DFE4EF" d="M567.536,1238.399c12.361-20.395,32.142-33.376,51.128-33.56c0.219-0.001,1.648-5.264,1.794-5.744
			c0.138-0.45,1.553-5.768,1.703-5.769c-18.986,0.181-38.766,13.164-51.129,33.561c-0.875,1.445-1.291,4.096-1.79,5.742
			c-0.411,1.357-0.824,2.715-1.225,4.074C567.882,1237.166,567.77,1238.016,567.536,1238.399L567.536,1238.399z"></path></g><g><path fill="#929ED3" d="M1512.287 1568.26c-.047-.001-.093.01-.14.01.282.129.541.239.773.312C1512.726 1568.461 1512.502 1568.364 1512.287 1568.26zM1505.021 1535.255c-.094-1.006-7.102-1.311-7.185-2.214 1.855 19.792 2.233 43.743-15.668 56.833-6.566 4.799-14.373 6.194-22.351 5.698-1.671-.102-3.319-.424-4.964-.721 2.816-2.021 5.348-4.403 7.446-7.011 5.008-6.213 6.69-13.784-.326-19.239-3.089-2.403-6.839-3.385-10.52-4.497-3.264-.991-6.691-2.039-10.027-.678-8.322 3.39-8.668 16.558-3.872 22.788 2.358 3.063 5.742 5.18 9.441 6.761-4.303 2.977-9.186 5.197-14.299 5.97-4.065.613-8.352.598-12.443.25-1.561-.134-3.118-.337-4.66-.621-.222-.042-.443-.099-.666-.144-.762-.272-1.569-.504-2.208-.794-8.807-4.005-15.862-10.83-21.948-18.21-1.353-1.637-5.875-.622-7.188-2.213 7.594 9.202 16.417 16.764 27.907 20.439 1.248.398 2.489.719 3.733 1.074.336.106.672.214 1.008.32-.042-.034-.121-.046-.167-.078 7.477 2.065 14.945 3.251 22.879 2.318 5.327-.629 10.554-2.807 15.114-5.912 1.793.487 3.569.916 5.248 1.304 8.739 2.021 18.697 1.938 26.713-2.463C1507.042 1582.674 1506.961 1555.944 1505.021 1535.255zM1442.834 1585.234c-2.557-5.945-1.317-15.528 4.677-19.061 1.519-.893 3.26-1.179 5.001-1.141-.482-.224-1.006-.507-1.599-.944.504.371 1.137.642 1.739.935.121.004.241-.031.361-.022 2.203.142 1.847.833.272.343.01.005.019.008.028.014 2.573 1.615 5.018 3.975 5.986 6.926 1.988 6.049-2.926 12.454-6.965 16.388-1.205 1.174-2.521 2.265-3.883 3.3C1446.061 1590.216 1444.012 1587.974 1442.834 1585.234z"></path></g><g><path fill="#DFE4EF" d="M621.923,1837.083c-2.135,7.877-3.408,16.156-1.852,24.263c0.184,0.96,0.828,2.198,0.75,3.141
			c-0.295-0.93-0.593-1.86-0.888-2.79c0.278,0.714,0.579,1.42,0.901,2.113c0.563,1.214,1.19,2.397,1.867,3.55
			c1.775,3.02,3.879,6.012,6.31,8.54c4.411,4.581,10.637,7.461,16.84,8.604c4.73,0.871,11.613,1.135,14.845-3.234
			c1.577-2.129,2.015-4.995,1.869-7.584c-0.041-0.746-0.312-1.565-0.299-2.298c-0.063,3.495,1.783,4.158,0.401,1.913
			c-0.859-1.387-2.028-2.576-3.531-3.252c-5.416-2.432-12.7,1.433-15.577,6.144c-1.697,2.779-2.15,6.15-1.856,9.347
			c0.052,0.557,0.128,1.114,0.22,1.666c0.052,0.278,0.105,0.557,0.157,0.834c0.62,2.424,0.471,2.082-0.447-1.021
			c1.176,1.926,1.9,4.154,3.104,6.099c3.59,5.797,8.412,10.546,14.992,12.751c17.943,6.006,34.431-6.071,47.297-17.126
			c-0.588,0.504,2.657,5.533,2.003,6.095c-13.448,11.557-32.018,24.796-50.424,15.852c-7.017-3.409-11.987-10.301-14.89-17.383
			c-2.493-6.082-5.464-13.733-3.443-20.306c1.972-6.411,11.311-12.666,17.776-8.544c2.591,1.651,3.552,4.554,4.474,7.315
			c1.041,3.111,2.207,6.206,2.058,9.542c-0.337,7.574-6.437,10.137-13.234,9.717c-7.642-0.469-15.712-3.896-20.881-9.629
			c-5.492-6.094-8.568-13.194-11.01-20.905c-3.109-9.813-2.197-19.685,0.464-29.511
			C619.46,1832.685,622.398,1835.333,621.923,1837.083L621.923,1837.083z"></path></g><g><path fill="#DFE4EF" d="M1733.287,2237.237c-1.262-8.063-3.474-16.143-8.199-22.911c-0.56-0.801-1.653-1.67-1.965-2.562
			c0.649,0.729,1.299,1.457,1.949,2.186c-0.545-0.539-1.108-1.061-1.686-1.562c-1.008-0.879-2.063-1.704-3.151-2.48
			c-2.852-2.034-5.994-3.909-9.244-5.227c-5.895-2.385-12.755-2.478-18.885-0.991c-4.674,1.132-11.066,3.698-12.237,9.004
			c-0.571,2.586,0.197,5.382,1.385,7.687c0.342,0.663,0.923,1.301,1.21,1.975c-1.368-3.217-3.323-3.07-1.146-1.583
			c1.349,0.918,2.901,1.526,4.548,1.529c5.938,0.013,11.014-6.484,11.721-11.96c0.417-3.229-0.544-6.492-2.115-9.291
			c-0.274-0.486-0.572-0.965-0.881-1.431c-0.161-0.232-0.322-0.466-0.483-0.697c-1.556-1.961-1.279-1.711,0.824,0.75
			c-1.859-1.279-3.428-3.018-5.321-4.303c-5.641-3.831-11.981-6.201-18.888-5.532c-18.833,1.83-28.966,19.579-36.208,34.917
			c0.331-0.699-4.681-3.969-4.314-4.749c7.569-16.034,19.129-35.694,39.582-35.03c7.798,0.253,15.146,4.52,20.684,9.803
			c4.756,4.537,10.587,10.312,11.421,17.138c0.812,6.658-5.165,16.177-12.748,15.047c-3.041-0.451-5.101-2.711-7.067-4.855
			c-2.219-2.416-4.545-4.768-5.77-7.875c-2.78-7.053,1.746-11.881,8.124-14.268c7.17-2.687,15.936-2.847,22.993,0.281
			c7.499,3.325,13.201,8.555,18.576,14.6c6.839,7.693,10.03,17.08,11.604,27.137
			C1737.33,2240.247,1733.568,2239.027,1733.287,2237.237L1733.287,2237.237z"></path></g><g><path fill="#DFE4EF" d="M603.824,537.041c-4.268,6.956-7.822,14.541-8.612,22.758c-0.094,0.972,0.175,2.342-0.166,3.225
			c-0.021-0.975-0.044-1.952-0.066-2.928c0.066,0.764,0.156,1.526,0.27,2.282c0.198,1.323,0.466,2.635,0.791,3.932
			c0.852,3.397,2.029,6.861,3.65,9.972c2.942,5.638,8.104,10.156,13.734,12.999c4.293,2.169,10.822,4.36,15.154,1.08
			c2.113-1.599,3.34-4.226,3.93-6.75c0.171-0.727,0.141-1.589,0.359-2.289c-1.044,3.336,0.54,4.493-0.154,1.949
			c-0.432-1.574-1.22-3.042-2.471-4.115c-4.512-3.859-12.589-2.204-16.678,1.507c-2.411,2.188-3.795,5.295-4.414,8.444
			c-0.107,0.549-0.191,1.106-0.258,1.661c-0.028,0.282-0.056,0.564-0.083,0.844c-0.087,2.501-0.135,2.132-0.142-1.106
			c0.586,2.179,0.653,4.521,1.26,6.726c1.811,6.576,5.101,12.49,10.793,16.459c15.524,10.817,34.747,3.875,50.205-3.107
			c-0.705,0.318,0.991,6.056,0.206,6.412c-16.159,7.3-37.707,14.772-52.847,1.004c-5.773-5.248-8.6-13.261-9.39-20.873
			c-0.68-6.538-1.375-14.716,2.416-20.453c3.698-5.597,14.421-8.968,19.462-3.191c2.022,2.315,2.126,5.372,2.233,8.279
			c0.122,3.277,0.368,6.576-0.714,9.736c-2.457,7.173-9.033,7.913-15.436,5.595c-7.2-2.604-13.978-8.165-17.322-15.122
			c-3.554-7.394-4.505-15.073-4.676-23.159c-0.219-10.291,3.438-19.507,8.76-28.185
			C602.698,532.127,604.771,535.494,603.824,537.041L603.824,537.041z"></path></g></g></svg>