<svg xmlns="http://www.w3.org/2000/svg" enable-background="new 0 0 3000 3000" viewBox="0 0 3000 3000" id="a-man-on-firecracker"><g><path fill="#DFE4EF" d="M2194.346 1624.416c-62.483-34.312-118.107 171.902-294.735 372.847-182.288 207.379-299.347 212.92-356.719 302.287-19.859 30.933 78.874 13.212 71.281 51.664-16.439 83.264-146.494 93.263-216.505 144.501-21.65 15.845-44.891 34.898-48.266 60.865-5.536 42.59 44.134 69.365 86.966 76.585 110.555 18.631 232.454-2.781 327.113-65.647C2283.119 2222.411 2290.901 1677.435 2194.346 1624.416zM1113.868 562.579c-21.439 21.518-43.952 40.964-67.102 58.445l-39.494 27.688c-13.91 9.039-27.936 17.46-41.981 25.294l.02-.268-35.163 18.711c-41.944 20.657-83.306 36.434-121.422 48.445-90.551 28.54-174.39 40.028-229.727 44.651l-6.48 5.488c11.629-.887 24.508-2.052 38.797-3.679 17.341-1.976 36.466-4.582 56.912-7.986 0 0 40.777 86.903 59.343 83.4 19.518-3.682 38.677-104.416 38.677-104.416 2.942-.776 59.407 76.893 77.364 72.187 26.192-6.86 24.725-105.433 24.725-105.433 2.758-1.081 68.217 69.316 87.9 60.855 24.424-10.496 8.571-105.992 8.571-105.992 5.788-3.198 80.556 55.306 102.093 42.732 18.246-10.653-3.537-84.44-3.537-84.44l.002-.002-.969-23.046c18.797-14.915 37.104-31.18 54.702-48.817L1113.868 562.579zM2427.074 583.355c-36.76 5.591-73.069 8.361-108.576 8.733l-59.024-1.467c-20.27-1.219-40.203-3.13-59.73-5.633l.214-.248-48.228-7.155c-56.322-10.171-108.521-24.724-154.783-40.623-109.91-37.766-200.81-87.439-258.654-123.139l-10.372.69c12.095 7.585 25.623 15.807 40.874 24.598 18.51 10.668 39.235 22.014 61.84 33.535 0 0-23.065 115.22-2.237 125.276 21.893 10.572 114.029-74.67 114.029-74.67 3.462 1.376 2.559 118.916 23.661 127.344 30.777 12.298 101.033-85.819 101.033-85.819 3.501.942 16.744 117.864 42.278 123.852 31.68 7.432 85.534-98.119 85.534-98.119 8.023 1.061 39.083 113.045 69.432 116.332 25.712 2.783 57.938-85.708 57.938-85.708h.003l15.81-23.394c29.354-1.011 59.21-3.71 89.365-8.273L2427.074 583.355z"></path></g><g><path fill="#FAB19E" d="M1489.47,742.008c2.944,2.261,19.282,13.715,29.15,12.454c17.312-2.215,48.437-5.335,52.138-23.275
		c4.533-21.97-32.073-67.432-32.073-67.432s-73.225,4.862-69.482,21.324c0,0,7.456,18.696,17.152,31.865
		C1486.356,716.943,1464.138,722.565,1489.47,742.008z"></path><path fill="#EBA090" d="M1547.96,677.707c0,0,5.774,5.067,5.426,6.677c-0.347,1.609-44.155,33.817-54.915,34.264
		c-10.761,0.448-21.445-16.716-21.445-16.716L1547.96,677.707z"></path><g><path fill="#313055" d="M1193.774,1293.852c0,0,24.196,199.139,75.513,232.193c87.21,56.174,412.349-46.339,412.349-46.339
			s50.765-80.94,27.056-131.501c-23.708-50.562-132.274-177.23-132.274-177.23L1193.774,1293.852z"></path><g><path fill="#FAB19E" d="M1989.172,1846.009c3.203,5.39,46.31,90.753,60.065,113.462c15.124,5.599,64.072-26.254,61.886-40.754
				c-2.186-14.503-44.337-115.885-44.337-115.885L1989.172,1846.009z"></path><path fill="#FFD600" d="M2075.548,2041.294c9.302,0.166,176.343-74.487,192.926-81.5c16.579-7.016-15.016-63.968-66.738-43.519
				l-81.168-23.211c-7.745-10.848,4.906-26.842-0.623-30.847c-9.959-7.134-35.417,2.282-46.89,19.801
				c-5.314,8.163-7.575,17.518-4.144,28.368c-16.19,7.262-46.052,21.121-43.291,30.599
				C2029.432,1954.098,2066.199,2041.141,2075.548,2041.294z"></path><path fill="#C9A923" d="M2268.474,1959.805c-16.631,6.989-183.639,81.629-192.926,81.528
				c-4.314-0.146-14.612-18.841-24.727-40.299c29.371-1.098,84.861-6.305,122.017-28.92c0,0,43.248-43.575,83.289-48.597
				C2272.034,1936.437,2277.741,1955.847,2268.474,1959.805z"></path><path fill="#28264A" d="M2163.11,1964.301c-1.136-6.38,13.1-42.232,41.139-48.589c0,0-18.936-12.237-38.026,12.205
				C2152.133,1945.959,2163.11,1964.301,2163.11,1964.301z"></path><g><path fill="#28264A" d="M2127.057 1937.595c5.544-7.176 41.23-24.996 30.989-26.503-10.24-1.506-35.134 15.874-34.468 23.136C2124.246 1941.492 2127.057 1937.595 2127.057 1937.595zM2110.432 1929.897c5.541-7.176 41.226-24.994 30.988-26.5-10.237-1.505-35.135 15.872-34.468 23.137C2107.621 1933.794 2110.432 1929.897 2110.432 1929.897zM2093.805 1922.203c5.544-7.176 41.225-24.996 30.99-26.5-10.238-1.506-35.137 15.871-34.47 23.137C2090.994 1926.1 2093.805 1922.203 2093.805 1922.203z"></path></g><path fill="#28264A" d="M2064.702,2028.037c-0.051-0.125,75.803-27.984,117.282-45.774c4.632-1.989,3.364-15.482,44.735-33.648
				c28.46-12.997,42.074-7.994,43.513-7.407c2.689,1.088,13.905,17.485,6.361,22.367c-7.54,4.882-193.967,85.716-198.478,83.852
				C2069.184,2043.742,2064.702,2028.037,2064.702,2028.037z"></path></g><path fill="#3A3A60" d="M1528.004,1291.79c0,0,305.095-112.067,376.255-79.845c71.159,32.223,193.478,639.567,193.478,639.567
			l-91.505,50.285l-228.755-428.043l-161.939,7.808C1615.537,1481.562,1391.936,1399.337,1528.004,1291.79z"></path><path fill="#313055" d="M2077.701,1862.473l-71.458,39.325l-228.762-428.006l-161.973,7.753c0,0-223.532-82.201-87.526-189.716
			c0,0,305.078-112.093,376.257-79.864c41.287,18.682,99.855,231.191,141.704,406.239c-18.029,21.859-78.184,98.828-73.608,121.155
			c5.231,25.501,6.819,81.173,39.139,105.365C2027.633,1856.774,2054.723,1861.167,2077.701,1862.473z"></path><path fill="#313055" d="M2020.536,1893.906l-14.343,7.958l-228.72-428.153l-161.949,7.823c0,0-297.05-61.157-98.664-235.61
			c0,0,172.835-13.478,288.167-33.347c-39.476,22.863-78.267,55.186-68.737,89.208c18.159,64.217,40.866,120.411,54.679,116.291
			c13.813-4.12,66.872-60.835,68.317-46.363c1.459,14.6-63.937,51.016-38.46,70.916c25.477,19.901,54.382,0.963,44.496,19.567
			C1856.327,1479.276,1945.023,1830.328,2020.536,1893.906z"></path></g><g><g opacity=".74"><path fill="#FFD600" d="M1368.337,2141.366c99.989-129.913-103.051-186.026-203.972-223.295
				c-83.498,32.125-167.615,91.801-202.265,172.023c-34.636,80.22-12.716,143.202-80.531,201.506
				c30.849,21.584,53.676,14.294,80.839,9.975c-38.367,52.632-58.114,65.768-123.629,76.69
				c83.122,41.314,154.533,19.454,229.667-34.242c18.965-13.553,55.69-47.448,79.185-61.604c1.312,3.113,0.254,12.841-0.526,15.565
				c-7.303,26.377-15.682,58.273-45.581,67.188c52.475-9.403,83.104-13.943,131.098-51.531
				C1280.617,2276.052,1334.458,2198.807,1368.337,2141.366z"></path><path fill="#C9A923" d="M1365.538,2085.395c69.131-87.858-75.645-129.494-148.162-157.022
				c-61.341,20.943-124.688,66.594-150.092,121.539c-25.403,54.928-13.184,103.065-59.252,141.485
				c13.962,8.331,24.458,25.913,47.579,12.254c-1.332,13.1-35.909,50.554-75.449,45.757
				c63.304,32.376,113.286,13.764,167.164-23.295c13.578-9.331,39.477-32.244,56.302-41.909c0.985,2.206,0.5,8.676,0.001,10.625
				c-4.785,18.828-10.848,40.193-32.375,46.249c38.267-6.454,58.795-8.323,93.664-34.313
				C1299.79,2180.801,1341.536,2126.725,1365.538,2085.395z"></path><path fill="#E06020" d="M1295.442,2075.992c34.261-44.2-36.032-65.644-71.181-77.309c-32.97,14.225-62.931,36.097-80.008,67.746
				c-17.057,31.653-16.893,60.296-45.902,83.676c17.386,1.709,31.573-3.13,45.771-12.576c-16.786,19.882-34.77,37.855-61.144,43.138
				c31.485,15.075,65.133-2.026,92.169-21.704c6.807-4.966,24.845-20.793,34.05-26.517c0.46,1.172-0.459,4.907-0.887,5.96
				c-4.091,10.314-9.114,23.227-20.75,27.148c21.646-4.677,35.112-9.728,54.405-24.737
				C1261.259,2125.797,1281.751,2098.462,1295.442,2075.992z"></path></g><g><path fill="#2F5798" d="M1555.473,2186.498c0,0-39.955,30.509-62.713,34.489c-34.371-1.892-369.781-96.288-365.612-407.162
				c0.304-22.699,41.998-55.725,53.845-56.283L1555.473,2186.498z"></path><path fill="#3C5FAD" d="M2280.356,1289.306c-21.164,26.458-64.352,80.387-85.383,106.597
				c-209.05,261.449-426.9,533.195-635.998,794.691c-42.563,35.658-458.539-308.623-391.464-454.429
				c249.637-195.73,637.382-507.461,871.034-681.75C2056.877,1072.218,2269.76,1279.1,2280.356,1289.306z"></path><path fill="#2F5798" d="M2250.346,1260.204l-16.599,87.334l-38.774,48.365c0,0,0,0-0.103,0.118
				c-0.058,0.117-0.136,0.23-0.29,0.47l-66.393,82.931c-187.956-126.343-270.203-287.114-261.749-293.707
				c97.366-75.997,165.648-128.531,172.108-131.299L2250.346,1260.204z"></path><path fill="#929ED3" d="M2025.325,1608.026l-281.165-326.401c33.896-26.686,66.251-52.055,96.35-75.608
				l262.544,304.787L2025.325,1608.026z" opacity=".25"></path><path fill="#3C5FAD" d="M1851.283,1056.763c9.718,8.161-4.174,129.285,128.386,267.483
				c162.532,169.445,300.823,146.329,300.823,146.329l101.84-534.618L1851.283,1056.763z"></path><path fill="#929ED3" d="M1869.694 1802.295l-318.064-369.317c32.214-25.498 64.57-50.868 96.401-75.929l299.41 348.06L1869.694 1802.295zM1714.298 1996.394l-354.734-412.069c30.87-24.361 63.104-49.857 96.185-75.721l336.417 390.697L1714.298 1996.394zM1559.016 2190.612l-391.48-454.495c26.76-21.132 59.387-47.035 95.957-75.95l373.27 433.227L1559.016 2190.612z" opacity=".25"></path></g><g><path fill="#2F5798" d="M2191.657,1268.938c-25.132,27.186-76.975,45.147-122.066,0.179
				c-45.105-44.948-32.729-95.922-7.31-123.453c25.444-27.536,79.182-52.135,127.757-8.121
				C2238.616,1181.569,2216.778,1241.766,2191.657,1268.938z"></path><path fill="#929ED3" d="M2188.362,1250.714c-23.139,25.01-69.558,41.58-111.236,1.111c-41.648-40.47-29.219-87.541-6.351-112.447
				c22.881-24.906,71.778-48.31,116.159-7.943C2231.312,1171.835,2211.507,1225.697,2188.362,1250.714z"></path><path fill="#FFD600" d="M2178.43,1240.839c-19.241,20.768-57.312,34.587-92.236,1.086c-34.94-33.493-24.224-72.456-5.221-93.074
				c19.014-20.62,59.427-39.916,96.115-6.521C2213.776,1175.726,2197.672,1220.083,2178.43,1240.839z"></path></g></g><g><g><path fill="#FAB19E" d="M1509.229,2073.199c-0.44,6.132-13.518,98.971-15.158,124.95c9.04,12.971,66.269,14.729,72.626,1.833
				c6.357-12.897,29.172-118.096,29.172-118.096L1509.229,2073.199z"></path><path fill="#FFD600" d="M1478.868,2285.294c8.052,4.285,187.199,13.413,204.806,14.667c17.606,1.249,15.352-62.563-38.931-67.719
				l-60.576-56.401c-1.937-12.924,16.232-21.265,13.185-27.224c-5.525-10.665-31.955-13.769-49.775-3.572
				c-8.275,4.767-14.415,11.933-16.246,22.938c-17.375-0.862-49.63-2.046-51.436,7.463
				C1477.391,2188.597,1470.769,2280.999,1478.868,2285.294z"></path><path fill="#C9A923" d="M1683.669,2299.97c-17.639-1.296-196.751-10.42-204.819-14.641c-3.703-2.048-4.378-22.963-3.666-46.21
				c26.147,12.113,76.938,32.259,119.462,29.04c0,0,57.174-18.818,94.387-5.383
				C1697.181,2281.142,1693.527,2300.636,1683.669,2299.97z"></path><path fill="#28264A" d="M1589.626,2257.005c1.846-6.079,30.239-31.061,57.562-24.137c0,0-11.096-19.117-38.651-6.262
				C1588.2,2236.095,1589.626,2257.005,1589.626,2257.005z"></path><g><path fill="#28264A" d="M1570.018 2217.629c8.036-3.801 47.141-3.487 38.866-9.361-8.275-5.872-37.757-1.769-40.407 4.871C1565.827 2219.783 1570.018 2217.629 1570.018 2217.629zM1558.919 2203.506c8.034-3.802 47.139-3.487 38.864-9.359-8.273-5.871-37.757-1.772-40.407 4.872C1554.729 2205.66 1558.919 2203.506 1558.919 2203.506zM1547.82 2189.385c8.036-3.801 47.138-3.49 38.865-9.358-8.274-5.872-37.759-1.773-40.41 4.871C1543.629 2191.539 1547.82 2189.385 1547.82 2189.385z"></path></g><path fill="#28264A" d="M1475.293,2268.886c0.012-0.132,78.674,9.291,122.827,12.21c4.931,0.324,9.828-12.027,54.053-9.485
				c30.647,1.313,40.313,11.743,41.309,12.895c1.865,2.148,4.365,21.464-4.397,22.37c-8.76,0.91-207.592-11.447-210.704-15.083
				C1472.219,2284.6,1475.293,2268.886,1475.293,2268.886z"></path></g><path fill="#3A3A60" d="M1186.286,1312.66c0,0,1.852,164.718,65.804,216.169c63.951,51.451,343.778,58.456,343.778,58.456
			s169.725-173.259,148.291-224.185c-21.435-50.925-164.236-29.386-174.658-44.21c-10.422-14.824-14.03-87.498-14.03-87.498
			L1186.286,1312.66z"></path><path fill="#313055" d="M1744.133,1363.102c-21.391-50.908-164.216-29.425-174.678-44.183
			c-10.368-14.853-14.011-87.527-14.011-87.527l-369.158,81.268c0,0,1.868,164.683,65.762,216.153
			c63.985,51.469,343.844,58.474,343.844,58.474S1765.618,1414.01,1744.133,1363.102z M1460.54,1528.438
			c-78.838,18.869-114.521-23.166-129-56.794c-14.478-33.72,112.186-86.124,206.811-101.91c94.531-15.786,150.203,0,150.203,0
			C1670.713,1431.757,1539.378,1509.568,1460.54,1528.438z"></path><path fill="#2F5798" d="M1790.914,1444.368l-107.69,590.911l-95.398,119.305
			C1587.827,2154.585,1748.209,1427.554,1790.914,1444.368z"></path><path fill="#3A3A60" d="M1551.63,1432.978c-36.932,176.832-68.283,663.131-55.669,688.985
			c9.749,19.981,72.631,23.731,94.594,18.939c21.963-4.792,197.505-650.877,200.359-696.533
			c2.946-47.14-35.352-106.134-91.226-108.388C1652.245,1334.067,1564.291,1372.359,1551.63,1432.978z"></path><path fill="#313055" d="M1645.772 1987.829c-26.715 88.085-48.387 151.604-55.205 153.101-21.952 4.764-84.817 1.026-94.624-18.963-10.929-22.326 11.022-387.933 40.913-601.19l8.501-22.51c0 0-39.607 460.326-8.781 537.39C1554.323 2079.932 1605.512 2034.534 1645.772 1987.829zM1623.727 1355.161c26.622-13.171 55.112-19.99 75.942-19.149 29.798 1.215 54.552 18.494 70.713 41.473C1734.605 1368.799 1674.262 1354.132 1623.727 1355.161z"></path></g><g><path fill="#FAB19E" d="M1574.293,918.773c0,0,80.805,40.268,86.969,54.493c6.164,14.224,40.268,68.637,38.373,81.15
			c-1.895,12.513-22.239,35.651-41.51,34.235c-19.27-1.417-152.065-68.414-152.065-68.414L1574.293,918.773z"></path><linearGradient id="a" x1="1491.325" x2="748.574" y1="1283.514" y2="594.825" gradientTransform="rotate(-1.564 112.912 -11961.938)" gradientUnits="userSpaceOnUse"><stop offset="0" stop-color="#c9a923"></stop><stop offset="1" stop-color="#ffd600"></stop></linearGradient><path fill="url(#a)" d="M1458.688,817.871c0,0,136.264,99.146,169.799,112.46c11.713,4.65-86.715,131.964-95.412,135.26
			c-8.693,3.298-64.582-46.88-85.115-66.32c-20.532-19.434-27.607-78.419-29.289-93.293c-1.185-10.488-14.571-89.517-2.242-107.745
			C1431.25,800.669,1450.666,812.536,1458.688,817.871z"></path><path fill="#C9A923" d="M1533.101,1065.598c-8.723,3.289-64.611-46.855-85.138-66.288c-16.698-15.809-24.448-57.619-27.796-80.823
			c31.987,29.623,82.413,73.571,116.24,90.008c37.607,18.203,68.988-45.429,83.567-82.343c3.355,1.858,6.189,3.221,8.504,4.174
			C1640.209,935.002,1541.736,1062.311,1533.101,1065.598z"></path></g><linearGradient id="b" x1="1656.883" x2="925.017" y1="1221.11" y2="542.513" gradientTransform="matrix(.9965 -.077 .0473 .8471 -49.815 427.13)" gradientUnits="userSpaceOnUse"><stop offset="0" stop-color="#c9a923"></stop><stop offset="1" stop-color="#ffd600"></stop></linearGradient><path fill="url(#b)" d="M1259.871,836.38
		c-30.355,122.334-96.849,419.694-98.36,530.584c91.212,59.184,231.088-1.025,313.649-30.276
		c82.561-29.25,97.291-24.821,175.099-103.681c-124.212-68.289-164.558-291.867-175.12-322.314
		c-10.564-30.447-37.405-117.855-63.396-112.175C1385.751,804.198,1273.041,824.219,1259.871,836.38z"></path><path fill="#C9A923" d="M1460.778,943.52c14.127,72.74,53.945,151.438,52.275,160.178c-8.222,43.008-157.68-65.945-116.17-65.535
		c41.509,0.411,43.243,29.801,51.425-8.911C1456.49,990.542,1457.562,926.958,1460.778,943.52z"></path><path fill="#C9A923" d="M1571.418,1157.225c-0.56,21.578-6.259,42.78-27.463,35.961c-40.167-12.982-147.496-66.881-161.507-97.985
		c-14.011-31.2-85.096-176.734-85.096-176.734l-46.238-46.237c-32.694,137.032-88.18,393.536-89.58,494.7
		c91.168,59.223,231.097-1.026,313.671-30.265c82.482-29.238,97.24-24.753,175.051-103.684
		C1618.87,1215.793,1592.902,1188.703,1571.418,1157.225z M1278.015,1362.728c-6.258-3.177,14.292-18.776,6.819-23.913
		c-7.473-5.138-24.94-6.071-22.138-10.183c2.709-4.109-14.478-51.002,6.352-34.188c23.26,18.682,139.275,22.046,136.847,27.465
		C1403.465,1327.418,1284.367,1365.808,1278.015,1362.728z"></path><path fill="#E06020" d="M1242.314 965.938c0 0-19.913 417.383-7.124 417.793C1247.982 1384.145 1253.776 1009.558 1242.314 965.938zM1463.467 886.664c-.184-.098 49.182 177.743 61.341 182.655C1524.807 1069.318 1479.302 894.937 1463.467 886.664z"></path><g><g><g><g><path fill="#3C5FAD" d="M1203.277,406.942c15.107,77.038,45.123,185.348,64.571,286.941c0,0,89.037-41.608,172.065-117.293
						C1439.913,576.589,1266.914,451.222,1203.277,406.942z"></path><path fill="#2F5798" d="M1242.632,434.604c-0.838,4.172-3.099,8.788-8.631,12.604c-7.473,5.26-15.621,5.185-21.285,4.217
						c-3.549-15.753-6.793-30.691-9.451-44.514C1213.569,414.035,1227.179,423.679,1242.632,434.604z"></path><g><path fill="#224E82" d="M1210.835,431.947c0,0,8.701,4.034,12.645-1.449c3.945-5.483-1.951-12.749-1.951-12.749
							s8.125-3.275,7.117-11.925c-1-8.647-11.824-4.731-11.824-4.731s0.143-7.07-4.578-7.726c-4.72-0.655-7.921,4.933-8.955,8.149
							c0,0-8.395-1.723-11.181,2.677c-2.787,4.407-0.915,11.877,2.931,14.604c0,0-5.382,12.294,2.972,16.501
							C1206.366,439.505,1210.835,431.947,1210.835,431.947z"></path><path fill="#3C5FAD" d="M1201.376,428.017c0,0,6.245,5.092,10.538,1.409c4.298-3.683,0.974-10.851,0.974-10.851
							s7.241-1.014,8.16-8.313c0.922-7.296-8.636-6.306-8.636-6.306s1.532-5.766-2.163-7.274c-3.696-1.503-7.409,2.415-8.894,4.842
							c0,0-6.456-3.139-9.599-0.101c-3.142,3.037-3.123,9.545-0.551,12.572c0,0-6.826,8.968-0.896,14.134
							C1196.235,433.295,1201.376,428.017,1201.376,428.017z"></path></g><path fill="#929ED3" d="M1265.176,450.714c-0.434,1.146-1.172,2.127-2.168,3.003c-3.459,3.045-8.736,2.634-11.78-0.824
						c-2.938-3.439-2.675-8.519,0.675-11.584C1256.255,444.338,1260.693,447.494,1265.176,450.714z"></path><path fill="#929ED3" d="M1253.102 482.773c-5.813-6.702-15.955-7.421-22.656-1.608-6.698 5.811-7.42 15.953-1.608 22.654 5.812 6.7 15.954 7.42 22.655 1.608C1258.193 499.617 1258.914 489.474 1253.102 482.773zM1265.18 523.183c-3.492 3.03-3.868 8.317-.839 11.812 3.032 3.493 8.32 3.869 11.813.838 3.493-3.029 3.87-8.318.839-11.812C1273.962 520.528 1268.676 520.152 1265.18 523.183z" opacity=".5"></path><path fill="#929ED3" d="M1251.28,575.339c-2.329,2.359-5.21,3.781-8.213,4.347
						c-2.426-10.481-4.915-20.918-7.336-31.119c5.418-1.571,11.418-0.247,15.704,4.052
						C1257.581,558.932,1257.55,569.13,1251.28,575.339z" opacity=".25"></path><path fill="#929ED3" d="M1278.492,589.432c-3.493,3.032-3.869,8.318-0.839,11.813c3.031,3.493,8.318,3.869,11.812,0.839
						c3.492-3.03,3.869-8.32,0.838-11.813C1287.273,586.777,1281.986,586.402,1278.492,589.432z"></path><path fill="#929ED3" d="M1272.027,653.077c-3.31,2.849-7.462,4.206-11.577,3.84
						c-2.117-10.033-4.342-20.087-6.523-30.077c6.442-3.501,14.679-2.211,19.696,3.56
						C1279.41,637.148,1278.668,647.27,1272.027,653.077z" opacity=".5"></path><path fill="#929ED3" d="M1330.653,497.689c-0.462,0.695-1.013,1.264-1.673,1.811
						c-3.633,2.79-8.959,2.035-11.684-1.643c-2.286-3.04-2.221-7.041-0.136-9.893
						C1321.687,491.248,1326.169,494.468,1330.653,497.689z" opacity=".25"></path><path fill="#929ED3" d="M1326.005,518.865c-5.812-6.702-15.955-7.421-22.655-1.608c-6.699,5.811-7.421,15.953-1.609,22.654
						c5.813,6.701,15.955,7.421,22.656,1.609C1331.097,535.707,1331.817,525.565,1326.005,518.865z"></path><path fill="#929ED3" d="M1334.823,559.156c-3.491,3.03-3.868,8.318-0.838,11.812
						c3.031,3.492,8.32,3.87,11.813,0.838c3.492-3.03,3.87-8.318,0.839-11.812C1343.605,556.502,1338.318,556.125,1334.823,559.156z
						" opacity=".5"></path><path fill="#929ED3" d="M1349.396,600.773c-5.812-6.701-15.954-7.42-22.655-1.609
						c-6.699,5.812-7.419,15.953-1.608,22.654c5.812,6.701,15.954,7.42,22.656,1.608
						C1354.487,617.616,1355.208,607.473,1349.396,600.773z" opacity=".25"></path><path fill="#929ED3" d="M1401.115,548.477l0.045,0.064c1.878,5.864,0.155,12.518-4.767,16.856
						c-6.641,5.806-16.828,5.107-22.613-1.642c-5.851-6.705-5.108-16.827,1.597-22.678c2.972-2.521,6.545-3.76,10.134-3.881
						l0.044,0.064C1391.017,541.217,1396.284,545.027,1401.115,548.477z"></path></g></g><path fill="#224E82" d="M1439.883,576.578c-83.035,75.684-172.012,117.35-172.012,117.35c-1.409-6.913-2.654-13.797-4.132-20.811
				c16.584-18.305,42.509-40.425,73.483-61.793c31.667-21.846,62.116-38.471,85.352-47.342
				C1433.405,571.845,1439.883,576.578,1439.883,576.578z"></path><path fill="#3A3A60" d="M1439.913,576.589c5.105,8.496-28.789,41.516-75.65,73.843c-46.86,32.328-89.764,52.288-95.893,44.499
				c-6.203-7.884,27.536-41.127,75.427-74.166C1391.688,587.727,1434.747,567.991,1439.913,576.589z"></path></g><path fill="#28264A" d="M1447.247,614.233c-3.594,8.058-13.774,12.141-16.4,20.674c-2.046,6.571,1.187,13.467,2.321,20.182
			c1.614,9.972-1.335,20.523-7.798,28.235l1.764-2.994c-11.034,14.334-25.265,26.111-41.54,34.188
			c-8.024,4.01-16.653,7.088-25.674,7.247c-12.878,0.191-25.013-5.612-37.734-7.153c-9.713-1.112-16.264,27.38-22.932,20.286
			c-8.643-9.122-24.121-34.224-31.27-44.579c-5.025-7.278,9.174-18.914,4.658-26.566c-1.756-3.05,134.229-102.028,160.652-88.557
			c4.941,2.519,3.542,15.146,8.025,18.458C1447.485,598.343,1450.396,607.257,1447.247,614.233z"></path><path fill="#FAB19E" d="M1306.877,805.13l-2.825-125.356l69.455,44.506l8.868,55.674c4.627,9.987,17.83,31.678-17.446,43.845
			C1314.288,841.262,1301.986,807.132,1306.877,805.13z"></path><path fill="#E06020" d="M1382.375,779.954l23.51,19.794c0,0,1.271,24.661-37.123,38.856
			c-38.397,14.196-74.117-15.488-74.117-15.488l11.995-28.478c0,0,16.888,26.877,51.287,15.013
			C1385.807,800.037,1382.375,779.954,1382.375,779.954z"></path><path fill="#EBA090" d="M1382.457,780.515l-8.971-56.207l-37.332-23.911l-20.104,15.872
			C1316.05,716.269,1327.558,782.131,1382.457,780.515z"></path><path fill="#FAB19E" d="M1283.161,691.457c5.108,11.834,16.135,1.987,16.135,1.987s1.692,16.859,4.293,20.218
			c11.907,15.391,46.682,56.625,101.104,42.511c66.313-17.203,31.91-157.178,31.91-157.178
			c-0.074-0.467-44.203,22.152-74.829,11.886c-24.367-8.193-20.599,52.94-47.997,29.014c0,0,1.639,14.443-9.758,19.864
			c-3.138,1.49-10.997-8.491-10.997-8.491c-0.647-1.063-7.642-12.12-20.339-1.797
			C1259.389,660.367,1277.995,679.581,1283.161,691.457z"></path><path fill="#28264A" d="M1287.979,660.174c0,0,3.943,7.59,3.258,11.442l-8.408-1.256l8.416,4.942l-0.239,9.6
			C1291.007,684.901,1302.892,669.752,1287.979,660.174z"></path><g><path fill="#EBA090" d="M1372.461 682.257c2.02 4.4-1.733 10.443-8.387 13.5-6.653 3.056-13.683 1.97-15.705-2.429-2.021-4.398 1.735-10.438 8.388-13.499C1363.408 676.773 1370.44 677.862 1372.461 682.257zM1414.522 674.666c.036 4.838 6.004 8.714 13.326 8.657 7.319-.058 13.225-4.028 13.186-8.867-.036-4.839-6.004-8.716-13.325-8.658C1420.387 665.855 1414.483 669.825 1414.522 674.666z"></path><path fill="#28264A" d="M1412.248 650.869c1.093 6.191 5.416 10.604 9.65 9.854 4.239-.748 6.785-6.373 5.691-12.566-1.093-6.192-5.416-10.603-9.653-9.856C1413.702 639.052 1411.155 644.674 1412.248 650.869zM1343.214 663.065c1.093 6.192 5.416 10.601 9.65 9.855 4.239-.75 6.786-6.376 5.693-12.567-1.094-6.191-5.416-10.605-9.651-9.855C1344.667 651.247 1342.12 656.874 1343.214 663.065zM1388.115 680.717c.601-.943 1.852-1.218 2.785-.615 2.466 1.573 5.457.84 7.375.056-8.606-10.674-8.529-27.81-7.401-27.85 1.114-.045 2.823 17.201 11.886 26.884.307.33.45.739.496 1.154.223.814-.062 1.708-.803 2.201-.182.119-2.809 1.831-6.211 2.37-2.319.367-5.004.191-7.516-1.415C1387.788 682.903 1387.513 681.654 1388.115 680.717z"></path><g><path fill="#28264A" d="M1429.401,621.828c0.351,2.488-10.74,2.978-16.986,3.862c-6.245,0.884-12.873,6.805-13.225,4.316
					c-0.351-2.492,6.781-11.074,13.027-11.959C1418.46,617.164,1429.047,619.336,1429.401,621.828z"></path></g><g><path fill="#28264A" d="M1365.184,636.846c0.353,2.49-10.743,2.981-16.986,3.865c-6.244,0.885-12.874,6.804-13.226,4.314
					c-0.353-2.49,6.783-11.074,13.025-11.959C1354.246,632.181,1364.83,634.354,1365.184,636.846z"></path></g></g></g><g><path fill="#28264A" d="M1186.558,1138.632c0,0,22.291,22.179,88.654,10.799c66.365-11.377,76.22-31.926,76.22-31.926
			s-11.711-32.015-72.606-33.51C1217.935,1082.497,1186.558,1138.632,1186.558,1138.632z"></path><path fill="#FAB19E" d="M1337.297,1072.803l-136.406,15.945c0,0,16.434,133.49,33.766,158.057
			c9.899,14.028,54.446,31.301,66.056,30.228c11.612-1.075,32.695-50.194,32.695-50.194L1337.297,1072.803z"></path><linearGradient id="c" x1="2926.321" x2="2122.29" y1="861.37" y2="115.861" gradientTransform="rotate(12.667 -764.857 -4734.158)" gradientUnits="userSpaceOnUse"><stop offset="0" stop-color="#c9a923"></stop><stop offset="1" stop-color="#ffd600"></stop></linearGradient><path fill="url(#c)" d="M1186.558,1138.632
			c48.377-28.586,101.936-33.811,164.874-21.127c-0.852-68.064-21.094-189.299-27.068-214.019
			c-3.423-14.167-49.394-69.454-62.954-68.278c-9.198,0.799-57.739,52.714-60.004,62.278
			C1199.149,907.049,1174.264,1106.254,1186.558,1138.632z"></path><path fill="#C9A923" d="M1335.254,964.697c7.551,47.385,15.694,110.389,16.191,152.813c-23.477-4.763-45.455-6.945-66.596-6.45
			C1352.04,1103.395,1327.977,1004.881,1335.254,964.697z"></path><path fill="#FFD600" d="M1228.139,1052.444c-16.224,0.643-27.846-155.567,2.478-157.342
			C1269.849,892.8,1263.806,1051.028,1228.139,1052.444z"></path><path fill="#E06020" d="M1351.433,1117.505c3.759-1.505-8.677-183.289-19.238-183.44
			C1327.63,934.001,1347.674,1119.012,1351.433,1117.505z"></path></g><g><path fill="#FAB19E" d="M1320.901,1148.389l351.586,118.53l11.99,76.872c0,0-384.41-48.477-429.413-83.943
			c-21.153-16.672-35.06-75.564-24.159-94.981C1248.666,1133.243,1320.901,1148.389,1320.901,1148.389z"></path><path fill="#EBA090" d="M1258.157,1187.077c23.061-32.445,74.285-38.041,76.619-32.361c2.337,5.681-21.285,37.548-23.413,30.105
			c-2.129-7.44,8.335-21.637,8.335-21.637S1250.432,1197.943,1258.157,1187.077z"></path><g><path fill="#FAB19E" d="M1725.378,1235.137c8.24,6.62,1.491,14.998,1.491,14.998l-20.633,25.616l79.893,23.318
				c0,0,1.474,8.965-4.662,10.683c-2.809,0.781-43.133-6.633-43.133-6.633l53.342,15.607c0,0,0.226,9.828-5.551,9.598
				c-2.763-0.11-53.708-6.426-53.708-6.426l49.893,13.574c0,0-4.939,9.496-7.078,9.421c-11.025-0.4-49.924-5.547-49.924-5.547
				l36.803,8.48c0,0-0.901,9.288-8.667,7.697c-9.301-1.899-55.166-6.043-68.965-11.73c-18.074-7.449-76.732-15.081-76.732-15.081
				s14.302-63.022,15.104-68.351c7.605,1.722,34.827,7.497,34.827,7.497C1680.448,1260.922,1694.324,1247.095,1725.378,1235.137z"></path><path fill="#DB8F82" d="M1730.953 1300.652c-.18.656 4.966 2.61 11.486 4.363 6.524 1.757 11.954 2.648 12.132 1.992.177-.657-4.968-2.61-11.491-4.365C1736.559 1300.889 1731.13 1299.997 1730.953 1300.652zM1723.981 1319.463c-.146.663 4.753 2.312 10.944 3.68 6.193 1.368 11.331 1.94 11.478 1.278.147-.664-4.755-2.312-10.948-3.681C1729.263 1319.374 1724.125 1318.801 1723.981 1319.463zM1715.995 1336.501c-.162.656 3.847 2.233 8.958 3.52 5.115 1.286 9.394 1.797 9.558 1.137.167-.659-3.843-2.235-8.958-3.519C1720.442 1336.352 1716.162 1335.84 1715.995 1336.501z"></path><path fill="#DB8F82" d="M1718.702 1329.226c-.75.086-.733 2.932-1.93 5.877-1.137 2.988-3.092 4.912-2.737 5.475.285.644 3.542-.781 5.023-4.572C1720.531 1332.222 1719.273 1329.068 1718.702 1329.226zM1726.071 1313.143c-.75.087-.733 2.932-1.93 5.878-1.137 2.988-3.092 4.912-2.737 5.474.285.645 3.541-.785 5.024-4.572C1727.897 1316.14 1726.641 1312.985 1726.071 1313.143zM1732.146 1295.636c-.747.082-.733 2.927-1.927 5.874-1.14 2.988-3.092 4.912-2.74 5.474.287.646 3.542-.782 5.026-4.569C1733.973 1298.628 1732.718 1295.477 1732.146 1295.636z"></path></g></g><path fill="#EBA090" d="M1382.457 698.429c4.195 4.554 8.749 21.542-7.19 31 0 0 9.283 4.357 14.888-10.694C1395.759 703.683 1382.457 698.429 1382.457 698.429zM1412.91 690.32c-2.15 5.806.093 23.251 18.43 25.943 0 0-6.931 7.558-17.835-4.235C1402.601 700.235 1412.91 690.32 1412.91 690.32z"></path><path fill="#28264A" d="M1394.358,707.974c2.89-0.525,8.11-2.203,10.36-0.182c2.25,2.021,6.062,16.168,5.666,17.699
		c-0.395,1.53-14.01,2.45-14.822,1.53C1394.752,726.102,1394.358,707.974,1394.358,707.974z"></path><g><path fill="#DFE4EF" d="M1650.775,583.425c-9.428-17.809-29.681-26.19-47.491-21.999c-17.809,4.19-41.903,19.904-34.919,46.442
			c6.984,26.539,22.697,30.031,36.665,26.19c13.968-3.842,27.238-16.063,27.936-25.142c0.698-9.079-1.047-16.063-9.079-20.253
			c-8.032-4.19-15.015-4.539-23.745,2.095c-8.73,6.635-6.984,17.46-4.191,19.904c2.794,2.445,9.079,1.047,7.333-3.841
			c-1.746-4.888,1.746-11.872,9.777-11.872c8.032,0,15.365,11.173,6.286,20.951c-9.079,9.777-31.776,11.524-37.015-0.349
			c-5.921-13.422-4.888-23.745,9.428-35.968c14.317-12.221,45.745-7.681,50.633,12.921c4.889,20.603-2.794,31.776-36.316,49.934
			c-28.837,15.621-132.176,45.978-182.407,60.281c0.345,0.796,0.65,1.611,0.954,2.41c0.677,1.782,1.29,3.585,1.961,5.368
			c0.664,1.762,1.469,3.411,2.329,5.082c0.087,0.167,0.171,0.336,0.255,0.504c36.741-10.338,92.001-26.834,111.259-33.837
			c26.889-9.777,81.996-30.803,99.87-46.443C1657.06,621.138,1660.204,601.234,1650.775,583.425z"></path><path fill="#929ED3" d="M1579.942,595.361c0.33-1.039,0.745-2.077,1.25-3.114c0-0.001,0-0.001,0-0.001
			c-3.896-2.157-7.363-5.044-10.216-8.455c-0.292,0.532-0.57,1.071-0.835,1.62c-0.004,0.01-0.009,0.02-0.014,0.03
			c-0.26,0.545-0.507,1.097-0.737,1.659c0,0.001-0.001,0.002-0.001,0.002C1572.41,590.416,1575.987,593.214,1579.942,595.361z
			 M1635.199,580.723c0.48,0.422,0.944,0.862,1.389,1.319c0.001,0.001,0.002,0.002,0.004,0.003c0.444,0.456,0.87,0.929,1.277,1.42
			l0,0c3.875-1.068,7.858-1.704,11.867-1.882c-0.001-0.001-0.002-0.002-0.002-0.004c-0.332-0.558-0.675-1.107-1.029-1.646
			c-0.003-0.004-0.006-0.009-0.009-0.013c-0.353-0.536-0.716-1.062-1.089-1.578c0,0,0,0,0-0.001
			C1643.4,578.664,1639.234,579.457,1635.199,580.723L1635.199,580.723z M1587.232,621.017c-0.191-0.117-0.378-0.238-0.561-0.362
			c-0.085-0.059-0.167-0.12-0.251-0.18c-0.42-0.3-0.822-0.617-1.199-0.959c-2.861,2.16-5.938,4.018-9.173,5.554
			c0.001,0,0.001,0,0.001,0c0.72,0.97,1.466,1.862,2.232,2.678c0,0,0,0,0.001,0c3.486-1.724,6.792-3.808,9.851-6.214
			c-0.201-0.106-0.395-0.219-0.589-0.333C1587.437,621.141,1587.333,621.08,1587.232,621.017z M1617.136,617.914
			c-0.875,0.687-1.817,1.324-2.822,1.899c1.38,2.649,2.76,5.299,4.14,7.948c0.954-0.643,1.877-1.311,2.767-2.003
			C1619.859,623.143,1618.497,620.528,1617.136,617.914z M1637.667,619.668c-0.375,0.471-0.768,0.941-1.181,1.412
			c-0.001,0.002-0.001,0.003-0.002,0.003c-0.412,0.47-0.844,0.94-1.295,1.41c-0.001,0.001-0.001,0.002-0.002,0.004
			c1.861,4.471,3.388,9.08,4.546,13.79c0.19-0.162,0.383-0.323,0.567-0.483c0.415-0.363,0.816-0.732,1.214-1.101
			c0.347-0.325,0.689-0.653,1.027-0.982C1641.273,628.928,1639.65,624.23,1637.667,619.668
			C1637.667,619.668,1637.667,619.668,1637.667,619.668z M1557.625,675.851c1.189-0.453,2.395-0.913,3.618-1.384
			c0.71-4.828,1.195-9.685,1.453-14.557c-1.136,0.397-2.284,0.794-3.443,1.194C1558.955,666.041,1558.407,670.964,1557.625,675.851z
			 M1604.826,643.1c-0.106,0.055-0.213,0.11-0.32,0.165c-0.436,0.224-0.881,0.45-1.344,0.679c-0.371,4.706-1.056,9.383-2.041,14.003
			c1.28-0.579,2.549-1.161,3.806-1.746c0.001-0.001,0.001-0.001,0.003-0.001c0.884-4.655,1.471-9.365,1.753-14.095
			c-0.205,0.112-0.399,0.221-0.605,0.332C1605.677,642.656,1605.256,642.877,1604.826,643.1z M1615.435,595.276
			c1.095,0.299,2.142,0.796,3.1,1.456c1.87-2.701,3.992-5.218,6.351-7.498c-0.327-0.193-0.65-0.388-1-0.571
			c-0.724-0.377-1.44-0.723-2.149-1.036C1619.406,589.973,1617.296,592.531,1615.435,595.276z M1603.285,606.821
			c-0.362-1.014-0.495-2.117-0.413-3.23c-2.987-1.164-5.879-2.549-8.659-4.145c-0.324,1.22-0.491,2.427-0.529,3.575
			c3.136,1.719,6.404,3.192,9.774,4.396C1603.412,607.222,1603.358,607.027,1603.285,606.821z M1611.728,560.371
			c-2.235,4.154-4.106,8.501-5.581,12.981c0.611-0.098,1.227-0.182,1.847-0.25c0.002,0,0.005,0,0.007,0
			c0.618-0.069,1.24-0.122,1.865-0.161c1.517-4.312,3.409-8.481,5.665-12.463C1614.266,560.386,1612.997,560.347,1611.728,560.371z"></path><g><path fill="#929ED3" d="M1588.639 567.095c-.005.003-.01.006-.014.008-.544.3-1.085.609-1.622.928-.001.001-.001.001-.001.001.382 4.533 1.31 9.017 2.77 13.325.001-.001.002-.001.003-.003.303-.28.61-.56.928-.843.336-.3.679-.601 1.034-.904.009-.007.017-.015.025-.023.256-.217.518-.429.785-.636-1.266-4.14-2.026-8.406-2.271-12.718C1589.727 566.507 1589.182 566.797 1588.639 567.095zM1625.426 575.1c3.49-2.866 7.33-5.286 11.424-7.19l0 0c-.54-.367-1.088-.721-1.642-1.063-.018-.012-.036-.024-.055-.035-.562-.346-1.13-.679-1.705-.997h-.001c-4.285 2.196-8.289 4.931-11.889 8.133l0 0C1622.875 574.264 1624.168 574.648 1625.426 575.1zM1624.256 631.523c-1.003.694-2.061 1.396-3.154 2.106.369 4.76.521 9.536.47 14.311.568-.304 1.127-.61 1.681-.913.02-.011.039-.021.059-.033.554-.304 1.101-.609 1.64-.912.002-.001.004-.001.005-.002-.011-4.867-.235-9.73-.671-14.579C1624.279 631.508 1624.267 631.516 1624.256 631.523zM1540.547 667.384c-.31 5.194-.93 10.367-1.862 15.488.002-.001.006-.002.007-.003.249-.089.492-.175.734-.262.333-.119.667-.239.983-.353.007-.003.014-.006.02-.008.621-.224 1.261-.459 1.911-.696.846-5.064 1.397-10.174 1.65-15.301-.001 0-.002.001-.002.001C1542.846 666.628 1541.7 667.005 1540.547 667.384zM1580.248 609.987c-.337-1.12-.612-2.22-.822-3.305l0 0c-3.499 1.298-7.247 1.82-10.963 1.535.001.005.003.009.004.013.321 1.197.662 2.338 1.018 3.441C1573.137 611.785 1576.805 611.213 1580.248 609.987L1580.248 609.987zM1643.071 595.779c.117.658.22 1.309.306 1.948.004.024.009.048.011.073.086.652.161 1.297.214 1.932v.001c4.358 2.115 8.465 4.727 12.227 7.775 0 0 0 0 0-.001.138-1.372.195-2.751.185-4.133C1652.003 600.37 1647.656 597.824 1643.071 595.779zM1580.246 653.563c-.299 4.588-.857 9.159-1.714 13.68-.027.138-.057.276-.083.415 1.225-.5 2.455-1.004 3.687-1.513.002-.001.004-.001.006-.003.796-4.599 1.328-9.244 1.578-13.904-.003.002-.006.003-.009.004C1582.58 652.677 1581.426 653.118 1580.246 653.563zM1600.142 590.758c-.087.066-.167.136-.252.203 1.204 2.845 2.802 5.514 4.743 7.922.652-.883 1.48-1.673 2.478-2.31-1.831-2.308-3.313-4.865-4.391-7.603C1601.877 589.499 1601.018 590.092 1600.142 590.758zM1623.485 607.317c3.234.167 6.449.96 9.397 2.309.034-.237.066-.475.084-.71.075-.965.115-1.899.128-2.815-3.11-1.262-6.417-1.978-9.788-2.114C1623.521 605.049 1623.588 606.166 1623.485 607.317zM1603.178 634.516c.555-3.646.618-7.355.188-11.017-1.122.166-2.248.27-3.367.317.452 3.764.335 7.578-.353 11.317C1600.828 634.989 1602.007 634.779 1603.178 634.516z"></path></g><path fill="#3C5FAD" d="M1431.286,717.694c-1.869-5.429-3.737-10.859-5.606-16.287c-0.179-0.522-0.693-0.667-1.12-0.34
			c-0.125,0.096-0.249,0.191-0.372,0.286c-0.12-0.013-0.247-0.002-0.381,0.073c-8.312,4.622-16.895,8.715-25.7,12.254
			c-0.405,0.162-0.443,0.549-0.278,0.853c-0.033,0.112-0.046,0.233,0,0.377c1.05,3.351,2.1,6.702,3.151,10.054
			c0.112,0.358,0.439,0.598,0.817,0.508c9.663-2.313,19.328-4.627,28.991-6.941C1431.118,718.451,1431.407,718.045,1431.286,717.694
			z"></path><path fill="#929ED3" d="M1427.99,719.262c0,0-8.032-17.46-5.938-18.857c2.096-1.396,111.045-35.966,113.139-33.871
			c2.095,2.095,5.237,17.459,4.539,18.856c-0.698,1.397-106.155,33.522-108.25,34.571
			C1429.387,721.008,1427.99,719.262,1427.99,719.262z"></path></g><path fill="#FAB19E" d="M1562.695,718.648c0,0,173.972,269.644,181.465,300.12c7.493,30.476-4.863,69.765-29.161,76.392
		c-24.297,6.626-64.58-8.534-64.58-8.534l-138.363-346.154L1562.695,718.648z"></path><path fill="#DB8F82" d="M1564.624,871.986c0,0,67.096,139.503,58.406,146.12C1614.339,1024.723,1566.41,876.457,1564.624,871.986z"></path><path fill="#EBA090" d="M1525.848,752.044c18.916-2.365,34.416-15.107,35.204-13.53c0.788,1.577-7.685,11.048-13.399,13.708
		C1536.75,757.298,1521.353,752.606,1525.848,752.044z"></path><g><g><path fill="#FAB19E" d="M1503.017,743.348c0,0-4.522,5.766-16.199-1.458c-14.144-8.749-22.822-25.501-32.658-30.43
				c-9.836-4.927,14.315-11.774,36.69,2.691C1510.58,726.907,1505.585,736.833,1503.017,743.348z"></path></g></g><g><g><g><path fill="#FAB19E" d="M1478.731,670.897c0,0-9.218-10.083-17.708,6.186c-8.49,16.272,1.091,23.969,6.304,21.112
					c5.212-2.856,8.77-4.301,9.276-14.393c0,0,3.434,8.089,9.757,5.757c6.321-2.333,8.38-8.71,8.38-8.71s1.565,7.814,4.981,8.232
					c3.415,0.418,10.624-4.424,11.837-13.096c0,0,4.425,7.783,12,0.338c7.573-7.445,4.201-8.224,4.201-8.224l12.089-2.814
					c0,0-8.864-14.407-25.777-4.251c0,0-10.086-7.828-16.462,5.73C1497.609,666.765,1484.847,654.746,1478.731,670.897z"></path></g></g><g><path fill="#DB8F82" d="M1478.805 671.045c.522.257-.517 3.092-1.04 6.671-.582 3.579-.392 6.535-.885 6.661-.541.172-1.665-3.017-1.029-6.956C1476.442 673.473 1478.386 670.801 1478.805 671.045zM1497.511 666.369c.244.144.052.946-.199 2.218-.254 1.277-.559 3.053-.874 5.038-.631 3.971-1.155 7.245-1.698 7.224-.524-.014-.868-3.401-.213-7.531.327-2.06.868-3.907 1.489-5.17C1496.636 666.876 1497.296 666.238 1497.511 666.369zM1514.071 661.035c.234.179-.102.982-.452 2.284-.343 1.313-.668 3.164-.866 5.266-.411 4.201-.41 7.713-.956 7.768-.514.068-1.402-3.483-.971-7.962.209-2.23.791-4.247 1.521-5.58C1513.094 661.471 1513.887 660.883 1514.071 661.035z"></path></g></g><path fill="#DB8F82" d="M1474.297,706.938c0.095-0.245,3.309,0.025,6.893,1.353c3.502,1.499,8.372,3.645,13.183,7.06
		c4.79,3.4,8.574,7.436,10.241,11.027c1.823,3.542,1.408,6.221,1.137,6.138c-0.26,0.004-0.337-2.362-2.326-5.491
		c-1.841-3.174-5.534-6.823-10.159-10.111C1483.868,710.444,1474.02,707.569,1474.297,706.938z"></path><path fill="#28264A" d="M1551.63,1452.074c0,0-31.622,236.143-31.28,220.682C1520.692,1657.295,1533.441,1466.489,1551.63,1452.074
		z"></path><g><path fill="#DFE4EF" d="M1213.453 2384.314c29.951 34.095-25.387 244.853-43.731 172.902C1151.379 2485.266 1196.496 2365.01 1213.453 2384.314zM825.774 2286.65c21.394 41.154-201.698 221.292-197.823 154.421S813.663 2263.35 825.774 2286.65zM1119.28 2460.542c6.394 6.135-8.771 190.809-39.631 169.091C1047.012 2606.664 1095.563 2437.79 1119.28 2460.542zM862.338 2175.957c2.801 11.866-170.762 123.401-149.41 72.808C734.28 2198.173 851.95 2131.943 862.338 2175.957zM793.988 2663.26c-19.228-16.701 139.627-235.8 122.704-183.559C899.769 2531.942 847.583 2709.813 793.988 2663.26zM1044.565 2416.124c12.241 9.831-22.056 141.017-66.64 101.416C933.341 2477.939 1032.325 2406.294 1044.565 2416.124zM767.062 2462.491c-7.149 7.715-19.131 73.098 25.453 33.498C837.099 2456.387 801.741 2425.064 767.062 2462.491z"></path></g></g><g><g><path fill="#FFD600" d="M1030.27,413.148c9.547,0.553,19.235,2.061,26.151,7.145c0.827,0.609,3.06,2.802,0.519,0.156
			c-2.555-2.662-0.563-0.516-0.044,0.236c0.682,0.983,1.269,2.046,1.745,3.179c1.335,3.167,1.772,6.853,1.427,10.761
			c-0.722,8.184-4.599,16.692-6.605,25.018c-2.151,8.931-0.685,15.44,4.39,20.758c3.051,3.198,6.121,6.025,10.598,7.567
			c5.115,1.76,10.991,2.121,16.958,1.965c-1.771,0.048-2.223-4.244-4.055-4.195c-5.231,0.138-10.37-0.124-15.015-1.375
			c-2.475-0.666-4.8-1.608-6.829-2.925c-0.407-0.266-0.806-0.538-1.186-0.834c1.608,1.248,0.441,0.446,0.209-0.154
			c-0.392-1.011-0.971-1.892-1.311-2.945c-2.271-7.051,0.765-15.806,3.39-24.016c2.736-8.564,5.014-17.278,2.464-24.447
			c-1.733-4.871-5.553-8.561-9.247-11.775c-6.924-6.027-17.397-7.723-27.611-8.313
			C1028.04,409.059,1028.392,413.041,1030.27,413.148L1030.27,413.148z"></path></g><g><path fill="#FFD600" d="M674.597,1839.75c1.938,10.205,4.906,20.764,11.259,29.161c0.762,1.003,3.395,3.833,0.239,0.581
			c-3.175-3.269-0.625-0.706,0.244,0.004c1.135,0.932,2.342,1.779,3.607,2.525c3.536,2.09,7.492,3.341,11.572,3.814
			c8.543,0.992,16.981-1.282,25.494-1.616c9.13-0.359,16.215,2.584,22.554,9.086c3.812,3.909,7.235,7.758,9.5,12.819
			c2.584,5.781,3.799,12.066,4.482,18.338c-0.202-1.862-4.8-3.258-5.009-5.183c-0.596-5.497-1.602-10.982-3.583-16.159
			c-1.055-2.756-2.38-5.416-4.06-7.841c-0.338-0.487-0.682-0.967-1.049-1.432c1.547,1.966,0.534,0.561-0.133,0.187
			c-1.124-0.63-2.136-1.432-3.297-2.016c-7.771-3.912-16.59-2.58-24.892-1.566c-8.659,1.055-17.542,1.595-25.478-2.636
			c-5.392-2.875-9.834-7.702-13.753-12.292c-7.35-8.607-10.628-20.035-12.7-30.954
			C669.96,1836.517,674.217,1837.744,674.597,1839.75L674.597,1839.75z"></path></g><g><path fill="#FFD600" d="M759.634,487.761c-7.317,4.446-15.29,8.144-23.912,8.937c-1.021,0.095-2.458-0.194-3.385,0.16
			c1.024,0.028,2.048,0.055,3.072,0.082c-0.801-0.072-1.599-0.169-2.393-0.293c-1.387-0.213-2.762-0.5-4.121-0.846
			c-3.56-0.909-7.191-2.158-10.447-3.873c-5.902-3.11-10.619-8.545-13.579-14.464c-2.256-4.513-4.527-11.372-1.067-15.902
			c1.686-2.211,4.447-3.487,7.099-4.094c0.763-0.176,1.669-0.141,2.403-0.367c-3.504,1.083-4.71-0.586-2.045,0.154
			c1.65,0.459,3.187,1.292,4.306,2.61c4.029,4.75,2.256,13.216-1.653,17.49c-2.307,2.52-5.571,3.958-8.878,4.594
			c-0.576,0.11-1.16,0.196-1.743,0.263c-0.296,0.029-0.592,0.058-0.886,0.086c-2.624,0.081-2.237,0.132,1.159,0.153
			c-2.283-0.625-4.74-0.706-7.051-1.352c-6.89-1.928-13.081-5.405-17.219-11.393c-11.282-16.333-3.917-36.469,3.475-52.656
			c-0.337,0.738-6.35-1.066-6.727-0.244c-7.727,16.921-15.658,39.494-1.28,55.437c5.481,6.079,13.874,9.078,21.858,9.941
			c6.855,0.74,15.432,1.505,21.468-2.448c5.887-3.855,9.469-15.09,3.431-20.403c-2.419-2.131-5.625-2.253-8.676-2.378
			c-3.439-0.143-6.897-0.415-10.217,0.707c-7.536,2.547-8.341,9.443-5.937,16.169c2.702,7.565,8.507,14.7,15.79,18.239
			c7.743,3.76,15.795,4.79,24.277,5.005c10.795,0.274,20.48-3.522,29.606-9.069C764.785,488.964,761.259,486.774,759.634,487.761
			L759.634,487.761z"></path></g><g><path fill="#B9C1E1" d="M1495.551,411.703c-2.651,0.705-5.314,1.349-8.005,1.87c-1.95,0.377-3.906,0.627-5.866,0.939
			c-0.37,0.059-2.463,0.245-0.328,0.088c2.912-0.214-3.423-0.118-2.65-0.086c-5.871-0.247-11.743-1.423-17.03-4.046
			c-10.539-5.225-15.714-15.082-19.316-25.773c-3.407-10.105-6.244-21.066-14.946-28.046c-6.239-5.004-14.129-7.005-22.014-7.143
			c-12.079-0.213-24.093,1.745-35.566,5.44c2.52-0.811,5.675,0.29,8.222-0.531c3.375-1.086,6.773-2.084,10.228-2.88
			c1.739-0.4,3.489-0.757,5.249-1.05c0.793-0.131,1.587-0.246,2.382-0.354c0.768-0.113,1.537-0.209,2.308-0.283
			c-1.161,0.069-2.321,0.14-3.482,0.211c4.208-0.874,10.026,0.452,14.087,1.698c8.633,2.649,15.213,8.762,19.189,16.818
			c4.781,9.689,6.269,20.746,11.967,30.026c6.368,10.367,17.367,15.62,29.276,16.379c11.446,0.733,23.477-0.876,34.515-3.809
			C1501.181,411.86,1498.164,411.009,1495.551,411.703L1495.551,411.703z"></path></g><g><path fill="#C9A923" d="M1835.762,739.035c-0.108,2.74-0.278,5.475-0.572,8.2c-0.215,1.976-0.553,3.917-0.832,5.883
			c-0.052,0.371-0.49,2.426-0.012,0.34c0.654-2.846-1.122,3.236-0.863,2.507c-1.966,5.537-4.821,10.802-8.884,15.082
			c-8.098,8.53-19.042,10.572-30.32,10.864c-10.66,0.278-21.971-0.24-31.204,6.018c-6.62,4.487-10.858,11.438-13.313,18.932
			c-3.764,11.48-5.432,23.536-5.282,35.589c-0.032-2.647,1.95-5.336,1.915-8.013c-0.043-3.545,0.004-7.086,0.262-10.623
			c0.13-1.779,0.305-3.557,0.544-5.325c0.108-0.796,0.233-1.588,0.363-2.381c0.118-0.767,0.254-1.529,0.41-2.289
			c-0.276,1.13-0.55,2.26-0.825,3.39c0.405-4.279,3.386-9.448,5.775-12.961c5.074-7.469,12.857-11.956,21.726-13.381
			c10.668-1.714,21.672,0.123,32.219-2.589c11.782-3.029,20.043-11.993,24.278-23.148c4.073-10.723,6.081-22.693,6.531-34.106
			C1837.571,733.702,1835.869,736.332,1835.762,739.035L1835.762,739.035z"></path></g><g><path fill="#C9A923" d="M1860.526,2160.197c-2.739,0.132-5.479,0.201-8.219,0.146c-1.985-0.042-3.95-0.209-5.932-0.313
			c-0.374-0.021-2.459-0.278-0.34,0.017c2.892,0.403-3.322-0.835-2.573-0.64c-5.687-1.476-11.182-3.86-15.801-7.534
			c-9.204-7.323-12.193-18.047-13.469-29.256c-1.207-10.595-1.678-21.907-8.719-30.56c-5.048-6.202-12.342-9.818-20.023-11.609
			c-11.764-2.747-23.92-3.357-35.914-2.155c2.633-0.263,5.487,1.475,8.149,1.208c3.527-0.354,7.06-0.615,10.606-0.667
			c1.784-0.026,3.57-0.007,5.352,0.076c0.803,0.038,1.603,0.094,2.404,0.154c0.775,0.05,1.546,0.119,2.316,0.208
			c-1.149-0.177-2.299-0.351-3.449-0.526c4.298,0.031,9.708,2.549,13.416,4.62c7.884,4.404,13.033,11.764,15.227,20.475
			c2.639,10.478,1.769,21.6,5.391,31.871c4.047,11.472,13.697,18.919,25.18,22.164c11.038,3.122,23.136,4.076,34.547,3.528
			C1865.997,2161.534,1863.228,2160.068,1860.526,2160.197L1860.526,2160.197z"></path></g><g><path fill="#DFE4EF" d="M730.317,689.15c2.6-0.874,5.176-1.805,7.709-2.855c1.836-0.76,3.602-1.63,5.413-2.45
			c0.341-0.154,2.189-1.153,0.323-0.107c-2.549,1.428,2.791-1.986,2.164-1.532c4.759-3.442,9.012-7.662,11.978-12.764
			c5.912-10.168,4.795-21.244,1.907-32.15c-2.728-10.309-6.402-21.019-2.988-31.639c2.446-7.613,7.928-13.633,14.429-18.095
			c9.961-6.834,21.064-11.825,32.674-15.065c-2.55,0.712-4.576,3.369-7.152,4.089c-3.416,0.953-6.801,1.993-10.124,3.235
			c-1.67,0.623-3.327,1.293-4.956,2.016c-0.736,0.328-1.46,0.669-2.185,1.018c-0.702,0.328-1.396,0.674-2.081,1.036
			c1.008-0.581,2.014-1.163,3.022-1.745c-3.992,1.591-8.116,5.904-10.818,9.183c-5.742,6.967-7.861,15.698-6.738,24.609
			c1.351,10.721,6.206,20.766,6.566,31.65c0.404,12.16-5.879,22.605-15.395,29.805c-9.149,6.92-20.073,12.21-30.9,15.848
			C725.706,692.382,727.754,690.01,730.317,689.15L730.317,689.15z"></path></g><g><path fill="#3C5FAD" d="M1043.707,1270.622c-5.282,15.818-18.847,28.257-35.061,32.154c-0.188,0.045-0.043,3.777-0.043,4.119
			c0,0.325,0.171,4.09,0.043,4.12c16.214-3.897,29.779-16.338,35.061-32.156c0.374-1.12,0.041-2.941,0.041-4.119
			c0-0.971,0-1.941-0.011-2.913C1043.732,1271.498,1043.608,1270.92,1043.707,1270.622L1043.707,1270.622z"></path></g><g><path fill="#B9C1E1" d="M1572.702,516.157c-16.654-0.871-32.262-10.626-40.342-25.214c-0.094-0.169-3.651,0.967-3.982,1.059
			c-0.312,0.086-3.894,1.254-3.958,1.139c8.082,14.587,23.689,24.342,40.344,25.212c1.18,0.062,2.844-0.745,3.98-1.06
			c0.935-0.259,1.872-0.518,2.803-0.788C1571.863,516.414,1572.387,516.139,1572.702,516.157L1572.702,516.157z"></path></g><g><path fill="#FFD600" d="M2018.919,852.126c15.919,4.97,28.622,18.289,32.837,34.423c0.048,0.187,3.776-0.032,4.12-0.039
			c0.323-0.006,4.083-0.25,4.117-0.123c-4.215-16.135-16.918-29.453-32.839-34.423c-1.127-0.351-2.94,0.018-4.118,0.042
			c-0.971,0.02-1.942,0.039-2.911,0.068C2019.795,852.085,2019.219,852.221,2018.919,852.126L2018.919,852.126z"></path></g><g><path fill="#DFE4EF" d="M1734.037,1536.868c15.919,4.971,28.623,18.289,32.837,34.423c0.049,0.187,3.777-0.032,4.12-0.039
			c0.323-0.005,4.084-0.25,4.117-0.123c-4.215-16.135-16.918-29.453-32.839-34.423c-1.128-0.352-2.941,0.017-4.119,0.041
			c-0.969,0.02-1.941,0.039-2.911,0.069C1734.914,1536.827,1734.338,1536.963,1734.037,1536.868L1734.037,1536.868z"></path></g><g><path fill="#3C5FAD" d="M2272.06,760.948c9.547,0.552,19.234,2.061,26.151,7.145c0.827,0.609,3.06,2.802,0.519,0.156
			c-2.554-2.662-0.563-0.515-0.044,0.235c0.682,0.984,1.269,2.046,1.745,3.18c1.335,3.168,1.772,6.854,1.427,10.762
			c-0.722,8.183-4.599,16.691-6.605,25.017c-2.151,8.931-0.686,15.44,4.389,20.758c3.052,3.198,6.122,6.025,10.598,7.568
			c5.115,1.759,10.991,2.12,16.959,1.965c-1.772,0.046-2.223-4.244-4.055-4.196c-5.231,0.139-10.37-0.123-15.015-1.375
			c-2.475-0.666-4.8-1.608-6.829-2.926c-0.406-0.264-0.806-0.537-1.186-0.832c1.608,1.248,0.441,0.445,0.209-0.155
			c-0.392-1.011-0.971-1.892-1.311-2.944c-2.272-7.051,0.764-15.805,3.389-24.017c2.736-8.563,5.014-17.276,2.464-24.446
			c-1.733-4.871-5.553-8.561-9.247-11.776c-6.924-6.026-17.396-7.724-27.611-8.313
			C2269.829,756.858,2270.182,760.84,2272.06,760.948L2272.06,760.948z"></path></g><g><path fill="#3C5FAD" d="M608.972,1112.088c-0.146-9.562,0.652-19.334,5.219-26.603c0.547-0.869,2.571-3.256,0.118-0.528
			c-2.469,2.742-0.473,0.6,0.239,0.027c0.931-0.752,1.948-1.414,3.044-1.972c3.062-1.563,6.706-2.268,10.629-2.209
			c8.214,0.124,16.982,3.37,25.432,4.763c9.065,1.494,15.449-0.442,20.383-5.892c2.967-3.276,5.564-6.544,6.775-11.122
			c1.382-5.23,1.314-11.116,0.723-17.056c0.175,1.763-4.071,2.526-3.89,4.35c0.521,5.207,0.634,10.351-0.275,15.076
			c-0.484,2.517-1.254,4.905-2.421,7.024c-0.235,0.425-0.477,0.843-0.744,1.243c1.127-1.695,0.412-0.473-0.17-0.196
			c-0.979,0.464-1.816,1.107-2.841,1.522c-6.866,2.78-15.818,0.39-24.2-1.629c-8.74-2.104-17.596-3.741-24.561-0.675
			c-4.73,2.083-8.133,6.162-11.069,10.082c-5.506,7.344-6.434,17.913-6.278,28.144
			C605.055,1114.61,609.001,1113.967,608.972,1112.088L608.972,1112.088z"></path></g><g><path fill="#3C5FAD" d="M2193.442,2125.239c9.547,0.552,19.235,2.061,26.152,7.145c0.827,0.609,3.06,2.802,0.518,0.156
			c-2.555-2.662-0.564-0.516-0.044,0.235c0.682,0.983,1.269,2.047,1.745,3.18c1.335,3.167,1.772,6.854,1.427,10.761
			c-0.723,8.183-4.6,16.692-6.605,25.018c-2.151,8.931-0.686,15.439,4.389,20.758c3.051,3.198,6.121,6.025,10.599,7.568
			c5.115,1.759,10.99,2.121,16.958,1.964c-1.771,0.047-2.223-4.244-4.055-4.196c-5.232,0.139-10.369-0.123-15.015-1.375
			c-2.475-0.666-4.8-1.608-6.829-2.926c-0.406-0.265-0.805-0.538-1.185-0.833c1.607,1.248,0.441,0.446,0.209-0.155
			c-0.392-1.01-0.972-1.891-1.312-2.944c-2.272-7.05,0.765-15.804,3.39-24.016c2.737-8.564,5.014-17.278,2.464-24.447
			c-1.734-4.87-5.554-8.561-9.246-11.775c-6.924-6.027-17.398-7.723-27.613-8.313
			C2191.212,2121.15,2191.565,2125.131,2193.442,2125.239L2193.442,2125.239z"></path></g><g><path fill="#FFD600" d="M2123.487,367.192c7.684-3.777,15.954-6.747,24.614-6.769c1.026-0.003,2.431,0.412,3.385,0.142
			c-1.017-0.118-2.034-0.237-3.052-0.355c0.791,0.143,1.578,0.312,2.357,0.506c1.363,0.336,2.707,0.745,4.029,1.21
			c3.465,1.223,6.969,2.791,10.059,4.788c5.602,3.624,9.816,9.459,12.235,15.618c1.845,4.696,3.496,11.731-0.355,15.934
			c-1.876,2.051-4.74,3.076-7.436,3.445c-0.775,0.107-1.674-0.009-2.426,0.151c3.587-0.765,4.639,1.003,2.051,0.03
			c-1.601-0.605-3.059-1.572-4.056-2.984c-3.589-5.091-1.07-13.365,3.205-17.273c2.522-2.305,5.903-3.446,9.253-3.785
			c0.583-0.058,1.173-0.091,1.76-0.107c0.297-0.002,0.594-0.004,0.89-0.005c2.62,0.153,2.239,0.068-1.142-0.257
			c2.219,0.826,4.658,1.125,6.904,1.975c6.69,2.535,12.546,6.549,16.134,12.884c9.781,17.274,0.648,36.673-8.157,52.137
			c0.401-0.705,6.23,1.628,6.678,0.842c9.205-16.164,19.119-37.94,6.22-55.101c-4.917-6.544-13.01-10.28-20.884-11.851
			c-6.762-1.348-15.236-2.875-21.6,0.524c-6.208,3.315-10.778,14.186-5.237,20.017c2.22,2.338,5.402,2.745,8.429,3.141
			c3.413,0.449,6.833,1.029,10.24,0.208c7.733-1.865,9.149-8.661,7.355-15.576c-2.015-7.776-7.162-15.399-14.101-19.574
			c-7.376-4.435-15.303-6.18-23.733-7.15c-10.727-1.235-20.712,1.683-30.297,6.392
			C2118.464,365.534,2121.779,368.03,2123.487,367.192L2123.487,367.192z"></path></g><g><path fill="#FFD600" d="M1023.579,1565.436c-4.259,7.427-7.753,15.49-8.327,24.131c-0.069,1.023,0.255,2.452-0.075,3.387
			c-0.053-1.022-0.106-2.045-0.16-3.068c0.093,0.799,0.21,1.594,0.354,2.385c0.248,1.381,0.57,2.749,0.95,4.099
			c0.998,3.536,2.339,7.132,4.135,10.344c3.258,5.822,8.812,10.401,14.803,13.208c4.569,2.141,11.484,4.239,15.925,0.664
			c2.167-1.742,3.373-4.534,3.914-7.2c0.156-0.767,0.098-1.671,0.306-2.411c-0.992,3.531,0.705,4.694-0.101,2.048
			c-0.501-1.637-1.373-3.153-2.719-4.239c-4.851-3.908-13.269-1.922-17.443,2.095c-2.462,2.37-3.816,5.67-4.368,8.992
			c-0.095,0.579-0.166,1.165-0.218,1.75c-0.022,0.296-0.042,0.593-0.063,0.887c-0.014,2.626-0.076,2.24-0.182-1.156
			c0.682,2.267,0.825,4.721,1.529,7.016c2.101,6.838,5.734,12.939,11.825,16.925c16.613,10.864,36.557,2.991,52.552-4.809
			c-0.729,0.356,1.226,6.322,0.413,6.72c-16.719,8.152-39.083,16.653-55.386,2.684c-6.216-5.325-9.427-13.641-10.491-21.6
			c-0.915-6.835-1.896-15.388,1.903-21.522c3.705-5.983,14.845-9.849,20.31-3.947c2.192,2.365,2.395,5.566,2.597,8.613
			c0.23,3.434,0.59,6.884-0.448,10.232c-2.355,7.598-9.228,8.577-16.013,6.344c-7.631-2.509-14.91-8.131-18.632-15.324
			c-3.955-7.644-5.188-15.666-5.619-24.142c-0.546-10.784,3.004-20.562,8.317-29.826
			C1022.247,1560.319,1024.526,1563.786,1023.579,1565.436L1023.579,1565.436z"></path></g><g><path fill="#C9A923" d="M1881.823,333.544c16.452-2.733,33.791,3.434,44.823,15.94c0.128,0.145,3.357-1.73,3.659-1.89
			c0.287-0.152,3.535-2.064,3.622-1.965c-11.031-12.505-28.374-18.672-44.824-15.939c-1.165,0.194-2.618,1.34-3.659,1.891
			c-0.859,0.455-1.716,0.908-2.569,1.373C1882.586,333.112,1882.133,333.492,1881.823,333.544L1881.823,333.544z"></path></g><g><path fill="#B9C1E1" d="M2285.958,1568.734c-16.654-0.871-32.262-10.626-40.343-25.213c-0.093-0.17-3.651,0.967-3.982,1.058
			c-0.312,0.087-3.894,1.254-3.958,1.139c8.082,14.588,23.688,24.343,40.343,25.214c1.18,0.061,2.845-0.746,3.982-1.06
			c0.934-0.259,1.87-0.518,2.803-0.788C2285.118,1568.992,2285.643,1568.717,2285.958,1568.734L2285.958,1568.734z"></path></g><g><path fill="#FFD600" d="M1396.999,1392.049c5.695,15.674,2.801,33.85-7.48,46.982c-0.118,0.152,2.315,2.984,2.528,3.252
			c0.203,0.255,2.675,3.098,2.595,3.202c10.279-13.131,13.172-31.308,7.478-46.982c-0.405-1.111-1.796-2.33-2.528-3.252
			c-0.604-0.761-1.209-1.521-1.82-2.275C1397.564,1392.72,1397.105,1392.345,1396.999,1392.049L1396.999,1392.049z"></path></g></g><g><path fill="#B9C1E1" d="M859.466 1434.304c17.444 5.077-3.948 114.71-13.758 96.612C835.957 1512.926 855.925 1433.274 859.466 1434.304zM813.228 1425.525c24.978.548-57.099 266.357-80.718 244.679C708.89 1648.526 799.772 1425.229 813.228 1425.525zM780.962 1417.458c-1.274 16.623-33.458 49.857-30.833 37.688C755.043 1432.36 781.931 1404.818 780.962 1417.458z" opacity=".5"></path><g><g opacity=".74"><path fill="#FFD600" d="M885.983,1285.101c5.362-38.394-42.933-26.188-68.034-22.048c-13.406,16.366-23.719,38.468-21.461,59.009
				c2.26,20.538,14.129,30.921,7.008,50.835c8.864,0.829,12.705-3.338,17.783-7.402c-1.732,15.304-4.256,20.313-16.445,30.219
				c21.916-1.227,34.038-14.069,43.203-33.892c2.313-5.004,5.898-16.264,9.073-21.921c0.633,0.486,1.554,2.609,1.712,3.261
				c1.582,6.275,3.59,13.811-1.513,19.139c9.687-8.069,15.451-12.583,20.922-25.921
				C883.701,1323.041,885.736,1300.869,885.983,1285.101z"></path><path fill="#C9A923" d="M878.864,1273.923c3.936-26.141-30.69-17.771-48.814-14.951c-10.16,11.477-17.843,28.267-16.64,42.531
				c1.201,14.261,9.341,22.726,4.364,36.01c3.844,0.08,8.058,2.467,11.212-3.044c1.258,2.848-1.469,14.59-10.158,18.227
				c16.797-0.747,24.895-10.417,31.636-24.334c1.7-3.506,4.344-11.244,6.672-15.198c0.46,0.338,1.117,1.725,1.242,2.184
				c1.218,4.43,2.47,9.531-1.247,13.292c7.111-5.801,11.112-8.585,15.24-18.005C876.505,1301.221,878.763,1285.224,878.864,1273.923
				z"></path><path fill="#E06020" d="M863.356,1280.186c1.874-13.092-15.082-9.28-23.671-7.568c-5.113,6.78-8.714,14.778-8.523,23.28
				c0.195,8.501,3.577,14.369,0.349,22.566c3.773-1.682,6.123-4.335,7.937-7.937c-1.125,6.05-2.721,11.846-7.524,16.016
				c8.234-0.583,13.15-8.033,16.407-15.239c0.819-1.816,2.676-7.178,3.899-9.431c0.231,0.187,0.479,1.062,0.514,1.329
				c0.366,2.599,0.842,5.84-1.091,8.007c3.903-3.492,6.08-6.105,8.291-11.446C862.154,1294.42,863.169,1286.406,863.356,1280.186z"></path></g><g><path fill="#2F5798" d="M929.725,1272.496c0,0-4.645,10.943-8.858,14.422c-7.286,3.63-87.266,23.445-122.757-40.941
				c-2.592-4.701,2.117-16.364,4.487-17.865L929.725,1272.496z"></path><path fill="#929ED3" d="M973.818,1003.326c-1.256,7.912-3.828,24.047-5.086,31.894c-12.399,78.183-25.404,159.511-37.808,237.709
				c-4.579,12.306-130.336-9.822-133.597-47.634c28.426-69.42,71.677-178.833,99.324-241.977
				C902.5,984.834,970.447,1002.467,973.818,1003.326z"></path><path fill="#2F5798" d="M964.247,1000.852l6.799,19.892l-2.315,14.475c0,0,0,0-0.007,0.037c0.002,0.031-0.001,0.063-0.005,0.131
				l-3.95,24.809c-53.406-3.993-89.109-27.422-88.143-29.766c11.127-27.005,19.019-45.787,20.024-47.112L964.247,1000.852z"></path><g opacity=".5"><path fill="#3C5FAD" d="M958.664,1098.656l-95.957-34.215c3.847-9.448,7.531-18.446,10.964-26.807l89.602,31.951
					L958.664,1098.656z"></path></g><path fill="#929ED3" d="M858.434,1005.697c2.952,0.541,14.258,27.062,57.664,39.968c53.22,15.825,78.942-5.096,78.942-5.096
				l-41.577-121.797L858.434,1005.697z"></path><g opacity=".5"><path fill="#3C5FAD" d="M949.389,1156.785l-108.559-38.722c3.64-9.008,7.324-18.005,10.937-26.878l102.239,36.533
					L949.389,1156.785z"></path></g><g opacity=".5"><path fill="#3C5FAD" d="M940.143,1214.851l-121.095-43.223c3.497-8.617,7.142-17.626,10.916-26.81l114.832,40.97
					L940.143,1214.851z"></path></g><g opacity=".5"><path fill="#3C5FAD" d="M930.934,1272.928l-133.609-47.647c3.03-7.472,6.707-16.611,10.843-26.831l127.379,45.404
					L930.934,1272.928z"></path></g></g><g><path fill="#2F5798" d="M953.205,1009.511c-1.987,8.526-10.543,18.28-25.069,14.309c-14.527-3.965-17.943-15.889-15.937-24.52
				c2.01-8.634,10.179-19.975,25.31-16.607C952.641,986.061,955.191,1000.988,953.205,1009.511z"></path><path fill="#C9A923" d="M950.397,1006.149c-1.832,7.847-9.436,16.68-22.734,13.235c-13.292-3.449-16.241-14.578-14.453-22.37
				c1.791-7.794,9.105-18.322,22.947-15.214C950.002,984.915,952.229,998.301,950.397,1006.149z"></path><path fill="#FFD600" d="M947.201,1005.281c-1.526,6.519-7.737,13.811-18.832,11.008c-11.097-2.799-13.45-12.06-11.956-18.52
				c1.497-6.462,7.548-15.154,18.994-12.578C946.852,987.765,948.729,998.765,947.201,1005.281z"></path></g></g></g></svg>