<svg xmlns="http://www.w3.org/2000/svg" enable-background="new 0 0 3000 3000" viewBox="0 0 3000 3000" id="give-a-surprise-gift"><path fill="#DFE4EF" d="M2620.529 2663.914c89.24 33.424-370.928 47.044-370.928 47.044s-160.511 7.921-149.134 28.893c4.858 8.956-457.473 66.041-947.689 6.781-62.671-7.576-112.661-33.785-197.356-32.014-84.695 1.771-597.694-15.448-587.278-50.704C398.08 2562.589 2415.585 2587.155 2620.529 2663.914zM1193.758 364.266c-28.385 23.8-57.846 44.966-87.868 63.675l-50.984 29.328c-17.881 9.464-35.831 18.165-53.744 26.152l.053-.323-44.745 18.897c-53.196 20.519-105.153 35.175-152.755 45.613-113.088 24.802-216.17 29.626-283.886 29.211l-8.468 5.961c14.221.187 29.991.175 47.523-.245 21.277-.511 44.792-1.59 69.994-3.499 0 0 40.062 109.992 62.994 107.759 24.107-2.343 58.349-122.61 58.349-122.61 3.658-.622 63.782 99.864 86.103 96.104 32.559-5.48 41.515-125.363 41.515-125.363 3.467-1.011 75.306 91.622 100.135 83.489 30.806-10.088 21.954-127.801 21.954-127.801 7.376-3.256 91.816 75.944 119.345 63.021 23.322-10.951 4.9-102.948 4.9-102.948l.004-.001 1.334-28.095c24.454-16.067 48.462-33.83 71.759-53.334L1193.758 364.266z"></path><g><g><g><g><path fill="#FAB19E" d="M1470.871,750.192c5.522-0.526,8.732,3.317,8.935,9.908c0.429,14.036-0.565,28.034-0.847,42.524
					c19.891-19.187,41.706-39.425,61.599-58.612c2.959,2.035,3.536,5.847,2.932,8.739c-0.604,2.892-2.165,5.481-3.741,7.983
					c-6.174,9.798-12.963,19.208-20.323,28.153c15.548-11.55,26.429-20.204,41.487-30.449c1.943,2.014,3.096,6.001,2.159,8.641
					c-0.941,2.639-4.315,6.591-6.14,8.716c-8.3,9.652-15.083,17.543-23.381,27.199c11.326-7.28,23.934-13.682,35.26-20.962
					c1.823,1.173,2.705,4.925,2.216,7.038c-0.493,2.112-1.726,4.002-3.167,5.623c-7.327,8.223-18.001,17.988-24.117,24.321
					c8.077-4.126,16.881-7.563,24.951-11.689c4.864,7.023-5.332,11.15-9.951,16.28c-19.153,21.292-39.172,43.72-58.326,65.012
					c0,0-14.508,16.035-26.457,27.2c-0.631-0.667-39.345-35.167-43.568-38.624c5.444-5.726,12.321-25.078,12.321-25.078
					C1439.164,814.821,1452.101,801.024,1470.871,750.192z"></path><path fill="#DB8F82" d="M1513.452 794.032c.464.511 3.202-1.221 6.115-3.867 2.914-2.646 4.903-5.203 4.438-5.711-.46-.508-3.195 1.221-6.112 3.866C1514.98 790.964 1512.99 793.521 1513.452 794.032zM1526.208 809.856c.465.512 3.201-1.22 6.115-3.866 2.916-2.643 4.907-5.2 4.443-5.711-.463-.507-3.202 1.223-6.115 3.87C1527.735 806.791 1525.748 809.349 1526.208 809.856zM1536.894 825.643c.464.511 3.202-1.22 6.115-3.866 2.916-2.643 4.904-5.204 4.44-5.712-.462-.511-3.199 1.223-6.115 3.866C1538.421 822.577 1536.432 825.132 1536.894 825.643zM1527.989 833.499c.505-.47-4.867-7.02-11.995-14.632-7.122-7.614-13.308-13.402-13.815-12.932-.499.469 4.871 7.018 11.998 14.633C1521.304 828.18 1527.489 833.97 1527.989 833.499zM1476.957 843.95c.116.125.673-.231 1.6-.997.887-.799 2.329-1.848 3.569-3.642 2.787-3.266 5.615-9.084 5.553-15.88.044-6.783-2.511-12.476-4.603-16.175-2.203-3.704-4.143-5.581-4.401-5.362-.276.215 1.115 2.407 2.84 6.174 1.615 3.757 3.727 9.193 3.672 15.369.051 6.172-2.21 11.482-4.496 14.852-.981 1.815-2.181 3.007-2.833 3.987C1477.172 843.23 1476.838 843.824 1476.957 843.95zM1442.714 852.117c-.157.076.059.833.583 2.153.527 1.323 1.315 3.239 2.634 5.414 2.479 4.444 6.719 10.192 12.464 15.457 11.499 10.709 23.791 14.95 23.954 14.268.301-.612-11.156-5.733-22.261-16.096C1448.767 863.139 1443.457 851.713 1442.714 852.117z"></path></g><path fill="#E06020" d="M1025.636,825.426c0,0,30.316,6.73,42.827,17.499c4.431,3.814,177.188,180.393,183.055,178.95
				c5.868-1.444,179.746-167.382,179.746-167.382l60.383,51.396c0,0-174.078,259.834-243.017,285.922
				c-68.939,26.088-200.789-164.327-200.789-164.327S928.683,867.093,1025.636,825.426z"></path><path fill="#C6501C" d="M1247.771,1029.099c-2.228,0.912-19.173,30.076-15.79,31.955s15.79-22.181,15.79-22.181
				s-2.255,33.083,5.64,27.068C1261.305,1059.927,1256.041,1025.716,1247.771,1029.099z"></path><path fill="#D3581E" d="M1047.828,1027.504c0,0,131.864,190.411,200.77,164.278c68.973-26.065,243.076-285.917,243.076-285.917
				l-23.057-19.582c-36.693,54.269-147.303,212.866-201.171,236.927c-65.163,29.073-273.418-234.989-273.418-234.989l12.899-45.647
				C958.671,900.185,1047.828,1027.504,1047.828,1027.504z"></path></g><g><g><polygon fill="#FAB19E" points="1069.912 2531.259 1108.319 2633.835 1167.795 2613.915 1142.04 2506.16"></polygon><g><path fill="#28264A" d="M1109.566,2678.529c0,0,3.667,15.864,13.233,18.107c9.565,2.244,164.599-38.729,204.234-73.285
						l-3.48-18.06C1323.552,2605.291,1113.794,2640.409,1109.566,2678.529z"></path><path fill="#E06020" d="M1087.32,2586.265c0.354-0.568,55.17-15.265,58.281-12.099c3.111,3.167,10.716,8.526,12.801,7.254
						c2.086-1.27-0.179-27.42,3.729-26.722c3.91,0.7,19.975,34.597,22.394,34.673c2.418,0.077,91.87,9.732,91.87,9.732
						s20.367-18.044,35.948-8.971c15.58,9.075,13.985,22.888,13.985,22.888s-144.119,74.107-213.963,68.639
						C1096.057,2680.384,1080.16,2597.776,1087.32,2586.265z"></path><path fill="#C6501C" d="M1131.317,2630.292c2.614,8.577,11.684,13.411,20.262,10.799c8.577-2.613,13.412-11.684,10.799-20.261
						c-2.613-8.577-11.684-13.412-20.261-10.8C1133.539,2612.643,1128.705,2621.714,1131.317,2630.292z"></path><path fill="#C6501C" d="M1112.339,2681.655c69.871,5.462,213.981-68.635,213.981-68.635s0.653-5.479-2.761-11.83
						c-37.974,31.771-177.514,70.267-199.292,58.39c-19.762-10.803-26.477-56.412-28.828-75.686c-4.87,1.343-8.046,2.24-8.135,2.408
						C1080.168,2597.767,1096.037,2680.356,1112.339,2681.655z"></path><path fill="#28264A" d="M1191.889 2584.111c0 0-4.356 13.986-2.991 16.305 1.365 2.321 7.322 1.191 7.322 1.191s1.795-17.64.963-17.856C1196.351 2583.534 1192.764 2581.131 1191.889 2584.111zM1220.866 2587.062c0 0-4.356 13.985-2.991 16.305 1.364 2.32 7.32 1.19 7.32 1.19s1.796-17.641.964-17.856C1225.327 2586.485 1221.741 2584.082 1220.866 2587.062zM1243.532 2588.673c0 0-4.356 13.985-2.991 16.306 1.365 2.319 7.32 1.189 7.32 1.189s1.796-17.641.964-17.856C1247.992 2588.097 1244.407 2585.692 1243.532 2588.673z"></path></g></g><g><polygon fill="#FAB19E" points="655.697 2383.388 593.327 2473.426 643.604 2510.931 717.442 2428.332"></polygon><g><path fill="#28264A" d="M553.888,2492.38c0,0-11.821,11.196-8.911,20.58c2.909,9.383,116.758,122.313,166.628,138.988
						l13.811-12.148C725.416,2639.8,588.899,2476.718,553.888,2492.38z"></path><path fill="#E06020" d="M622.178,2426.47c0.668,0.018,41.104,39.84,39.95,44.126c-1.155,4.287-1.924,13.558,0.229,14.713
						c2.152,1.155,23.552-14.042,24.93-10.318c1.376,3.725-19.715,34.745-18.556,36.869c1.159,2.124,38.137,84.146,38.137,84.146
						s25.874,8.422,25.941,26.453c0.066,18.03-12.653,23.65-12.653,23.65s-136.891-86.736-167.549-149.73
						C545.447,2481.671,608.627,2426.126,622.178,2426.47z"></path><path fill="#C6501C" d="M606.499,2486.705c-6.073,6.597-5.647,16.867,0.949,22.94c6.598,6.073,16.867,5.647,22.94-0.95
						c6.073-6.596,5.647-16.867-0.95-22.939C622.842,2479.683,612.571,2480.109,606.499,2486.705z"></path><path fill="#C6501C" d="M552.598,2496.355c30.677,63.014,167.555,149.747,167.555,149.747s5.054-2.21,8.802-8.371
						c-46.626-16.654-150.492-117.477-151.28-142.272c-0.694-22.51,35.233-51.399,50.66-63.188
						c-3.624-3.521-6.006-5.804-6.197-5.796C608.638,2426.128,545.461,2481.639,552.598,2496.355z"></path><path fill="#28264A" d="M676.995 2515.546c0 0-14.264 3.326-15.573 5.678-1.309 2.351 2.682 6.916 2.682 6.916s16.12-7.386 15.884-8.212C679.751 2519.1 680.009 2514.791 676.995 2515.546zM689.126 2542.026c0 0-14.264 3.327-15.574 5.679-1.309 2.352 2.682 6.915 2.682 6.915s16.121-7.386 15.885-8.212C691.882 2545.579 692.14 2541.271 689.126 2542.026zM699.216 2562.385c0 0-14.265 3.327-15.574 5.679s2.682 6.915 2.682 6.915 16.121-7.386 15.884-8.212C701.972 2565.939 702.23 2561.63 699.216 2562.385z"></path></g></g><path fill="#3A3A60" d="M1124.473,1377.656c-3.6-11.073-21.746-14.85-21.746-14.85
				c-137.689-12.503-240.537-29.085-244.665,109.108c-3.895,130.379,72.803,446.716,73.143,448.439
				c-70.577,174.225-226.861,376.293-292.857,471.372c1.965,2.097,48.386,61.65,82.015,61.366
				c36.739-32.281,384.874-416.439,388.022-422.322c0.016-0.029,0.035-0.059,0.052-0.086c-0.001-0.002-0.002-0.002-0.004-0.002
				C1119.024,2010.864,1182.698,1556.714,1124.473,1377.656z"></path><path fill="#313055" d="M1094.107,2046.38c-64.488,68.99-341.34,378.211-373.784,406.726
				c-13.647-4.295,149.476-184.29,134.014-240.879c-8.103-29.437-19.557-61.496-30.286-88.742
				c40.447-64.515,79.122-133.94,107.12-203.169c-0.269-1.712-76.985-318.059-73.12-448.354
				c4.165-138.29,107.034-121.706,244.67-109.16c0,0,18.128,3.752,21.768,14.845c9.653,29.788,15.992,67.085,19.713,108.787
				c-25.324-5.878-51.669-0.448-51.669-0.448s-52.69,110.05-53.258,116.332C1038.747,1608.177,1070.238,1981.22,1094.107,2046.38z"></path><path fill="#3A3A60" d="M1050.874,1357.269c2.736,113.764-58.957,213.469-69.201,227.256
				c48.555,200.424,157.98,858.006,181.671,947.901c-56.127,60.541-89.896,27.124-92.651,27.942
				c-166.072-303.417-362.186-862.725-375.79-918.614c-31.917-144.48,13.842-261.104,40.482-313.008L1050.874,1357.269z"></path><path fill="#313055" d="M1050.815,1357.263c1.797,76.286-25.239,146.285-46.391,188.187c10.566-29.329,2.664-51.5-79.567-67.588
				c-105.772-20.644-180.324,110.47-180.324,110.47s89.66,338.938,115.367,369.757c25.707,30.817,66.582,23.431,57.423,33.684
				c-9.158,10.254-56.422,7.774-37.136,22.074c19.285,14.302,96.78,19.726,83.016,29.562c-13.763,9.837-65.65,30.472-55.816,58.271
				s147.69,404.44,198.07,421.449c21.1,7.079,38.888-1.76,52.385-14.47c2.156,10.009,3.968,17.984,5.455,23.71
				c-56.129,60.566-89.839,27.231-92.657,28.032c-166.003-303.419-362.162-862.729-375.787-918.624
				c-31.854-144.532,13.941-261.149,40.582-313.026L1050.815,1357.263z"></path></g><path fill="#28264A" d="M1043.834,1396.639c0,0-17.251,159.466-48.44,174.386l19.209-110.429c0,0-23.906,5.816-22.614-5.816
			c1.292-11.63,5.169-51.044,5.169-51.044L1043.834,1396.639z"></path><path fill="#E06020" d="M1164.687,1417.188c0,0-325.11,27.145-363.009,25.618c-37.898-1.528-116.847-63.333-116.847-63.333
			s152.688-546.471,179.77-553.295c27.082-6.825,126.094-15.72,173.487,8.754C1085.482,859.405,1164.687,1417.188,1164.687,1417.188
			z"></path><path fill="#D3581E" d="M1039.827,957.711c-51.511,25.176-150.029-40.623-156.166,0c-6.136,40.623-26.447,212.141,19.817,160.234
			c46.265-51.907,65.428-91.524,81.575-57.671c16.146,33.852,91.996,11.407,79.122-33.73
			C1051.3,981.408,1060.686,947.516,1039.827,957.711z"></path><path fill="#D3581E" d="M684.868,1379.435c0,0,78.913,61.837,116.828,63.342c37.916,1.579,362.972-25.577,362.972-25.577
			s-24.298-170.992-54.013-327.841c-0.752,70.94-1.355,241.931,10.606,265.327c15.271,29.715-5.039-5.943-33.852-18.807
			c-28.813-12.789,0,26.33,15.271,41.149c15.196,14.745-186.188,13.993-218.988,11.359c-32.798-2.633,32.8-56.571,51.833-108.402
			c19.032-51.757-79.968,50.102-110.66,39.795c-30.617-10.381,12.037-26.931,39.72-47.243c27.685-20.311-36.109-1.655-47.995-15.196
			c-9.177-10.532,20.312-286.917,33.777-408.258C803.802,953.574,684.868,1379.435,684.868,1379.435z"></path><path fill="#C6501C" d="M1090.479,989.941c-1.408-0.939,26.833,201.915,34.732,197.401
			C1133.11,1182.829,1102.327,997.84,1090.479,989.941z"></path><g><g><path fill="#E06020" d="M849.821,461.655c40.741-34.641,156.255,65.35,156.255,65.35s-93.053,90.932-142.026,99.393
					C864.05,626.399,809.079,496.3,849.821,461.655z"></path><path fill="#C6501C" d="M864.075,626.419c48.959-8.497,141.972-99.42,141.972-99.42s-2.745-2.353-7.517-6.276
					c-50.722,15.427-108.897,66.607-125.566,51.704c-15.164-13.596-20.132-81.967-21.57-111.97
					c-0.523,0.328-1.046,0.785-1.568,1.177C809.104,496.278,864.075,626.419,864.075,626.419z"></path><path fill="#FFD600" d="M864.05,626.399c4.878,6.97,40.625-9.63,79.845-37.077c39.219-27.446,67.059-55.347,62.181-62.317
					c-4.878-6.97-40.626,9.63-79.844,37.077C887.012,591.529,859.173,619.429,864.05,626.399z"></path><polygon fill="#FFD600" points="867.677 656.044 864.05 626.399 1006.076 527.005 1032.589 540.634"></polygon><path fill="#C6501C" d="M852.04,672.404c6.916,9.882,57.601-13.654,113.208-52.57c55.607-38.915,95.08-78.473,88.164-88.355
					c-6.916-9.882-57.6,13.655-113.208,52.57C884.597,622.963,845.125,662.522,852.04,672.404z"></path><path fill="#28264A" d="M867.756,664.353c4.898,7,47.532-14.383,95.225-47.759c47.692-33.377,82.385-66.108,77.486-73.107
					c-4.898-6.999-47.532,14.383-95.223,47.76C897.55,624.623,862.858,657.354,867.756,664.353z"></path></g><path fill="#FAB19E" d="M924.614,704.22l-2.339,92.394c0,0,5.389,33.398,50.843,40.198c14.431,2.159,21.442-8.248,24.291-23.458
				c-3.825-29.818-9.294-59.731-9.294-59.731L924.614,704.22z"></path><path fill="#DB8F82" d="M937.617,747.791c8.749,38.512,43.314,44.259,56.866,45.031c-3.173-21.615-6.347-39.199-6.347-39.199
				l-50.092-38.94C935.215,722.918,934.357,733.639,937.617,747.791z"></path><path fill="#FAB19E" d="M1027.541,583.36c0,0,33.276,80.281,25.461,123.009c-3.163,17.289-18.87,64.48-55.443,61.269
				c-36.572-3.212-102.464-93.62-84.243-130.639C931.527,599.979,1027.541,583.36,1027.541,583.36z"></path><path fill="#28264A" d="M908.079,727.814c-2.088,22.799,17.785,20.18,18.036,18.064c14.843,9.493,67.817,27.514,96.171,20.792
				c34.455-8.169,32.049-62.267,32.049-62.267s-23.917-9.204-42.071-0.56c-18.156,8.644-27.693,41.302-45.234,21.474
				c-17.541-19.827-35.588-72.236-24.558-93.483c33.576-1.329,69.582-7.777,88.792-27.019c42.263-42.333,44.467-70.95-0.727-57.813
				c-45.192,13.136-144.672,95.888-144.672,95.888C880.122,677.774,884.589,732.264,908.079,727.814z"></path><path fill="#C6501C" d="M995.502,799.346c0,0,19.544,15.93,22.438,22.684c2.894,6.754-14.918,28.875-30.468,34.842
				c-41.492,15.922-89.257-28.948-86.844-40.045c2.411-11.097,21.929-27.529,21.929-27.529s11.087,41.837,50.922,36.214
				C997.409,822.135,995.502,799.346,995.502,799.346z"></path><g><path fill="#FAB19E" d="M928.752,690.167c0,0,2.86-34.832-6.598-45.527c-6.966-7.876-18.882-7.956-24.023-5.194
					c-18.303,9.835-7.283,46.344,14.676,54.835C917.573,696.123,925.292,695.054,928.752,690.167z"></path><path fill="#28264A" d="M899.388,655.624c48.934,12.798-19.862,25.606,9.085,8.913
					C908.473,664.537,891.939,656.123,899.388,655.624z"></path></g><path fill="#28264A" d="M998.577 628.285c-1.728-4.56-17.853-.966-30.762 12.018C954.908 653.293 1002.529 638.74 998.577 628.285zM1029.846 618.494c1.551-3.84 13.657-1.711 22.831 8.307C1061.849 636.822 1026.297 627.294 1029.846 618.494zM986.213 650.976c4.246-5.083 27.662 6.641 12.599 8.061-14.969-9.97-11.707 9.026-19.594 6.091C976.162 661.834 978.532 655.819 986.213 650.976zM1037.4 640.666c4.246-5.084 27.662 6.641 12.599 8.06-14.969-9.969-11.708 9.026-19.595 6.092C1027.348 651.523 1029.719 645.509 1037.4 640.666zM1018.589 661.286c6.643 13.711 9.76 20.305 8.315 24.398-3.65 10.335-24.64-1.655-4.875-2.205C1022.029 683.478 1016.638 661.109 1018.589 661.286z"></path><path fill="#DFE4EF" d="M1035.468,717.456c-13.096,11.098-21.53,1.11-22.862,6.437c-1.331,5.327,5.993,14.206,17.535,11.542
				C1043.183,732.425,1046.339,708.244,1035.468,717.456z"></path></g></g><g><polygon fill="#DFE4EF" points="1251.298 1108.88 1158.741 1058.241 805.14 1064.807 856.167 1108.88"></polygon><polygon fill="#B9C1E1" points="1251.298 1108.88 1222.032 1482.139 883.811 1510.718 856.167 1108.88"></polygon><g opacity=".5"><g><g><path fill="#929ED3" d="M915.988,1146.196c0.498,12.8-8.237,23.068-19.497,23.002c-11.254-0.066-20.872-10.429-21.493-23.212
						c-0.622-12.859,8.081-23.297,19.459-23.25C905.84,1122.786,915.486,1133.321,915.988,1146.196z"></path></g><g><path fill="#929ED3" d="M990.601,1108.825c-0.742,11.876-9.401,21.026-20.04,20.903c-10.512,0-19.662-9.151-21.026-20.903
						H990.601z"></path></g><g><path fill="#929ED3" d="M1067.644,1146.973c0.045,12.866-9.15,23.181-20.528,23.115c-11.37-0.069-20.72-10.48-20.892-23.328
						c-0.172-12.924,8.999-23.418,20.497-23.37C1058.226,1123.439,1067.596,1134.029,1067.644,1146.973z"></path></g><g><path fill="#929ED3" d="M1144.343,1108.825c-0.866,12.123-10.016,21.648-20.903,21.648
						c-10.886-0.124-19.792-9.525-20.655-21.648H1144.343z"></path></g><g opacity=".5"><path fill="#929ED3" d="M1220.899,1147.756c-0.416,12.931-10.079,23.297-21.579,23.229
						c-11.49-0.065-20.566-10.532-20.277-23.445c0.292-12.989,9.94-23.538,21.555-23.487
						C1212.225,1124.102,1221.317,1134.748,1220.899,1147.756z"></path></g><g><path fill="#929ED3" d="M919.039,1224.477c0.481,12.339-8.103,22.211-19.164,22.116c-11.047-0.096-20.483-10.11-21.081-22.428
						c-0.601-12.394,7.955-22.432,19.122-22.353C909.095,1201.891,918.554,1212.068,919.039,1224.477z"></path></g><g opacity=".5"><path fill="#929ED3" d="M992.464,1188.805c0.268,12.598-8.615,22.689-19.834,22.607c-11.209-0.083-20.603-10.291-20.992-22.871
						c-0.391-12.652,8.467-22.916,19.796-22.851C982.774,1165.755,992.192,1176.137,992.464,1188.805z"></path></g><g><path fill="#929ED3" d="M1067.925,1225.642c0.048,12.397-8.981,22.314-20.152,22.218
						c-11.164-0.096-20.342-10.158-20.507-22.538c-0.166-12.453,8.84-22.538,20.125-22.459
						C1058.686,1202.942,1067.881,1213.172,1067.925,1225.642z"></path></g><g><path fill="#929ED3" d="M1143.505,1187.163c-0.182,12.656-9.522,22.796-20.854,22.717
						c-11.327-0.083-20.456-10.343-20.398-22.985c0.06-12.717,9.378-23.029,20.828-22.967
						C1134.536,1163.993,1143.684,1174.425,1143.505,1187.163z"></path></g><g opacity=".5"><path fill="#929ED3" d="M1218.355,1229.439c-0.402,12.46-9.879,22.425-21.167,22.328
						c-11.281-0.096-20.194-10.209-19.916-22.648c0.281-12.518,9.748-22.651,21.149-22.572
						C1209.83,1206.629,1218.757,1216.906,1218.355,1229.439z"></path></g><g opacity=".5"><path fill="#929ED3" d="M921.981,1299.949c0.464,11.9-7.972,21.397-18.837,21.277c-10.855-0.12-20.116-9.803-20.693-21.689
						c-0.578-11.951,7.834-21.607,18.802-21.501C912.229,1278.143,921.516,1287.981,921.981,1299.949z"></path></g><g opacity=".5"><path fill="#929ED3" d="M994.106,1265.848c0.261,12.147-8.467,21.851-19.483,21.741c-11.006-0.107-20.23-9.975-20.603-22.105
						c-0.378-12.198,8.326-22.067,19.452-21.974C984.601,1243.602,993.845,1253.632,994.106,1265.848z"></path></g><g><path fill="#929ED3" d="M1068.2,1301.474c0.045,11.955-8.823,21.497-19.796,21.374c-10.965-0.124-19.974-9.852-20.133-21.789
						c-0.157-12.013,8.688-21.71,19.766-21.603C1059.125,1279.562,1068.159,1289.448,1068.2,1301.474z"></path></g><g><path fill="#929ED3" d="M1142.402,1264.581c-0.175,12.202-9.339,21.953-20.469,21.843c-11.12-0.109-20.084-10.027-20.03-22.211
						c0.059-12.26,9.206-22.174,20.445-22.081C1133.595,1242.228,1142.577,1252.307,1142.402,1264.581z"></path></g><g><path fill="#929ED3" d="M1215.905,1303.014c-0.384,12.009-9.69,21.596-20.772,21.473c-11.074-0.124-19.833-9.9-19.562-21.895
						c0.268-12.065,9.556-21.809,20.751-21.703C1207.525,1280.998,1216.294,1290.932,1215.905,1303.014z"></path></g><g><path fill="#929ED3" d="M924.822,1372.762c0.447,11.484-7.852,20.628-18.525,20.483c-10.666-0.144-19.758-9.515-20.315-20.984
						c-0.56-11.536,7.714-20.831,18.486-20.696C915.255,1351.694,924.368,1361.213,924.822,1372.762z"></path></g><g><path fill="#929ED3" d="M995.693,1337.524c0.251,11.718-8.329,21.057-19.149,20.923c-10.814-0.134-19.865-9.68-20.227-21.383
						c-0.364-11.769,8.19-21.259,19.116-21.139C986.368,1316.041,995.443,1325.741,995.693,1337.524z"></path></g><g><path fill="#929ED3" d="M1068.466,1374.621c0.041,11.536-8.67,20.721-19.449,20.573c-10.772-0.148-19.62-9.56-19.775-21.081
						c-0.155-11.587,8.539-20.923,19.421-20.789C1059.555,1353.458,1068.424,1363.02,1068.466,1374.621z"></path></g><g opacity=".5"><path fill="#929ED3" d="M1141.34,1341.85c-0.168,11.769-9.168,21.153-20.098,21.016c-10.924-0.137-19.727-9.727-19.672-21.48
						c0.052-11.824,9.037-21.363,20.071-21.239C1132.685,1320.267,1141.509,1330.012,1141.34,1341.85z"></path></g><g><path fill="#929ED3" d="M1213.542,1376.497c-0.371,11.587-9.505,20.813-20.391,20.665
						c-10.879-0.148-19.483-9.604-19.222-21.177c0.258-11.642,9.378-21.019,20.37-20.882
						C1205.298,1355.237,1213.919,1364.841,1213.542,1376.497z"></path></g><g><path fill="#929ED3" d="M927.561,1443.056c0.433,11.089-7.727,19.899-18.222,19.731c-10.484-0.168-19.411-9.24-19.947-20.318
						c-0.539-11.141,7.598-20.092,18.188-19.937C918.176,1422.69,927.124,1431.902,927.561,1443.056z"></path></g><g opacity=".5"><path fill="#929ED3" d="M997.223,1409.22c0.24,11.312-8.189,20.304-18.824,20.146c-10.625-0.158-19.514-9.398-19.864-20.693
						c-0.354-11.36,8.057-20.5,18.792-20.356C988.068,1388.462,996.978,1397.846,997.223,1409.22z"></path></g><g><path fill="#929ED3" d="M1068.72,1445.225c0.041,11.136-8.522,19.981-19.113,19.813c-10.586-0.172-19.284-9.281-19.428-20.407
						c-0.151-11.188,8.391-20.177,19.084-20.019C1059.964,1424.769,1068.678,1434.022,1068.72,1445.225z"></path></g><g><path fill="#929ED3" d="M1140.316,1411.247c-0.162,11.36-9.003,20.391-19.74,20.233c-10.731-0.159-19.384-9.439-19.332-20.786
						c0.051-11.411,8.875-20.59,19.717-20.446C1131.808,1390.396,1140.478,1399.822,1140.316,1411.247z"></path></g><g><path fill="#929ED3" d="M1211.263,1447.413c-0.361,11.185-9.329,20.071-20.026,19.9c-10.686-0.172-19.146-9.323-18.896-20.497
						c0.251-11.236,9.206-20.266,20.006-20.108C1203.154,1426.868,1211.624,1436.163,1211.263,1447.413z"></path></g><g><path fill="#929ED3" d="M929.623,1506.853l-36.984,3.089c-0.368-10.635,7.669-19.047,17.937-18.923
						C919.606,1491.266,927.396,1498.069,929.623,1506.853z"></path></g><g><path fill="#929ED3" d="M998.701,1478.449c0.233,10.924-8.058,19.59-18.511,19.411c-10.442-0.179-19.177-9.127-19.514-20.04
						c-0.34-10.972,7.927-19.775,18.479-19.607C989.711,1458.378,998.466,1467.464,998.701,1478.449z"></path></g><g><path fill="#929ED3" d="M1139.275,1480.754c0,3.093-0.746,5.938-2.103,8.532l-32.407,2.721
						c-2.474-3.216-3.835-7.422-3.835-11.876c0-11.005,8.779-19.912,19.418-19.665
						C1130.987,1460.591,1139.523,1469.745,1139.275,1480.754z"></path></g></g></g><polygon fill="#929ED3" points="883.811 1510.718 831.134 1465.04 805.14 1064.807 856.167 1108.88"></polygon><polygon fill="#E4C012" points="863.454 1493.065 838.673 1093.767 1219.063 1091.214 1178.231 1068.982 816.159 1074.325 846.367 1480.012"></polygon><polygon fill="#FFD600" points="1108.418 1491.736 1126.551 1108.88 1042.031 1060.408 956.789 1061.993 1006.607 1109.653 1024.73 1498.812"></polygon><path fill="#E4C012" d="M1126.503,1108.914l-18.057,382.813l-83.737,7.051l-1.113-24.242c22.143-1.732,57.639-5.694,65.185-14.226
			c11.13-12.494,26.839-323.194,21.397-329.75c-5.692-6.429-98.825-18.923-98.825-18.923h96.846c0,0-10.14-8.903-14.845-7.917
			c-3.212,0.622-60.975-1.234-95.484-2.47l-41.062-39.21l85.221-1.609L1126.503,1108.914z"></path><g><path fill="#FFD600" d="M867.757,1064.46c0.261,3.089,2.292,6.405,5.756,9.439c0.107-0.007,0.11,0.096,0.213,0.093
				c12.133,10.669,40.826,19.26,75.788,14.7c23.546-3.155,41.115-7.77,52.42-11.446l-0.007-0.1c0.306-0.12,0.612-0.24,0.921-0.254
				c10.078-3.306,15.023-5.832,15.023-5.832s-12.735-39.004-31.146-65.397l-0.11-0.1c-10.377-14.899-22.627-25.874-35.338-23.366
				C915.912,989.053,866.335,1050.557,867.757,1064.46z M1001.267,1064.034c-0.508,0.233-0.705,0.446-1.01,0.563
				c-0.303,0.121-0.712,0.247-1.114,0.475c-0.409,0.123-0.807,0.35-1.216,0.474c-21.809,8.866-75.163,7.934-82.355,4.883
				c-5.818-2.498-1.124-9.982,7.57-16.116l0.1-0.107c2.399-1.674,5.01-3.257,7.838-4.642c13.24-6.361,7.24-26.761,18.274-35.806
				c6.552-5.505,23.875,13.597,36.699,29.823c0.113,0.199,0.229,0.402,0.229,0.402c2.763,3.481,5.313,6.873,7.529,9.762
				c1.56,2.199,3.003,4.093,4.113,5.591C999.477,1061.433,1001.267,1064.034,1001.267,1064.034z"></path><path fill="#C9A923" d="M997.924 1059.337c1.552 2.096 3.343 4.698 3.343 4.698-.508.233-.705.446-1.01.563-.2.117-.502.237-1.114.475l1.87 8.288.107.1.807 3.687c.306-.12.612-.24.921-.254 10.078-3.306 15.023-5.832 15.023-5.832s-12.735-39.004-31.146-65.397l-.11-.1L997.924 1059.337zM923.241 1054.206c2.399-1.674 5.01-3.257 7.838-4.642 13.24-6.361 7.24-26.761 18.274-35.806 6.552-5.505 23.875 13.597 36.699 29.823-2.186-4.344-20.167-38.626-31.974-38.757-12.745-.289-15.425 18.376-19.215 31.506C931.08 1049.564 925.733 1052.32 923.241 1054.206z"></path><path fill="#F1E0D2" d="M873.726,1073.992c12.133,10.669,40.826,19.26,75.788,14.7
				c23.546-3.155,41.115-7.77,52.42-11.446l-0.007-0.1c0.306-0.12,0.612-0.24,0.921-0.254l-1.728-3.432l-0.107-0.1
				c0,0-31.466,12.356-54.729,12.91C923.025,1086.819,890.385,1082.053,873.726,1073.992z" opacity=".47"></path></g><g><path fill="#FFD600" d="M1008.208,1080.555c0,0,0.103-0.007,0.416,0.079c54.456,12.47,126.266,3.769,152.834-15.374
				c1.997-1.446,3.784-2.986,5.257-4.511c20.821-22.27,1.042-93.829-119.359-108.869
				C950.934,939.836,1008.208,1080.555,1008.208,1080.555z M1017.651,1066.725c0,0-8.021-95.341,18.383-93.052
				c26.514,2.285,101.718,40.306,100.78,66.851c-0.093,2.282-1.025,4.296-2.691,6.137c-16.432,18.947-103.841,20.047-115.229,20.105
				C1018.066,1066.704,1017.651,1066.725,1017.651,1066.725z"></path><path fill="#C9A923" d="M1008.624 1080.634c54.456 12.47 126.266 3.769 152.834-15.374C1106.257 1087.197 1015.483 1081.118 1008.624 1080.634zM1017.651 1066.725c0 0-8.021-95.341 18.383-93.052 26.514 2.285 101.718 40.306 100.78 66.851 6.68-33.771-79.061-77.472-108.745-72.971C998.491 972.15 1017.651 1066.725 1017.651 1066.725z"></path></g></g><g><g><g><path fill="#FAB19E" d="M946.311,1545.922c11.341-2.981,9.79-8.557,9.79-8.557s9.444,5.045,15.229-0.554
					c5.785-5.601,1.395-13.573,1.395-13.573s9,5.952,15.591-0.394c6.591-6.345,2.427-16.271,2.427-16.271s30.611,17.38,33.481,3.511
					c0.907-4.384-9.766-11.95-18.52-21.133c-10.517-11.031-19.739-23.669-22.45-26.223c6.147,0.302,16.637,0.11,22.653-3.297
					c7.122-4.033,11.324-10.218,8.217-12.156c-5.396-3.366-47.445-8.77-68.203-17.904c-8.575-10.059-20.91-23.419-20.91-23.419
					l-53.479,49.462c0,0,7.606,7.617,22.157,23.958c6.812,10.748,27.823,46.599,27.823,46.599S937.079,1548.348,946.311,1545.922z"></path></g><g><path fill="#DB8F82" d="M972.715 1451.332c.486-.45 5.99 4.709 12.292 11.522 6.302 6.814 11.016 12.702 10.528 13.152-.486.451-5.99-4.708-12.292-11.522C976.941 1457.672 972.228 1451.783 972.715 1451.332zM985.768 1501.195c.488-.451 2.247.659 3.929 2.478 1.683 1.82 2.653 3.66 2.165 4.11-.487.452-2.246-.659-3.929-2.478C986.251 1503.485 985.281 1501.645 985.768 1501.195zM966.755 1516.784c.487-.45 2.469.9 4.427 3.017 1.957 2.116 3.149 4.197 2.661 4.648-.486.451-2.468-.901-4.426-3.016C967.46 1519.315 966.268 1517.234 966.755 1516.784zM950.938 1530.165c.535-.393 2.263 1.052 3.86 3.225 1.597 2.174 2.46 4.254 1.924 4.647-.535.393-2.263-1.051-3.86-3.225C951.265 1532.638 950.404 1530.557 950.938 1530.165z"></path></g></g><path fill="#E06020" d="M796.353,1164.175c0,0,65.872-219.066,72.48-255.262c6.608-36.196-4.232-82.735-4.232-82.735
			s-43.8,13.478-45.507,20.427c-1.709,6.95-168.31,284.211-164.59,344.041c3.721,59.829,230.851,290.494,230.851,290.494
			l66.808-54.527L796.353,1164.175z"></path><path fill="#C6501C" d="M843.952,1002.243l-42.371,159.991c0,0,162.562,270.849,149.2,262.374
			c-13.363-8.476-158.696-249.969-158.696-249.969s-62.031,5.022-69.162-5.942c-7.132-10.964,63.154-13.344,63.154-13.344
			S838.284,995.323,843.952,1002.243z"></path></g></g><g><g><g><path fill="#28264A" d="M2451.884,2154.483l12.823,5.496c9.233-3.474,3.097,183.494-44.759,168.588L2451.884,2154.483z"></path><path fill="#E4C012" d="M2407.983,2306.152c-6.073-80.814-39.573-140.478,1.49-163.245c11.3-2.607,24.157,7.8,45.534,12.292
				c12.546,2.635,8.646,102.34-11.529,149.011C2438.652,2315.373,2415.069,2351.954,2407.983,2306.152z"></path><path fill="#FAB19E" d="M2339.026,2103.491c0.894,1.645,77.525,48.992,77.525,48.992s8.977,5.565,6.083,24.541
				c-3.536,23.199-14.201,21.702-14.201,21.702l-90.902-25.482L2339.026,2103.491z"></path><path fill="#EAA98C" d="M2380.906,2130.291c0.153,10.75-1.081,26.417-8.395,39.822c4.771,1.297,19.661,14.022,32.459,12.891
				c9.648-0.797,10.988-19.361,9.967-31.502c1.033,0.599,1.621,0.946,1.621,0.946s8.965,5.616,6.11,24.58
				c-3.552,23.201-14.229,21.714-14.229,21.714l-90.927-25.537l21.465-69.709
				C2339.455,2104.365,2360.692,2117.723,2380.906,2130.291z"></path><path fill="#3A3A60" d="M2417.125,2200.364c-45.94-39.125-76.055-13.33-20.699,28.66c0,0,5.507,64.887,10.762,71.942
				C2412.447,2308.021,2436.332,2281.666,2417.125,2200.364z"></path></g><path fill="#E06020" d="M1990.484,1313.201c0,0-249.183,552.728-182.004,663.38c67.182,110.654,543.268,219.254,543.268,219.254
			l26.258-81.608l-332.767-241.37l120.007-286.055c0,0,104.849-99.645,129.773-165.439
			C2319.946,1355.57,1990.484,1313.201,1990.484,1313.201z"></path><path fill="#D3581E" d="M2309.037 2064.21l-250.723-181.899c2.118 95.638 1.353 183.231.686 229.926 143.209 49.489 292.691 83.599 292.691 83.599l8.979-27.644C2313.946 2153.62 2297.391 2090.216 2309.037 2064.21zM1956.567 1391.602l51.77 97.955c31.674 45.39 44.319 204.296 48.95 354.61l107.972-257.34c0 0 104.843-99.644 129.792-165.503 24.948-65.785-304.49-108.14-304.49-108.14S1976.772 1343.677 1956.567 1391.602z"></path><g><g><g><g><g><path fill="#FAB19E" d="M1971.517,986.892l-69.725,78.342c0,0-23.163,65.613,5.233,79.958
								c28.395,14.349,41.721,20.323,54.239,12.394c19.714-12.489,85.902-91.43,85.902-91.43L1971.517,986.892z"></path><path fill="#EBA090" d="M1938.264,1024.266c9.538,21.854,34.132,73.092,63.415,94.017
								c22.745-25.052,45.508-52.143,45.508-52.143l-75.643-79.249L1938.264,1024.266z"></path><path fill="#FFD600" d="M2080.405,830.296c0,0-12.901,3.672-20.605,13.578c-29.634,38.1-95.824,135.892-121.245,166.084
								c3.683,27.527,75.677,89.122,87.337,88.436c11.662-0.69,85.827-92.297,92.839-105.397
								C2125.742,979.893,2120.826,878.672,2080.405,830.296z"></path><path fill="#E4C012" d="M2003.783,1085.735c10.343,7.874,18.723,12.869,22.073,12.615
								c11.723-0.623,85.845-92.235,92.851-105.35c6.865-12.877,2.302-110.263-35.831-159.704
								c-3.796,31.231-12.956,96.858-18.782,115.241c-7.741,24.293-34.568,33.095-35.698,59.576
								C2027.441,1031.342,2033.576,1070.735,2003.783,1085.735z"></path></g><path fill="#FAB19E" d="M1961.642,1155.589c20.516-32.211-21.309-88.119-21.309-88.119l-209.24-257.708l-49.295,29.338
							c0,0,135.155,267.294,201.546,320.504C1913.415,1183.699,1951.361,1171.735,1961.642,1155.589z"></path></g><path fill="#252B4C" d="M2010.67,757.587c7.704-47.496,20.875-56.089,36.536-75.753c8.907-11.144,30.909-23.661,40.911-51.198
						c17.442-47.938,64.993-44.344,103.158-21.742c22.254,13.181,67.086,11.051,64.97,37.627
						c-2.333,29.286,67.987,29.486,95.103,78.18c27.077,48.738-40.025,69.203,23.85,137.155
						c63.92,67.987,114.119,140.131,27.009,206.749c-47.041,35.934-109.077,44.323-166.119,12.547
						c-48.534-27.023-93.541-83.077-122.578-175.943C2087.079,820.857,1998.612,832.051,2010.67,757.587z"></path><g><path fill="#28264A" d="M2240.516,2640.846l-2.003,12.884c5.287,7.556-165.445,45.321-163.037-1.469L2240.516,2640.846z"></path><path fill="#E4C012" d="M2093.002,2636.234c71.777-24.227,118.042-68.387,148.168-36.476
							c4.981,9.628-1.462,23.683-0.577,44.08c0.522,11.975-90.672,31.545-137.61,24.088
							C2091.76,2666.141,2053.166,2653.259,2093.002,2636.234z"></path><path fill="#FAB19E" d="M2240.637,2518.755c-0.997,1.44-8.405,85.306-8.405,85.306s-0.881,9.836-17.945,15.38
							c-20.864,6.777-24.086-2.762-24.086-2.762l-16.844-86.62L2240.637,2518.755z"></path><path fill="#EAA98C" d="M2235.82,2564.979c-8.914,4.638-22.52,10.18-36.785,9.693c0.917,4.526-3.465,22.303,2.846,32.52
							c4.713,7.724,20.782,1.056,30.496-4.889c-0.07,1.114-0.107,1.754-0.107,1.754s-0.935,9.845-17.975,15.409
							c-20.869,6.767-24.106-2.776-24.106-2.776l-16.809-86.664l67.237-11.312C2240.091,2519.48,2237.839,2542.824,2235.82,2564.979
							z"></path><path fill="#3A3A60" d="M2190.916,2620.002c24.787-50.669-5.552-71.963-30.751-12.104c0,0-57.477,20.017-62.651,26.413
							C2092.344,2640.707,2121.745,2656.23,2190.916,2620.002z"></path></g><path fill="#E06020" d="M2336.358,1364.101l-317.468-11.039l41.702,142.862c0,0,94.334,1057.054,111.674,1065.643
						c17.34,8.589,60.948-1.582,69.398-5.425c8.454-3.845,87.009-971.036,87.009-971.036S2367.972,1411.783,2336.358,1364.101z"></path><path fill="#D3581E" d="M2018.865,1353.06l41.726,142.864c0,0,94.34,1057.056,111.677,1065.643
						c17.334,8.589,60.944-1.539,69.396-5.459c8.452-3.811,87.007-971.003,87.007-971.003s39.3-173.321,7.686-221.004
						L2018.865,1353.06z M2137.083,1481.059c50.875,4.212,163.978-10.935,163.978-10.935c23.503-2.952-10.089,98.695-23.779,112.859
						c-13.692,14.164,12.349,72.302,15.345,129.635c2.99,57.447-63.188,812.34-63.188,812.34s-22.699,30.82-40.286,10.244
						c-17.583-20.576-35.028-523.612-34.45-540.228c0.578-16.62,61.725-52.756,68.224-64.175
						c6.607-11.416-63.223,16.099-84.905,17.564c-21.678,1.467,9.137-23.527,45.26-28.925c36.124-5.398-37.437-4.63-60.852-17.09
						C2099.021,1889.889,2086.211,1476.853,2137.083,1481.059z"></path><path fill="#C6501C" d="M2014.755,1368.724l42.798,142.899c0,0,24.601,321.114,33.97,314.786s-17.296-315.869-17.296-315.869
						l-27.511-132.044L2014.755,1368.724z"></path><path fill="#FFD600" d="M2365.341,1391.724c0,0-200.497,24.622-241.956,20.835c-41.46-3.789-189.769-44.74-191.22-50.805
						c-0.778-3.25,30.232-96.544,69.776-236.375c5.656-19.992-6.899-85.919-1.117-105.081c5.439-18.026,32.529-45.15,37.927-61.663
						c23.698-72.483,24.665-125.933,40.06-130.043c48.698-13.005,149.034-3.926,176.503,19.445
						C2282.785,871.414,2383.406,1379.708,2365.341,1391.724z"></path><path fill="#E4C012" d="M2365.361,1391.68c0,0-200.481,24.673-241.931,20.912c-41.525-3.762-189.798-44.76-191.228-50.778
						c-0.828-3.311,30.241-96.592,69.735-236.44c5.642-20.01-6.921-85.985-1.128-105.017c0.15-0.301,0.15-0.526,0.226-0.828
						c8.576,37.84,21.214,96.141,21.967,112.089c1.053,23.997-31.37,104.416-36.636,118.558
						c-5.341,14.143,13.466,10.381,29.263,13.165c15.648,2.709-23.546,25.577-31.821,42.804c-8.35,17.152,16.55,5.116,41.451,8.2
						c24.9,3.16-25.502,15.046-35.357,20.763c-9.93,5.868,93.959,35.808,115.7,43.406c21.665,7.672,122.996-9.328,136.913-17.604
						c13.993-8.426-35.658-41.677-52.96-62.063c-17.227-20.16,89.821,49.35,114.421,38.893
						c24.599-10.532-18.431-17.378-36.636-36.184c-18.355-18.807,37.012,23.32,58.828,5.867
						c21.816-17.377-5.341-82.75-72.068-105.469c-66.652-22.718-70.864-75.979-94.185-101.782
						c-23.32-25.728-86.661-10.608-117.655-27.608c-26.856-14.67-14.745-55.217-4.589-70.037
						c3.385,12.187,12.714,29.189,37.915,41.827c31.595,15.797,104.039,8.877,142.406,3.762
						c40.848,51.982,83.05,98.472,118.408,122.244C2358.215,1284.481,2373.335,1386.413,2365.361,1391.68z"></path><path fill="#FFD600" d="M2255.313,848.038c0,0,37.449,32.406,44.852,42.89c7.4,10.48,58.511,224.733,59.104,239.598
						c0.594,14.864-10.515,44.441-37.724,67.081c-55.919,46.526-124.945-56.546-114.598-88.283
						C2217.295,1077.584,2255.313,848.038,2255.313,848.038z"></path><path fill="#C6501C" d="M2242.334 924.691c0 0-37.407 167.034-31.743 170.582C2216.251 1098.82 2245.178 960.231 2242.334 924.691zM2242.881 840.341c-36.349-16.793-114.446-22.723-158.593-13.057-3.219 19.187-6.905 74.183 55.848 90.784C2201.133 934.163 2232.614 867.713 2242.881 840.341zM2036.836 963.23c0 0-39.373 48.657-42.1 55.425-2.731 6.766 6.566 98.176 5.469 102.818-1.096 4.641-8.336 30.881-4.706 26.495 3.625-4.384 12.067-31.856 12.165-34.661.097-2.801-4.832-85.325-4.669-90C2003.158 1018.636 2037.537 968.129 2036.836 963.23z"></path><g><g><g><path fill="#FAB19E" d="M2128.578,823.254c-1.859-3.147,4.132-55.839,3.654-57.368l76.408-55.725l-4.162,114.708
									c5.142,1.94,17.384,5.105,33.072,12.962c-37.313,71.997-127.194,93.012-147.95-9.035
									C2086.01,823.257,2120.007,825.92,2128.578,823.254z"></path><path fill="#EBA090" d="M2089.581 828.795c13.013 63.722 52.929 79.456 90.154 64.639-20.863-24.12-46.32-53.697-59.175-69.078C2107.585 825.155 2086.792 824.358 2089.581 828.795zM2128.254 820.401c-.191-8.175 2.156-31.603 3.286-44.917 15.976-3.532 43.738-11.49 54.338-26.771C2185.878 748.713 2193.393 816.108 2128.254 820.401z"></path><path fill="#FAB19E" d="M2225.836,673.557c-31.187,178.982-201.439,150.808-128.078-50.596
									c2.112,25.31,99.136,23.989,99.136,23.989C2200.273,666.196,2210.77,676.396,2225.836,673.557z"></path><path fill="#FAB19E" d="M2199.492,743.455l15.285-49.313C2262.304,684.733,2232.386,753.532,2199.492,743.455z"></path><path fill="#28264A" d="M2226.621 710.756c-42.858 8.498 15.799 23.111-8.299 7.217C2218.322 717.973 2233.019 711.573 2226.621 710.756zM2132.56 660.21c.68 4.506-14.121 8.945-30.593 4.249C2085.499 659.758 2131.007 649.872 2132.56 660.21zM2165.959 670.228c2.504-3.811 16.494 2.746 25.64 17.223C2200.742 701.931 2160.228 678.969 2165.959 670.228zM2124.862 697.694c4.63-3.189 3.365-11.188-4.697-19.196-3.813-7.36-35.625.581-17.591 6.425C2123.58 676.811 2114.428 699.139 2124.862 697.694zM2175.594 712.767c4.63-3.196 3.372-11.189-4.7-19.197-3.803-7.366-35.606.591-17.584 6.422C2174.312 691.881 2165.162 714.207 2175.594 712.767zM2140.302 702.081c-39.916 50.356 22.236 33.089-9.785 25.02C2130.517 727.101 2142.628 702.381 2140.302 702.081zM2136.691 757.142c-2.163-7.705-12.652 4.486-17.738-6.364-7.556.128-5.542 14.438 3.762 17.164C2130.39 769.715 2137.078 764.287 2136.691 757.142z"></path></g></g></g></g></g></g><g><g><path fill="#FFD600" d="M2267.206,441.407c-0.2,56.595-6.847,137.303-6.712,211.829l-0.001,0.302c0,0,0,0-0.103,0
					c-0.2-0.103-1.713-0.506-4.233-1.221c-6.528-8.941-31.099-24.165-62.335-37.816c-31.943-13.949-60.475-21.78-70.878-19.918
					c-0.505-0.203-0.908-0.507-1.412-0.808c0.003-0.102,0.103-0.199,0.306-0.301c0.202-0.2,0.506-0.596,0.911-0.995
					C2134.603,580.006,2230.235,478.922,2267.206,441.407z"></path><path fill="#E06020" d="M2242.872,466.38c1.173,2.842,3.419,5.804,7.892,7.759
					c6.053,2.711,11.859,1.55,15.769,0.098c0.371-11.644,0.637-22.669,0.639-32.824
					C2260.794,447.859,2252.403,456.542,2242.872,466.38z" opacity=".2"></path><g><path fill="#C6501C" d="M2265.202,460.18c0,0-5.656,4.038-9.222,0.691c-3.57-3.351-0.356-9.298-0.356-9.298
						s-6.251-1.217-6.718-7.483c-0.473-6.263,7.792-4.958,7.792-4.958s-1.073-4.991,2.208-6.095c3.277-1.105,6.328,2.419,7.51,4.558
						c0,0,5.755-2.363,8.346,0.377c2.594,2.743,2.282,8.291-0.087,10.746c0,0,5.528,7.979,0.141,12.095
						C2269.433,464.926,2265.202,460.18,2265.202,460.18z"></path><path fill="#E06020" d="M2271.418,456.11c0,0-3.758,4.457-7.331,2.429c-3.573-2.025-2.184-7.557-2.184-7.557
						s-5.308,0.266-6.966-4.783c-1.656-5.042,5.299-5.64,5.299-5.64s-1.883-3.875,0.547-5.447c2.433-1.566,5.621,0.704,7.015,2.224
						c0,0,4.177-3.103,6.837-1.376c2.657,1.724,3.538,6.339,2.118,8.831c0,0,6.104,5.428,2.58,9.893
						C2275.809,459.151,2271.418,456.11,2271.418,456.11z"></path></g><path fill="#E06020" d="M2228.99,480.856c0.467,0.754,1.128,1.351,1.96,1.833c2.887,1.689,6.599,0.68,8.297-2.182
					c1.625-2.837,0.741-6.4-2.072-8.117C2234.486,475.128,2231.749,477.966,2228.99,480.856z"></path><path fill="#E06020" d="M2242.009,501.93c3.228-5.536,10.37-7.425,15.95-4.215
					c5.58,3.205,7.486,10.295,4.256,15.831c-3.228,5.539-10.37,7.425-15.951,4.218
					C2240.684,514.556,2238.781,507.469,2242.009,501.93z" opacity=".5"></path><path fill="#E06020" d="M2238.932 532.202c2.906 1.672 3.901 5.367 2.218 8.255-1.683 2.888-5.406 3.872-8.316 2.2-2.909-1.674-3.904-5.37-2.22-8.257C2232.299 531.515 2236.021 530.531 2238.932 532.202zM2256.009 567.269c1.989 1.355 4.238 1.973 6.462 1.965.292-7.755.634-15.489.964-23.044-4.083-.38-8.185 1.374-10.652 5.004C2249.26 556.499 2250.684 563.721 2256.009 567.269z"></path><path fill="#E06020" d="M2238.52 580.949c2.909 1.674 3.904 5.371 2.218 8.255-1.683 2.888-5.407 3.872-8.316 2.2-2.91-1.674-3.904-5.367-2.218-8.255C2231.887 580.262 2235.611 579.278 2238.52 580.949zM2251.866 625.164c2.753 1.57 5.905 1.967 8.792 1.148.134-7.396.343-14.82.528-22.195-5.077-1.605-10.78.427-13.571 5.197C2244.411 614.883 2246.331 621.952 2251.866 625.164z" opacity=".5"></path><path fill="#E06020" d="M2188.701,523.03c0.426,0.431,0.896,0.759,1.441,1.058c2.978,1.483,6.674,0.223,8.116-2.753
					c1.214-2.463,0.619-5.29-1.261-7.028C2194.218,517.249,2191.458,520.14,2188.701,523.03z"></path><path fill="#E06020" d="M2194.923,537.403c3.228-5.536,10.37-7.422,15.95-4.215
					c5.58,3.208,7.487,10.295,4.255,15.831c-3.228,5.536-10.37,7.425-15.949,4.218
					C2193.599,550.029,2191.695,542.942,2194.923,537.403z" opacity=".5"></path><path fill="#E06020" d="M2194.157 567.15c2.909 1.672 3.904 5.367 2.218 8.255-1.683 2.885-5.406 3.872-8.316 2.197-2.909-1.672-3.904-5.367-2.218-8.255C2187.524 566.46 2191.248 565.476 2194.157 567.15zM2145.375 568.584l-.024.053c-.536 4.411 1.607 8.89 5.715 11.294 5.536 3.213 12.712 1.334 15.917-4.235 3.256-5.543 1.337-12.616-4.252-15.849-2.469-1.384-5.188-1.775-7.766-1.374l-.023.051C2151.585 562.07 2148.347 565.483 2145.375 568.584zM2189.466 598.616c3.229-5.54 10.37-7.425 15.95-4.218 5.579 3.208 7.483 10.295 4.256 15.834-3.228 5.536-10.37 7.423-15.95 4.215C2188.142 611.238 2186.238 604.151 2189.466 598.616z"></path><path fill="#E06020" d="M2260.494,653.236c-0.001,0.102-0.001,0.201-0.103,0.302c0.002,0.299-0.101,0.598-0.204,0.799
					c-0.407,0.701-1.214,1.299-2.427,1.593c0.004-1.002-0.599-2.205-1.602-3.613c-6.528-8.941-31.099-24.165-62.335-37.816
					c-31.943-13.949-60.475-21.78-70.878-19.918c-0.506,0.096-1.012,0.196-1.414,0.395c-0.203-0.402-0.422-1.721,1.219-2.499
					c6.779-4.08,37.833,4.057,73.503,19.528C2232.93,627.982,2260.52,645.924,2260.494,653.236z"></path></g></g></g><g><g><path fill="#FAB19E" d="M1724.792,789.972c0,0-5.497-38.036-7.785-46.36c-0.639-2.325-10.631,5.913-11.666,7.428
				c-7.838,11.464-4.276,26.806-4.276,26.806s-12.658-9.303-28.712-14.671l-0.017-0.01c-4.468-1.464-22.867,81.815-22.867,81.815
				s43.862,12.142,48.787,12.682c0.027-0.006,30.71,1.852,43.3,8.018C1745.909,851.759,1724.792,789.972,1724.792,789.972z"></path><path fill="#DB8F82" d="M1699.703,856.971c-0.912,0.433-1.442,0.677-1.442,0.677c-4.91-0.527-48.784-12.681-48.784-12.681
				s18.408-83.263,22.858-81.804l-2.874,4.598c16.062,5.358,31.592,10.081,31.592,10.081s-3.553-15.33,4.278-26.794
				c0.314-0.482,1.444-1.548,2.912-2.763c-0.09,4.869-0.314,19.83-0.448,21.732l11.342,6.478c0,0-0.198,14.424-3.074,16.441
				l4.037,4.446c0,0-1.744,15.51-7.481,17.95c0,0,0.736,4.95-1.029,10.153c-1.764,5.203-11.901,8.986-11.901,8.986L1699.703,856.971
				z"></path><path fill="#929ED3" d="M1681.635,931.5c2.779-12.145,7.352-24.278,9.004-34.151c5.284-31.714-16.434-59.366,1.478-93.16
				c21.129-39.859-17.81-67.96-9.187-108.323c1.316-6.168-8.043-9.34-9.378-3.133c-2.867,13.464-6.452,26.815,0.66,39.788
				c15.364,27.968,22.095,42.768,3.555,77.734c-3.924,7.431-10.153,19.66-9.955,28.357c0.849,36.133,9.74,67.81,0.84,104.858
				c-2.403,10.014-0.809,17.423,3.325,24.19c0.587,1.692,1.314,3.378,2.235,5.056c15.364,27.968,22.095,42.768,3.555,77.736
				c-3.924,7.431-10.153,19.659-9.955,28.356c0.849,36.134,9.74,67.811,0.84,104.858c-3.716,15.485,2.03,24.764,12.144,35.025
				c4.454,4.524,11.824-2.043,7.345-6.603c-19.309-19.604-1.166-52.636,2.497-74.542c5.284-31.715-16.434-59.367,1.478-93.161
				c13.023-24.568,3.233-44.672-4.181-65.931C1689.671,976.797,1671.977,967.661,1681.635,931.5z"></path><path fill="#F46690" d="M1874.661,434.863c-5.647,104.025-93.915,243.249-183.053,235.781l13.47,26.517l-56.929-3.074
				l16.238-24.905c-94.477-14.401-144.791-105.522-157.097-234.594c-12.466-130.743,99.988-210.969,191.195-207.693
				C1818.484,231.205,1881.465,308.957,1874.661,434.863z"></path><g opacity=".35"><g><path fill="#DFE4EF" d="M1640.523 413.832l-12.566.603-.102-11.614h-5.78l-.353 11.011h-11.262l.957-35.338 11.964.552-.754 18.047h5.582l.048-19.406 11.46.304L1640.523 413.832zM1677.176 411.671l-12.466 1.608-1.507-5.683h-5.729l-1.257 5.683-12.818-1.257 10.001-33.48 13.973-.702L1677.176 411.671zM1662.297 399.907l-1.91-8.744-1.859 8.744H1662.297zM1709.558 389.654c0 1.625-.243 3.065-.729 4.322-.485 1.257-1.152 2.354-1.999 3.292-.846.937-1.838 1.735-2.976 2.386-1.14.655-2.36 1.187-3.656 1.598-1.3.411-2.646.711-4.033.904-1.392.193-2.76.297-4.098.316v11.712h-11.712c0-3.838.006-7.657.025-11.461.015-3.803.042-7.641.077-11.513.03-2.044.039-4.089.024-6.134-.019-2.044.025-4.103.125-6.181 2.144-.637 4.288-1.113 6.434-1.431 2.146-.319 4.356-.479 6.636-.479 1.291 0 2.58.105 3.872.313 1.287.211 2.525.542 3.705.993 1.18.454 2.277 1.018 3.292 1.698 1.015.678 1.891 1.487 2.627 2.425.739.938 1.322 2.007 1.747 3.205C1709.343 386.817 1709.558 388.162 1709.558 389.654zM1698.398 390.506c0-1.088-.331-1.938-.993-2.551-.662-.609-1.52-.916-2.574-.916-.353 0-.718.028-1.094.089-.376.058-.733.128-1.066.211l-.304 7.341c.237.035.463.049.681.049.218 0 .443 0 .676 0 .605 0 1.187-.1 1.748-.3.56-.202 1.06-.49 1.495-.867.436-.378.782-.822 1.043-1.333C1698.269 391.716 1698.398 391.144 1698.398 390.506zM1742.795 389.654c0 1.625-.242 3.065-.729 4.322-.484 1.257-1.152 2.354-1.998 3.292-.846.937-1.839 1.735-2.976 2.386-1.14.655-2.36 1.187-3.657 1.598-1.3.411-2.646.711-4.033.904-1.391.193-2.759.297-4.098.316v11.712h-11.712c0-3.838.006-7.657.025-11.461.015-3.803.042-7.641.075-11.513.032-2.044.042-4.089.026-6.134-.019-2.044.025-4.103.125-6.181 2.142-.637 4.288-1.113 6.434-1.431 2.145-.319 4.354-.479 6.636-.479 1.291 0 2.58.105 3.872.313 1.287.211 2.525.542 3.705.993 1.18.454 2.276 1.018 3.292 1.698 1.015.678 1.891 1.487 2.627 2.425.739.938 1.32 2.007 1.747 3.205C1742.581 386.817 1742.795 388.162 1742.795 389.654zM1731.635 390.506c0-1.088-.33-1.938-.992-2.551-.662-.609-1.52-.916-2.575-.916-.353 0-.717.028-1.094.089-.378.058-.734.128-1.068.211l-.303 7.341c.235.035.463.049.68.049.217 0 .444 0 .677 0 .604 0 1.187-.1 1.747-.3.562-.202 1.061-.49 1.496-.867.436-.378.783-.822 1.043-1.333C1731.507 391.716 1731.635 391.144 1731.635 390.506zM1778.369 379.799l-13.824 19.305-.653 15.733h-11.913l.303-15.632-7.19-18.651 12.818-1.61 2.01 10.86 6.384-10.86L1778.369 379.799z"></path></g><g><path fill="#DFE4EF" d="M1662.51 422.788l-2.691 50.715-19.599 1.797-10.473-27.153-1.647 27.676h-16.829l1.345-53.035 18.7-.899 12.944 26.928.597-25.432L1662.51 422.788zM1704.791 422.491c-.151 2.344-.287 4.661-.415 6.955-.123 2.294-.287 4.612-.484 6.956l-15.858.82-.375 4.717h11.148l-.826 11.593-11.22.374-.374 5.461h9.277 6.581c-.15 2.74-.305 5.463-.47 8.173-.16 2.704-.305 5.414-.43 8.131l-32.236.75 1.194-53.93H1704.791zM1777.361 424.506l-8.752 51.842-21.242.446-4.564-26.856-4.562 24.912-21.245.748-8.825-51.093 18.55-1.641 3.739 31.042 5.013-31.042h14.586l5.834 31.416 2.991-31.416L1777.361 424.506zM1654.607 483.043l-18.382 25.669-.868 20.923h-15.844l.404-20.788-9.562-24.801 17.046-2.141 2.674 14.442 8.49-14.442L1654.607 483.043zM1688.28 480.104c-.135 2.095-.256 4.165-.371 6.217-.11 2.049-.256 4.12-.432 6.216l-14.172.732-.334 4.215h9.962l-.738 10.362-10.027.333-.334 4.88h8.291 5.882c-.135 2.448-.274 4.882-.42 7.304-.143 2.417-.274 4.838-.383 7.267l-28.81.668 1.068-48.194H1688.28zM1734.983 525.426l-16.577 2.14-2.006-7.558h-7.617l-1.672 7.558-17.046-1.672 13.299-44.522 18.583-.933L1734.983 525.426zM1715.199 509.782l-2.54-11.63-2.474 11.63H1715.199zM1778.279 496.079c0 1.74-.151 3.313-.452 4.732-.301 1.414-.774 2.71-1.423 3.892-.644 1.182-1.479 2.27-2.507 3.273-1.022 1.003-2.261 1.965-3.708 2.878l7.955 14.167-15.039 2.943-5.149-14.238-4.145.134-.599 13.904h-14.372c.109-5.083.216-10.138.314-15.175.102-5.033.219-10.092.354-15.176.041-2.56.086-5.102.131-7.617.045-2.52.134-5.059.268-7.623 1.562-.578 3.097-1.056 4.614-1.439 1.512-.375 3.033-.673 4.561-.884 1.525-.213 3.074-.355 4.648-.432 1.568-.078 3.18-.119 4.83-.119 2.539 0 4.993.351 7.369 1.052 2.373.7 4.472 1.756 6.298 3.158 1.83 1.403 3.293 3.155 4.397 5.246C1777.725 490.853 1778.279 493.294 1778.279 496.079zM1763.304 497.15c0-.937-.131-1.793-.384-2.576-.256-.779-.635-1.451-1.137-2.022-.501-.567-1.124-1.015-1.87-1.338-.751-.322-1.623-.485-2.626-.485-.444 0-.88.029-1.304.086-.423.053-.835.139-1.234.249l-.534 12.435h.798c.958 0 1.938-.122 2.927-.37.989-.245 1.883-.624 2.673-1.134.791-.513 1.435-1.169 1.935-1.973C1763.051 499.221 1763.304 498.263 1763.304 497.15z"></path></g></g><path fill="#FF7A87" d="M1578.669 300.368c26.816-45.809 93.118-56.412 90.414-27.433C1666.378 301.914 1569.396 316.209 1578.669 300.368zM1562.441 320.846c2.535-9.574 44.048-11.205 28.206 0C1574.805 332.051 1558.963 333.983 1562.441 320.846z"></path><path fill="#EA5198" d="M1874.647,434.871c-5.633,104.031-93.9,243.232-183.025,235.778l13.463,26.515l-56.944-3.091l16.245-24.9
				c-82.84-12.604-131.748-84.214-150.81-188.691c61.273,75.181,163.603,153.59,237.033,123.195
				c84.591-35.032,117.459-196.282,86.326-314.911C1864.893,324.246,1877.942,373.909,1874.647,434.871z"></path><path fill="#929ED3" d="M1658.207,668.097c2.954,0.878,37.535-0.087,38.308,3.391c0.773,3.476,0,5.795,0,5.795
				s-37.672,2.488-39.411-1.16C1655.365,672.477,1658.207,668.097,1658.207,668.097z"></path></g><g><g><path fill="#FAB19E" d="M1662.588,761.81c14.892-0.157,52.902,16.665,52.902,16.665s0.872,8.116-0.99,10.529
					c-3.027,3.922-4.73,5.764-14.635,4.227c6.597,2.317,15.068,6.277,15.068,6.277s-2.107,9.455-4.623,11.202
					c-3.368,2.341-9.506,2.916-15.718,1.739c4.494,2.134,12.302,5.299,12.302,5.299s-0.849,9.02-3.604,10.376
					c-5.238,2.578-14.604,1.676-23.085-0.14c5.942,2.171,13.292,5.507,13.292,5.507s-1.383,8.741-3.852,10.035
					c-9.595,5.029-40.175,1.453-40.175,1.453c-8.057-8.467-17.344-41.067-11.547-50.852
					C1649.466,774.643,1656.714,761.882,1662.588,761.81z"></path><path fill="#DB8F82" d="M1663.732 785.427c.001-.24 2.107-.478 5.492-.255 3.38.229 8.016.91 13.025 2.092 10.031 2.346 17.793 5.463 17.616 5.967-.174.519-8.146-1.742-18.059-4.059-4.955-1.169-9.466-2.051-12.746-2.625C1665.781 785.979 1663.725 785.727 1663.732 785.427zM1660.33 804.288c.05-.586 8.047.069 17.505 2.536 9.477 2.369 16.915 5.113 16.757 5.624-.159.524-7.818-1.37-17.231-3.723C1667.961 806.275 1660.286 804.784 1660.33 804.288zM1658.996 823.003c.126-.526 5.425.297 11.834 1.837s11.503 3.216 11.376 3.743c-.126.526-5.425-.297-11.834-1.838C1663.962 825.205 1658.869 823.529 1658.996 823.003z"></path></g></g><path fill="#DB8F82" d="M1712.73,847.625c-0.605-0.367,4.9-8.262,8.048-19.444c3.309-11.166,2.506-20.723,2.949-20.757
			c0.263-0.052,0.919,2.319,0.997,6.228c0.132,3.901-0.44,9.326-2.062,15.068c-1.633,5.741-4.035,10.627-6.108,13.91
			C1714.509,845.941,1712.915,847.755,1712.73,847.625z"></path></g><g><path fill="#FAB19E" d="M1938.264,1326.156c0,0,281.627-222.531,307.701-224.584c41.223-3.244,101.868,41.483,63.223,99.331
			c-19.389,29.024-354.055,194.329-354.055,194.329L1938.264,1326.156z"></path><g><path fill="#FAB19E" d="M1868.077,1309.555c-6.338,9.143,2.976,15.58,2.976,15.58l28.476,19.693l-73.673,47.399
				c0,0,1.189,9.489,7.898,9.387c3.069-0.047,41.554-19.578,41.554-19.578l-49.177,31.685c0,0,2.704,9.987,8.467,8.029
				c2.756-0.937,52.289-22.527,52.289-22.527l-46.304,28.603c0,0,7.822,8.109,9.957,7.393c11.01-3.695,48.734-20.51,48.734-20.51
				l-34.612,19.552c0,0,3.682,9.105,11.048,5.182c8.819-4.697,53.874-22.58,66.103-32.44c16.019-12.917,72.943-38.139,72.943-38.139
				s-33.26-59.341-35.659-64.479c-7.161,4.008-32.913,17.968-32.913,17.968C1921.127,1322.159,1902.992,1312.344,1868.077,1309.555z
				"></path><path fill="#DB8F82" d="M1882.021 1377.342c.374.61-4.235 4.118-10.293 7.838s-11.274 6.241-11.647 5.631c-.374-.609 4.234-4.118 10.293-7.837C1876.433 1379.255 1881.648 1376.734 1882.021 1377.342zM1894.675 1394.249c.346.626-4.108 3.751-9.949 6.981s-10.857 5.342-11.202 4.716c-.346-.626 4.109-3.751 9.95-6.981C1889.314 1395.735 1894.33 1393.623 1894.675 1394.249zM1907.821 1409.058c.364.615-3.213 3.404-7.989 6.23-4.776 2.825-8.943 4.618-9.307 4.003-.364-.616 3.213-3.405 7.989-6.23C1903.291 1410.235 1907.458 1408.443 1907.821 1409.058z"></path><path fill="#DB8F82" d="M1902.918 1402.525c.782-.138 1.616 2.739 3.703 5.355 2.042 2.675 4.589 4.034 4.4 4.708-.097.736-3.809.267-6.438-3.112C1901.97 1406.095 1902.295 1402.537 1902.918 1402.525zM1890.678 1388.492c.782-.138 1.616 2.74 3.703 5.356 2.041 2.675 4.589 4.034 4.4 4.708-.097.736-3.809.267-6.438-3.112C1889.729 1392.062 1890.055 1388.505 1890.678 1388.492zM1878.601 1372.63c.781-.138 1.616 2.74 3.702 5.355 2.042 2.675 4.589 4.034 4.4 4.708-.096.737-3.809.267-6.438-3.112C1877.652 1376.2 1877.978 1372.641 1878.601 1372.63z"></path></g></g></g><g><g><path fill="#B9C1E1" d="M1716.727,2650.558c0.274,9.513-59.311,18.952-133.09,21.083
			c-73.775,2.128-133.804-3.855-134.079-13.368c-0.277-9.513,59.311-18.953,133.086-21.083
			C1656.424,2635.061,1716.453,2641.048,1716.727,2650.558z" opacity=".5"></path><polygon fill="#DFE4EF" points="1690.312 2649.007 1512.339 2649.007 1472 2342.355 1730.65 2342.355"></polygon><path fill="#B9C1E1" d="M1697.588,2593.681c-53.998,27.102-123.814,3.166-149.655-17.296
			c-21.62-17.089-75.933-234.028-75.933-234.028l40.171,305.811c-0.161,0.29-0.332,0.584-0.332,0.881
			c0,6.586,40.065,11.925,89.484,11.925c49.423,0,89.488-5.339,89.488-11.925c0-0.333-0.174-0.658-0.374-0.984L1697.588,2593.681z"></path><path fill="#B9C1E1" d="M1730.65,2344.166c0,9.517-57.901,17.231-129.327,17.231c-71.422,0-129.324-7.714-129.324-17.231
			c0-9.52,57.902-17.234,129.324-17.234C1672.749,2326.932,1730.65,2334.647,1730.65,2344.166z"></path></g><g><path fill="#DFE4EF" d="M1597.522,2313.886c43.956-79.553,36.993-230.437,60.501-207.313
			c23.507,23.124,24.777,33.111,24.777,33.111s22.921-118.424,59.04-100.671c36.118,17.747,11.93,93.689,11.93,93.689
			s32.515-20.928,43.021-2.563c10.506,18.366-79.037,56.071-79.037,56.071s35.345,18.739,4.823,44.052
			c-15.8,13.101-47.563,12.789-47.563,12.789L1597.522,2313.886z"></path><path fill="#B9C1E1" d="M1736.917,2159.12l-33.707,11.164c3.913-10.158,6.902-20.548,8.646-31.119
			c-2.005,6.699-3.775,13.378-6.557,19.781c-1.734,4.226-3.617,8.375-5.57,12.489l-0.129,0.042l0.048,0.123
			c-3.582,7.527-7.498,14.881-11.718,22.076l-21.248-20.4l19.172,23.891c-17.654,29.278-39.884,56.035-62.048,81.77
			c18.076-17.031,36.428-36.832,51.829-58.54l35.751-16.135l-31.847,10.548c8.514-12.625,15.902-25.868,21.641-39.565
			L1736.917,2159.12z"></path></g><g><path fill="#DFE4EF" d="M1585.534,2278.737c-30.732-41.805-37.886-127.738-49.495-112.918
			c-11.605,14.819-11.592,20.567-11.592,20.567s-21.686-65.358-40.825-52.654c-19.143,12.705,0.135,53.917,0.135,53.917
			s-19.945-9.455-24.546,1.715c-4.597,11.167,48.869,25.932,48.869,25.932s-18.633,13.207,0.509,25.293
			c9.91,6.254,27.867,3.739,27.867,3.739L1585.534,2278.737z"></path><path fill="#B9C1E1" d="M1495.24,2201.367l19.904,3.843c-2.962-5.461-5.416-11.125-7.183-16.983
			c1.628,3.646,3.121,7.299,5.168,10.716c1.29,2.266,2.664,4.478,4.072,6.663l0.075,0.016l-0.017,0.071
			c2.579,3.994,5.339,7.873,8.256,11.635l10.529-13.111l-9.096,14.935c12.149,15.278,26.702,28.788,41.14,41.731
			c-11.486-8.313-23.33-18.172-33.646-29.333l-21.428-6.502l18.807,3.626c-5.748-6.519-10.906-13.472-15.161-20.806
			L1495.24,2201.367z"></path></g><path fill="#B9C1E1" d="M1580.76 2188.227c-17.27-7.218-52.205-74.171-39.946-74.565 12.26-.397 30.848 18.433 30.848 18.433s-12.653-74.198 4.749-66.287c17.402 7.908 27.289 41.922 27.289 41.922s11.344-15.425 20.106-2.373C1632.568 2118.408 1592.623 2193.185 1580.76 2188.227zM1675.282 2288.073c-2.01-1.731 41.526-37.77 48.643-27.189 7.121 10.577-13.446 16.832-11.863 18.053 1.579 1.225 38.363 1.621 33.22 9.136C1740.141 2295.588 1686.749 2297.961 1675.282 2288.073zM1533.061 2305.149c-1.78 5.784-86.136-.751-69.365-25.254 8.236-12.034 26.966-4.614 26.966-4.614s-25.538-22.624-16.617-22.785c8.922-.165 40.815 15.187 40.815 15.187s1.725-9.513 8.885-8.569C1530.901 2260.059 1535.775 2296.335 1533.061 2305.149z"></path></g></svg>